/* XPM */
static char *result[] = {
/* columns rows colors chars-per-pixel */
"64 64 247 2 ",
"   c #0A0000",
".  c #070000",
"X  c #130100",
"o  c #1A0900",
"O  c #1F1B09",
"+  c #281A06",
"@  c #272109",
"#  c #332909",
"$  c #342E12",
"%  c #383314",
"&  c #38310B",
"*  c #433C05",
"=  c #453608",
"-  c #443C17",
";  c #4E4905",
":  c #4B4505",
">  c #534C03",
",  c #544C0A",
"<  c #564A0C",
"1  c #56520B",
"2  c #5B540C",
"3  c #5D5A0B",
"4  c #5A5505",
"5  c #4B4718",
"6  c #534C14",
"7  c #534817",
"8  c #5C5513",
"9  c #595718",
"0  c #645B0A",
"q  c #645C15",
"w  c #656305",
"e  c #6B6602",
"r  c #6C6A04",
"t  c #65630C",
"y  c #6B630D",
"u  c #6D6C0C",
"i  c #726D04",
"p  c #75690B",
"a  c #75740C",
"s  c #787507",
"d  c #656214",
"f  c #6C6314",
"g  c #66621B",
"h  c #6B641B",
"j  c #6D6C18",
"k  c #746C14",
"l  c #726B1B",
"z  c #756917",
"x  c #747314",
"c  c #7A7518",
"v  c #585526",
"b  c #645C29",
"n  c #6C6825",
"m  c #736C24",
"M  c #726828",
"N  c #7A7425",
"B  c #7A742B",
"V  c #7A7828",
"C  c #6E6933",
"Z  c #6E6935",
"A  c #716B39",
"S  c #797734",
"D  c #6D7128",
"F  c #84790C",
"G  c #867B1A",
"H  c #837B2C",
"J  c #827824",
"K  c #847E32",
"L  c #827F3B",
"P  c #7E8229",
"I  c #7F8439",
"U  c #7F8009",
"Y  c #8E8900",
"T  c #89850B",
"R  c #938D09",
"E  c #97950D",
"W  c #878419",
"Q  c #958B18",
"!  c #9C9715",
"~  c #A59916",
"^  c #A49F0D",
"/  c #ABA607",
"(  c #BEB80A",
")  c #AAA716",
"_  c #B7A819",
"`  c #BAB417",
"'  c #AFB011",
"]  c #878729",
"[  c #968B24",
"{  c #9D9425",
"}  c #97952C",
"|  c #868234",
" . c #898533",
".. c #8D8C34",
"X. c #8B853A",
"o. c #868639",
"O. c #928D39",
"+. c #8C9337",
"@. c #95943C",
"#. c #9A9B3C",
"$. c #959837",
"%. c #8F9125",
"&. c #A39928",
"*. c #AB9D2F",
"=. c #9AA33E",
"-. c #9DB23E",
";. c #B6A828",
":. c #BCB629",
">. c #A8A839",
",. c #B6AB34",
"<. c #BEB635",
"1. c #ACA527",
"2. c #C4BC0C",
"3. c #C8BC08",
"4. c #D4BE09",
"5. c #C8BA18",
"6. c #D4BD17",
"7. c #C8BA29",
"8. c #D1BC26",
"9. c #C2B533",
"0. c #C4BB33",
"q. c #C8BB37",
"w. c #D1BE32",
"e. c #CDC203",
"r. c #CDC20C",
"t. c #C9C40A",
"y. c #D4C404",
"u. c #DBCB02",
"i. c #D1C30B",
"p. c #DCCD0B",
"a. c #D7C707",
"s. c #DCD30B",
"d. c #CCC21B",
"f. c #CAC515",
"g. c #D4CA14",
"h. c #D2C51A",
"j. c #D3CB1C",
"k. c #D6C616",
"l. c #DBD317",
"z. c #E4CC02",
"x. c #EBCC04",
"c. c #EDCC0A",
"v. c #E3C905",
"b. c #F2CD0B",
"n. c #F1CE06",
"m. c #E5D302",
"M. c #EBD302",
"N. c #E6DB04",
"B. c #EAD903",
"V. c #E5D30B",
"C. c #EBD40B",
"Z. c #E5DB0B",
"A. c #EDDC0C",
"S. c #F1D306",
"D. c #F3D20A",
"F. c #F2DB0C",
"G. c #F4D905",
"H. c #E3CC18",
"J. c #EBDB14",
"K. c #E8D818",
"L. c #F1DC16",
"P. c #E9E30B",
"I. c #EAE417",
"U. c #F5E319",
"Y. c #CCC428",
"T. c #D5CB24",
"R. c #D5CA2B",
"E. c #D6C628",
"W. c #DCD22B",
"Q. c #CDC435",
"!. c #D4CA33",
"~. c #D5CC3A",
"^. c #D4C734",
"/. c #DAD238",
"(. c #EDDD24",
"). c #E5D829",
"_. c #E5DB36",
"`. c #EBE329",
"'. c #F5E526",
"]. c #E7E135",
"[. c #8B8947",
"{. c #928D43",
"}. c #948C47",
"|. c #939443",
" X c #9C9B43",
".X c #9C9C4C",
"XX c #989548",
"oX c #938D54",
"OX c #999655",
"+X c #8E8C51",
"@X c #A29E43",
"#X c #A29E4C",
"$X c #A39E55",
"%X c #9DA343",
"&X c #9CAD44",
"*X c #9DA44C",
"=X c #9FAA4A",
"-X c #97A740",
";X c #9FB244",
":X c #9EB148",
">X c #9EA553",
",X c #9EAA52",
"<X c #9FA359",
"1X c #A3A445",
"2X c #A4AC44",
"3X c #A8AF45",
"4X c #A3A54B",
"5X c #A4AC4C",
"6X c #AAAD4D",
"7X c #A9A649",
"8X c #B2AB49",
"9X c #A3B445",
"0X c #A9B145",
"qX c #A6B847",
"wX c #A4B24C",
"eX c #ABB34C",
"rX c #AABA4B",
"tX c #A8B949",
"yX c #B2B44D",
"uX c #A4A453",
"iX c #A4AC53",
"pX c #A9AD54",
"aX c #A3A45B",
"sX c #A6AC5B",
"dX c #AAAD5B",
"fX c #A8A65A",
"gX c #A6B252",
"hX c #ABB254",
"jX c #A6B259",
"kX c #ACB35B",
"lX c #AEB85C",
"zX c #A9B952",
"xX c #B2B252",
"cX c #B1B35B",
"vX c #B2B95C",
"bX c #B3AE57",
"nX c #A6AB62",
"mX c #AAAD63",
"MX c #AAA867",
"NX c #ADB262",
"BX c #AEB16C",
"VX c #B2B467",
"CX c #B1AE69",
"ZX c #C6BA53",
"AX c #D8CC48",
"SX c #D7CB58",
"DX c #D1C748",
/* pixels */
"5X=X5X2X5XwX5XwXwXgXgXgXzXzXzXtXtX:X:X-.-.-.qXqXrXrXqXqX2XwXhXhXkXdXsXiXuXiXsXfXfXbXhXhXpX6X2X&X9XqXqXtXqX9X9XqX-.;X;XqX:XwXwXwX",
"2X5X=XwXwX5XgX,X5XgXgXgXzXzXzXtXtXtX9X;X-.-.qXtXrXrXrX-.9XwXeXhXhXdXpXdXpXuXuXiXpXpXpXhX6X6X2X&X2XwXtXqXqX9X;X;X;X;X;XqXtXgX6XwX",
"5X=X5XwXwXgXgXgXgXwXzXzXgXzX:XzXqX9X9X;X-.-.-.tXrXtXqX<.9X6XiXhXpXpXdXpXpXfXpXpXiXpXpXpXwX5X&X2X2XqXtXrXqX9X;X;X;X;XqX:XwXwXgX5X",
"=X5X=X5XgXgXhXzXjXjXgXwX:X:X:X:XqX9X9X9X;XqXqXtXtXtXqXqXwXeXeXgXhXdXhXdXdXbXdXpXbXpXpXiX6X6X2X2X9X0XtXwX9X;X;X;XqX;X;XqXwXwXwXwX",
"=X=X=XgXgXjXzXlXlXzXjXwX:X&X&X&X9X9X9XqXqXqXqX9XqXqXrX0XeXzXwX6XiXxXdXcXcXcXcXdXbXuX6X6X4X6X6X0X0XeXtXqX9X9X;X;X:X:X9X:XwXwX6XwX",
"*X=X5XiXhXlXlXvXlXlXjX5X-X-X-X&X&X9XqXtXrXtXqX9X>.0XqXwXeX6X5X=X4XuXdXcXcXbXbXbXpXpX7X6X6X6X0XeXwXrXwXqX2X&X&X&X:X:XwXwXwX6X5XgX",
"iX>XiXiXjXkXlXVXvXlXjX:X-X-X-X-X;XwXeXrXrXrX9X&X-X-X&X*X*X%X X|.|. X#XaX$X4XuX4X7X4X7X4X2X6X6XeXeXeXwXwX9X&X&X&X;X9XwXzXgXeXwXwX",
"iXsXiXsXjXkXkXkXlXlXgX=X*X-X&X&X2XwXrXrXrXrX-.=.=.+.+.o.I S S S S S L L [.[.[.{.|.@X4X6X6XeXeXeXeXeXeXwX2X&X&X&X:XgXwXgXwXwXwXiX",
"nXnXnXjXjXsXsXiXgXwX5X=X,X5X;XwXwXwXeXzXeXwX&X=.I P D b v v 5 v v v v v b b C M | |.1XpXxXyXxXeXeXhXeXwXwX:X:X=XwXgXgXgX:XgXwXwX",
"NXmXmXnXsXsXiX,X*X*X=X5XwXzXeXwXeXwXwXrXwX2X=.+.P D 9 - $ $ $ $ $ $ $ $ % - 5 6 n  .@XxXxXyXyX6X6XeXhXeX6XwX=XiXgXwXgXjXzXgXwXgX",
"BXBXmXmXsX<X>X*X*X-X=XgXhXzXzXzXzXeXeX0X2X=.$. .P g 5 $ O O O + + + + O + # = = q H  X8XyXxXxX6XeX6XhXhXgXiXiXgXgXwXjXwXgXgXiXgX",
"BXBXBXnXnX<X>X>X*X*X5XgXhXvXzXxXeXwX6X1X%X$.] V P 9 5 % $ $ $ - $ $ $ $ & = = = q N X. X7X7X6X6XeX6X6XwXiXgXgXgXjXjXjXzXgXgXiXwX",
"BXBXBXnXaX<X>X,XiXgXhXhXhXxXzXhXeX6X&X=.$.%.P j 3 9 9 v v b b b b b b 7 7 8 < q q n H K O.@X8X8X8X6X4X4XiXpXzXlXlXhXjXjXhXgX6XiX",
"BXBXmXnX<X<X>XsXNXcXcXzXhXhXeXeX6X2X=.$.] P j t 3 g D I [.oX}.}.}.{.L K H J J G z f q h H X.@X8X6X6X1X2X6XkXcXcXlXlXlXhXhXgXpXwX",
"mXMXnXnX<X<XsXlXVXVXVXvXpX6X5X6X4X%X$.%.W x t 3 3 l +.%XbXZXZXZXZXxX8X,.*.*.[ K J f < < q K @X8X7X1X1X%X4XhXlXlXlXkXjXhXhXwXeXiX",
"mXnXnX<X<X>XsXVXVXvXVXcXpXiX5X4X%X#.+.P x j t t y c } yXSXSXSXSXSXSXZXq.ZX9.,.*.[ z 2 < q H X.@X>.@X X1X6XcXvXcXlXlXhXhXpXpXgX6X",
"sXsXsXfXfXuXsXkXVXVXVXcXdXpX7X4X XO.] j d t f x W %.>.<.DXDXAXAXAXSXw.9.w.9.9.;.*.G J F 8 J J H O.#.7X7X6XxXcXcXkXpXiXiX6XeXiXeX",
"iXuXiXiXsXsXdXmXNXmXkXNXdXdXuX@X$.] l q 1 3 k W &.1.:.9.0.w.Q.Q.w.w.w.8.w.w.w.w.*.G G G z q M J H @.1X8X6XbXxXhXiX6X5X4X5XiXeXiX",
"uX4XiXpXdXdXdXdXdXfXmXmXmXbX4X X..H h 1 , 3 G *.<.Q.0.` ` 5.5.5.8.6.8.8.9.w.w.w.9.*.G G F q 0 8 m X.7X8XxXxXpX6X4X4X2X5X5X6XpXwX",
"5X5X4X6XhXcXdXdXfX$XfXfXfXfX#XO.] c q 2 , t ] ,.Q.R.Y.5.( 2.` 2.5.6.6.6.8.8.w.w.w.8.;.&.G 0 2 < h K  X7X8XpX8X6X4X4X2X4X5X6X6XpX",
"2X4X6XpXhXkXbXdXfXaX$XaXaX#XO.| N j f f j G } <.R.W.j.r.3.3.3.3.4.6.6.6.w.8.w.w.8.9.;.*.G F 0 < q N K @.@X#X6XpX6X6X4X6X5X6XwXpX",
"2X2X2X6XhXxXdXdXfXaX$X$XXX}.K m f d z J [ &.;.7.T.T.j.g.i.i.y.i.4.4.H.H.H.H.H.w.8.8.8._ ~ F F p 0 f M B X.@X6XxXxXpXpXiXiXpX6X6X",
"2X2X3X6XpXpXdXdXfXaX$XXX{.| N q 2 q G [ ,.0.Y.Y.h.g.g.p.s.V.a.u.v.H.H.K.H.w.8.6.8.8._ _ ~ ~ R F p 2 6 q B @.7X8XxXcXcXkXhX6XiXeX",
"2X6X3X6XeXxXpXpXfX$XXX{.L B h q 0 y W >.Q.~.R.f.r.i.s.V.K.V.V.V.V.H.b.L.H.b.6.6.6.6.6.8.5._ ~ Q F 0 ; 6 n  .#XbXbXcXcXcXhXhXpXiX",
"3X3X6XeX6XpXpXiX$X.X}.L B h h d f c { :.~./.T.h.3.y.p.V.A.C.V.C.C.C.L.K.K.H.H.6.4.6.6.5.5.5._ ~ F e 4 4 h H O. X4XdXcXcXdXbXpX6X",
"eXeXeXyXeX6X4X4X X}.o.m n d f l G [ ;.0./.W.j.i.3.y.u.m.C.F.B.C.C.C.D.K.b.H.c.4.4.4.4.5.5.5.5.` ~ T p e f l B L }.uXdXmXdXpXpXpX",
"rXyXyXeXeX6X4X X|.o.B n 8 8 j J } ;.9.Y.E.j.h.3.3.e.a.m.B.B.S.C.C.J.b.C.c.c.v.4.4.4.4.4.4.k.k.h.` ^ T F r q q n L OXfXdXdXpXpXpX",
"yXyXyXeX0X6X1X#.O.K n 8 , , k [ ,.0.Q.E.j.h.r.3.3.e.u.m.B.M.F.F.D.D.c.C.v.v.v.v.4.y.4.y.4.H.K.T.d.` ^ R i 4 < q S [.$XdXdXpXiXpX",
"yXrXyXyXeX3X1X@. .V n 1 : , z } <.~.!.T.g.k.i.e.e.y.u.m.B.M.S.D.b.n.c.x.v.v.v.v.z.u.y.y.s.K.K.K.g.5./ E i 4 * 6 Z [.fXfXdXdXpXpX",
"rXyXeXeXeX0X1X@. .V h 1 ; 1 z { 0.~.R.T.g.i.y.y.y.u.z.z.M.M.S.D.D.n.c.x.c.v.x.x.z.z.z.z.V.s.I.l.g.2./ R i > * 6 Z +XaXMXmXdXdXpX",
">.0X0XyXyX6X1X#. .V f 1 > , k { 0.!.R.j.i.i.a.u.z.z.m.M.M.S.S.S.n.n.x.x.x.x.n.n.M.M.m.m.m.Z.N.s.e.3./ R i > = 7 Z oXfXMXmXdXdXpX",
"0X-.3X0XeXeX2X#. .N f 2 > 4 c ~ :.!.R.g.i.y.u.m.B.B.B.M.M.M.S.S.n.n.n.x.x.n.n.S.G.G.B.B.B.N.P.s.t.( / Y i > * 7 Z oXMXCXmXdXdXpX",
"-.2X>.0XeX6X1X#. .N h 2 > 0 k &.<.!.T.h.r.y.u.m.B.B.M.M.M.n.D.b.D.b.x.x.x.n.n.n.G.G.B.B.B.B.Z.s.y.( / Y e > : 6 A oXMXCXCXfXdXdX",
">.>.0X0X3X3X1X#...B l 2 > 4 k { 7.R.T.h.i.y.u.m.M.M.M.M.S.S.D.D.b.b.c.c.n.b.G.G.G.S.M.B.B.A.P.Z.a.( / Y e ; * 5 A oXCXBXCXmXdXpX",
"0X0X3X3X3X3X1X#.O.H l 8 ; < z { <.!.E.h.i.y.u.z.m.B.M.M.M.S.b.D.b.b.b.b.b.D.D.G.S.M.z.V.B.A.U.Z.s.( / Y e ; * 7 A oXCXBXCXdXdXpX",
"-.0X0X>.3X7X#.#...] m 8 > < k { <.!.R.h.r.y.u.u.z.z.M.M.M.n.D.D.D.b.b.b.b.D.D.D.F.m.z.v.V.I.U.I.s.( / Y e ; * 5 A OXCXBXVXdXdXpX",
"0X0X>.0X2X1X=.@.O.H m 8 < , k { 9.!.R.h.4.i.y.u.m.z.M.M.M.S.S.D.b.b.b.c.b.b.D.D.S.V.z.v.C.I.U.I.l.2./ Y e ; : 5 A OXCXVXVXdXdXdX",
"0X0X0X0X3X2X1X#...H n 8 > < k { 9.!.R.h.3.r.a.V.B.B.B.x.x.M.S.D.b.b.b.c.b.b.D.D.S.c.v.V.V.L.I.I.l.2./ Y e ; & 7 A oXMXCXmXbXdXpX",
"3X3X6XeX6X6X%X@. .V h 2 : 1 x *.q.~.R.5.6.y.p.Z.A.F.B.x.x.x.b.D.b.b.b.c.n.c.n.n.C.C.D.J.J.L.J.l.g.( ' R i > & 5 A oXMXmXmXdXpXdX",
"6X3X3XeXeX6X*X@.] N d 1 ; 4 x &.q.~.R.d.3.3.V.A.U.U.A.z.z.x.C.D.L.b.b.c.x.x.x.c.C.L.L.L.I.K.l.p.t.( / R i > * 6 Z oXMXCXNXdXdXpX",
"3X6X6XeXxXxX4X@.| j d 1 ; 4 c } q.DXR.d.t.r.p.J.U.U.F.M.v.x.M.D.b.D.b.b.x.v.x.v.x.L.U.U.U.K.l.g.t.( ' R r > * 5 Z +XMXMXnXsXjXdX",
"6X6XpXhXhXhX4X@.P j d 1 ; 1 c *.Q.~.R.d.f.r.l.J.I.A.B.z.z.z.c.C.b.D.b.b.x.v.v.v.c.D.U.'.U.K.l.g.f.' / R i > : 6 Z +X<XMXmXsXdXpX",
"iXdXdXkXkXpXuX@.P N d 1 ; 4 x { 0././.j.f.g.p.l.K.V.m.m.M.z.M.x.M.x.c.x.x.z.z.z.S.L.U.'.'.'.).j.5.' / T r > * 6 Z [.<XMXmXdXsXpX",
"dXkXdXkXdXdX>X|.| V g 1 ; 1 x { <.~./.T.h.g.a.i.p.u.u.m.m.M.x.M.x.M.x.x.x.z.z.v.C.F.'.'.'.`.).W.d._ E U r > : 6 C +X<XMXdXjXsXpX",
"NXnXNXmXdXdXuXXX+.V n 3 ; 1 u { :.~.R.j.j.g.r.t.e.e.u.m.m.B.N.s.z.M.M.x.x.z.z.z.C.J.'.'.'._.).W.7.) R s w > ; 9 C +XaXnXmXsXpXdX",
"NXNXmXNXmXdXuX.X+.| V d 1 4 x Q -.:.Y.Y.j.g.r.t.( e.u.s.B.N.m.s.z.m.M.M.M.B.z.V.C.K.(.'.'._.W.Y.` ! T s w 3 3 n S +XaXnXsXdXdXgX",
"mXmXmXmXnXsXuX>XXX+.P D t t u P ! ) :.Y.j.g.r.t.3.e.u.m.B.m.N.N.m.z.M.B.B.C.C.C.K.L.(.(.).W.E.:.) T i w t j D S {.OXaXnXdXsXiXdX",
"BXMXmXnXnXaXsXuX>X%X+.P x u u j U W ) ` Y.j.g.3.3.e.y.m.N.B.s.N.m.B.B.G.F.A.A.J.L.(.(._.).Y.5.~ T i w 3 j S o.|..X<XaXsXsXdXgXpX",
"nXnXBXnXnXsXsXsXuXuX#...P c u u w U W ' Y.f.f.t.( t.s.N.s.P.s.s.m.B.A.F.F.L.L.(.(.(.).).8.5./ R s w > 3 D o..XuXsXaXsXsXdXpXiXpX",
"nXnXnXnXnXsXsXsXdXpX4X$.%.U x t w r U ! ' f.f.t.t.t.s.N.P.P.P.s.N.N.A.F.U.L.(.(.(.).).E.7._ R F i 0 3 9 D |.uXkXkXmXsXdXsXpXpXpX",
"nXnXnXnXnXsXjXNXNXjXiX1X$.] c u w w U U ! ' ' t.t.s.s.P.P.P.P.P.N.N.A.P.U.J.(.(.).W.8.7._ Q F p y t g D | XXiXlXkXdXjXpXhXiXiXgX",
",XnXsXnXnXjXnXNXNXNXpX4X=.} P x u w u U U E ) ` t.s.P.P.P.P.P.s.N.N.Z.J.I.K.(.).).w.8._ ~ F F 0 y m V o.|..XiXhXjXjXhXkXgXpXwXpX",
"jXnXsXnXjXjXNXNXVXNXdXiX=.$.%.P U u t w r U E ' f.P.I.I.I.I.P.P.N.Z.Z.K.L.).).).^.8._ ~ G F < 4 h V O.XX4X4X5XiXiXgXhXgXhXpXgX6X",
"jX,XsXjXnXjXNXNXNXVXkXpX5X X} %.U U w 3 w u Y ' f.l.l.I.I.I.I.I.P.Z.I.l.H.W.W.^.w.;.&.Q F 0 < 0 m o.@XiXiX5X=X=XwXgXzXzXgXwX6XgX",
"jXjXjXjXjXjXnXmXNXNXNXdXiX5X#.} %.U u t 3 r U E ' f.l.I.I.I.I.I.I.I.K.W.).W.w.8.7.;.Q F F 8 q M B |.4XpXhX6X5XwXwXeXeXeXwXgXwXwX",
"NXjXjXjX,X,X,XjXlXNXNXkXpXiX*X$.%.P P a u r U U U ' ' W.].`.].I.].`.`.].).R.w.7.&.G F p f f J J X.XXuXpXpXgXwXwXwXwXwXwXwXwXwXiX",
"NXlXjXsX,X,X,X<XsXNXNXNXkXsX5X1X#.} ] U U x a u U R ) Y.T.].]._.].]._._._.Q.7.1.G G F 0 f J K }.XX.X*XiXgXwXgXwXwXwXwX9XwX6XwXiX",
"lXlXjXjX,X*X>X,XsXjXkXNXlXkXpX5X%X#.} %.P U u w w a W ) :.Y.!.~././.~.AXZX9.;.{ J F < 0 q J }.$XuX4X*XuXiXgXzXzXqX9X:X9XwXwXwXwX",
"lXjXjXiX,X*X,X,XiXsXjXkXcXkXjXpX5X=.#.} %.P x d 3 u c Q ) 1.;.,.,.,.,.,.*.&.G G J 0 q q J L #XfXpXuX*X5X=XzXzXtXtXqX:X9X=XwX6XgX",
"jXjXjXjX,X,X,X,XiXsXjXlXkXlXkXpX6X6X1X=.$.%.P j g g j l c c G G H H H H J J M z f f M J L }.8XbXpX6X5X=X=XwXwXwXwX:X:X9XwXwXwX6X",
"jXjXjX,XjX,XjXjXiXgXiXjXlXlXhXhXpX6X4X1X X$.o.B D v 9 8 < : 7 - 7 7 7 - - < = < q M J }.}.#XiXbXxX6X5X5X;X=X:X;X:X:X:XtXwXwXgXwX",
",X,X,XjXjXjXjXgX,XiXiXgXhXjXlXkXkXpXpXuX*XXX{.X.D n 7 & # @ + + + + # + # # = = 7 M L }.7XpXpXhXhXeXwXwX:X&X:X:X:XgX:X:XwXgXwXgX",
",X,X,XjXjXjXjXjXgXiX,XzXhXjXhXkXpXhXpXiXuX.X}.[.S C 5 # + X X X o o o o o o + # - J }.$XbXbXxXhXhXeX9XwX:X:X;X:X:X:X:XgXgXwXgXwX",
",X,X,X,XjXlXjXgXgX,XgXjXhXhXhXlXkXkXdXsXuXOXXX[.S b - + o         X X o o o + # - M }.$XdXbXpXhXeXeXwX9X;X:X;X:X:X:XzX:XwXgX5XgX"
};
