/* XPM */
static char *_0ca1f97d9c64906f8ac3f793d7f4320npH9JWFkj3jd342a[] = {
/* columns rows colors chars-per-pixel */
"28 21 12 1 ",
"  c None",
". c black",
"X c #151200",
"o c #151300",
"O c #CBB703",
"+ c #CDB903",
"@ c #D4C003",
"# c #E6D103",
"$ c #E9D303",
"% c #EAD403",
"& c #F7E003",
"* c #F8E103",
/* pixels */
"        ....                ",
"       .@@@@.               ",
"      .@&&&&@.              ",
"     .@&%%%%&@.             ",
"    .@$*$$$$*$@.            ",
"    .$&%$$$$%+$.            ",
"    .$*$$$$$$O$.            ",
"    .$*$$$$$$O$.            ",
"    .$%&$$$$+#$.            ",
"     o$*$$$$O$o             ",
"      o%++++#o              ",
"       o####o               ",
"        oooo                ",
"                            ",
"                            ",
"                            ",
"                            ",
"                            ",
"                            ",
"                            ",
"                            "
};
