/* XPM */
static char *_f4d74a2c93d4c0ba96523346a65949dpcg9nztXPw6opxey[] = {
/* columns rows colors chars-per-pixel */
"64 64 161 2 ",
"   c #524C08",
".  c #56520F",
"X  c #444517",
"o  c #4A4B1B",
"O  c #4F511E",
"+  c #555213",
"@  c #5A5611",
"#  c #5C5915",
"$  c #595719",
"%  c #5C5C1B",
"&  c #615701",
"*  c #625904",
"=  c #625C0B",
"-  c #635E12",
";  c #605E1A",
":  c #65600E",
">  c #6D650C",
",  c #6F680D",
"<  c #746A02",
"1  c #736B0A",
"2  c #7D7205",
"3  c #77700C",
"4  c #7C740D",
"5  c #656113",
"6  c #6A6613",
"7  c #6E6913",
"8  c #64621B",
"9  c #68661A",
"0  c #6D6B1D",
"q  c #726D14",
"w  c #716D19",
"e  c #777113",
"r  c #7A7211",
"t  c #7F7810",
"y  c #72701A",
"u  c #444720",
"i  c #454921",
"p  c #4B4E24",
"a  c #4D5025",
"s  c #555721",
"d  c #5D5E22",
"f  c #525628",
"g  c #595D2B",
"h  c #5F6023",
"j  c #5D612D",
"k  c #636423",
"l  c #676822",
"z  c #6C6C24",
"x  c #61642C",
"c  c #666A2A",
"v  c #6B6E2C",
"b  c #716F20",
"n  c #6F7026",
"m  c #6F712C",
"M  c #717123",
"N  c #72742C",
"B  c #76792E",
"V  c #666A32",
"C  c #6A6F32",
"Z  c #6E7332",
"A  c #717634",
"S  c #757932",
"D  c #7A7E34",
"F  c #777C38",
"G  c #797F39",
"H  c #827603",
"J  c #867903",
"K  c #897D03",
"L  c #81770A",
"P  c #847A0B",
"I  c #897F0A",
"U  c #7C8136",
"Y  c #7D813A",
"T  c #7F883C",
"R  c #8E8205",
"E  c #8D820A",
"W  c #938504",
"Q  c #968905",
"!  c #9A8D06",
"~  c #958909",
"^  c #998D09",
"/  c #9F9105",
"(  c #A49503",
")  c #A79804",
"_  c #AC9C04",
"`  c #A09408",
"'  c #B3A303",
"]  c #B9A703",
"[  c #BCAA03",
"{  c #81853D",
"}  c #848A3D",
"|  c #C2AF03",
" . c #C4B203",
".. c #C9B603",
"X. c #CDBA03",
"o. c #D2BE03",
"O. c #D6C103",
"+. c #DAC503",
"@. c #DEC903",
"#. c #E2CD03",
"$. c #E6D103",
"%. c #EAD303",
"&. c #EFD803",
"*. c #F3DC03",
"=. c #F7E003",
"-. c #F8E103",
";. c #848640",
":. c #858B41",
">. c #898D42",
",. c #879040",
"<. c #8D9342",
"1. c #909645",
"2. c #949B46",
"3. c #969D47",
"4. c #949B48",
"5. c #969B48",
"6. c #9A9E4A",
"7. c #979650",
"8. c #999750",
"9. c #979850",
"0. c #9B9B53",
"q. c #99A048",
"w. c #9CA34A",
"e. c #9DA54A",
"r. c #9EA54C",
"t. c #9FA94D",
"y. c #9FA156",
"u. c #A2A54E",
"i. c #A2AA4E",
"p. c #A4AB4D",
"a. c #A7AF4F",
"s. c #A3B44F",
"d. c #A4A256",
"f. c #A4AD50",
"g. c #A7AD51",
"h. c #A9AE52",
"j. c #AAAE52",
"k. c #A1A458",
"l. c #A8A659",
"z. c #A7A85A",
"x. c #ADAD5C",
"c. c #B0AF52",
"v. c #B3AE5E",
"b. c #A5B151",
"n. c #ABB152",
"m. c #ACB252",
"M. c #ACB253",
"N. c #ADB35E",
"B. c #ABB85D",
"V. c #B1B154",
"C. c #B1B15B",
"Z. c #B2B25B",
"A. c #B2B35B",
"S. c #B0AD60",
"D. c #AEB661",
"F. c #B3B162",
"G. c #B6B16B",
"H. c #CEC785",
"J. c #D2C583",
"K. c #D3C584",
"L. c #D6C98E",
/* pixels */
"J.C.n.j.j.g.g.g.g.g.b.b.b.b.g.g.g.b.b.b.g.g.g.g.g.g.g.g.g.g.g.g.g.g.g.g.g.g.g.g.g.g.g.g.g.g.g.g.g.g.g.g.g.g.g.g.g.g.g.g.g.g.g.g.",
"J.C.n.j.j.g.g.g.g.g.b.b.g.b.g.j.g.s.s.s.a.a.a.a.a.a.a.a.a.a.a.a.a.a.a.a.a.a.a.a.a.a.a.a.a.a.a.a.a.a.a.a.a.a.a.a.a.a.a.a.a.a.a.a.",
"K.C.n.j.j.g.g.g.j.g.g.g.g.g.g.g.g.a.s.a.a.a.a.a.a.a.a.a.s.a.a.a.a.a.a.a.a.a.a.a.s.a.a.a.a.a.a.a.a.a.a.a.s.a.a.a.a.a.a.a.a.a.a.a.",
"K.C.M.j.j.g.g.g.g.g.g.g.g.g.g.g.j.a.a.a.a.a.a.a.a.a.a.a.a.a.a.a.a.a.a.a.a.a.a.a.a.a.a.a.a.a.a.a.a.a.a.a.a.a.a.a.a.a.a.a.a.a.a.a.",
"K.C.M.j.j.g.g.g.b.b.b.g.g.g.b.b.j.a.a.a.a.a.a.a.a.a.a.a.a.a.a.a.a.a.a.a.a.a.a.a.a.a.a.a.a.a.a.a.a.a.a.a.a.a.a.a.a.a.a.a.a.a.a.a.",
"K.C.M.j.j.g.g.g.b.b.g.g.g.g.g.b.j.a.a.a.a.a.a.a.a.a.a.a.a.a.a.a.a.a.a.a.a.a.a.a.a.a.a.a.a.a.a.a.a.a.a.a.a.a.a.a.a.a.a.a.a.a.a.a.",
"K.C.M.j.j.g.g.g.b.b.g.g.g.g.b.b.j.a.a.a.a.a.a.a.a.a.a.a.a.a.a.a.a.a.a.a.a.a.a.a.a.a.a.a.a.a.a.a.a.a.a.a.a.a.a.a.a.a.a.a.a.a.a.a.",
"K.C.M.j.j.g.g.g.g.g.g.g.g.g.b.b.j.a.a.a.a.a.a.a.a.a.a.a.a.a.a.a.a.a.a.a.a.a.a.a.a.a.a.a.a.a.a.a.a.a.a.a.a.a.a.a.a.a.a.a.a.a.a.a.",
"K.C.M.j.j.g.g.g.g.g.g.g.g.g.b.g.g.a.a.a.a.a.a.a.a.a.a.a.a.a.a.a.a.a.a.a.a.a.a.a.a.a.a.a.a.a.a.a.a.a.a.a.a.a.a.a.a.a.a.a.a.a.a.a.",
"K.C.M.j.j.g.g.g.g.g.g.g.g.g.b.g.g.a.a.a.a.a.a.a.a.a.a.a.a.a.a.a.a.a.a.a.a.a.a.a.a.a.a.a.a.a.a.a.a.a.a.a.a.a.a.a.a.a.a.a.a.a.a.a.",
"K.C.M.j.j.g.g.g.b.b.g.g.g.g.g.g.g.a.a.a.a.a.a.a.a.a.a.a.a.a.a.a.a.a.a.a.a.a.a.a.a.a.a.a.a.a.a.a.a.a.a.a.a.a.a.a.a.a.a.a.a.a.a.a.",
"K.C.M.j.j.g.g.g.b.b.b.g.g.g.g.i.3.} A c k 9 7 1 1 2 H H J J H H J J H 2 1 : # % c S } 1.q.i.a.a.a.a.a.a.a.a.a.a.a.a.a.a.a.a.a.a.",
"K.C.M.j.j.g.g.g.b.b.g.g.g.g.g.r.2.{ Z c l 9 q 1 2 H J K K K K K K K K H 1 > - 8 z S { <.3.e.i.a.a.a.a.a.a.a.a.a.a.a.a.a.a.a.a.a.",
"K.C.M.j.j.g.g.g.g.b.g.g.g.g.r.5.<.G m z 0 q 3 4 J K R W W W W W W W W R L 1 6 9 z B U } <.3.e.p.a.a.a.a.a.a.a.a.a.a.a.a.a.a.a.a.",
"K.C.M.j.j.g.g.g.g.g.g.g.i.r.5.<.Y S v z w t I E Q ! ( ( ( ( ( ( ( ( ( ! W P 3 q w M B U } <.3.e.p.a.a.a.a.a.a.a.a.a.a.a.a.a.a.a.",
"K.C.M.j.j.g.g.g.g.g.g.g.r.2.:.Y S n 0 w t E ^ ( _ ' ] ] ] ] ] ] ] ] ] ' ) ^ E L e w z N G } <.q.e.p.a.a.a.a.a.a.a.a.a.a.a.a.a.a.",
"K.C.M.j.j.g.g.g.g.g.g.r.5.:.F Z z 0 q 3 I ^ _ ' [  ...X.X.X.X.X.X.X.X. .[ _ / ~ L q 9 l m G } <.q.e.p.a.a.a.a.a.a.a.a.a.a.a.a.a.",
"K.C.M.j.j.g.g.g.g.g.r.5.<.Y Z v 0 q 3 P Q _ ]  .X.o.O.O.+.+.O.O.+.+.O.o...[ _ / E 3 7 9 z B U } <.3.e.p.a.a.a.a.a.a.a.a.a.a.a.a.",
"K.C.M.j.j.g.g.g.i.r.5.<.Y A z 0 q r I Q ( '  .X.o.O.+.+.+.+.+.+.@.@.+.O.o...[ _ ! I 3 q 0 M B G } <.3.e.p.a.a.a.a.a.a.a.a.a.a.a.",
"K.C.M.j.j.g.g.g.r.2.:.Y A z 0 q r E ^ _ ' | X.o.O.+.+.+.+.+.+.+.@.@.+.+.O.o...[ _ ! E L e 0 z m S } <.q.e.p.a.a.a.a.a.a.a.a.a.a.",
"K.C.M.j.j.g.g.r.5.:.F Z z 0 q 3 I ^ _ ]  .X.o.O.+.+.+.+.+.+.+.+.+.+.+.+.+.O.o...[ _ / ~ L q 9 l m G } <.q.e.p.a.a.a.a.a.a.a.a.a.",
"K.C.n.j.g.i.r.5.<.G Z v 0 q r P Q _ ]  .X.o.O.+.@.@.@.@.@.@.@.@.@.@.@.@.@.+.+.o...[ _ ` E 4 7 9 z B U } <.6.e.i.a.a.a.a.a.a.a.a.",
"K.C.n.g.u.q.2.<.Y S z 0 y t E ^ ) ' | ..o.O.+.@.@.#.#.#.#.#.#.#.#.#.#.#.@.@.+.O.X...[ ' / E 4 q w M B U } <.3.w.e.a.a.a.a.a.a.a.",
"K.C.n.i.6.1.} Y S z 0 q t E ` _ ] | ..o.O.+.+.@.#.#.#.#.#.#.$.$.#.#.#.#.#.+.+.O.o.o.X.| ' ` ~ P r y z N G } <.2.6.a.a.a.a.a.a.a.",
"K.C.n.u.5.:.F Z z 0 q 4 E ` ' [ ..X.o.o.O.+.@.#.#.#.$.$.%.$.$.$.%.%.$.#.#.+.O.O.O.O.O.o. .' ( ~ P q 9 l m U } <.1.a.a.a.a.a.a.a.",
"K.C.n.u.1.Y C x k 9 1 P Q _ [ X.o.o.O.O.+.+.@.#.#.$.%.%.%.%.%.%.%.%.%.$.#.@.+.O.+.@.@.+.o. .] ( E 1 5 ; l A Y } <.a.a.a.a.a.a.a.",
"K.C.n.w.>.A j s % 6 4 R ( ] ..O.O.O.O.+.+.@.#.#.#.$.%.%.%.%.%.%.%.%.%.$.#.@.+.+.@.#.#.#.+.o...' Q 4 = # k v G Y } a.a.a.a.a.a.a.",
"K.C.n.6.:.C f O # , P Q _ [ X.O.+.+.+.+.+.@.#.#.$.$.%.%.%.%.%.%.%.%.%.%.#.#.@.@.#.#.$.$.#.#.O. .( 2 * . $ c A G Y a.a.a.a.a.a.a.",
"K.C.n.6.{ V p o @ 1 E ( '  .o.+.@.+.+.+.@.#.#.#.$.%.%.%.%.%.%.%.%.%.%.%.#.#.#.#.#.#.%.%.%.%.#.X._ H *   $ k Z S Y a.a.a.a.a.a.a.",
"K.C.n.6.{ x i X + 1 R ( ] ..O.+.@.@.+.@.@.#.#.$.$.%.%.%.%.%.%.%.%.%.%.%.$.#.#.#.#.%.%.&.*.*.%.O.' J &   + h v A F a.a.a.a.a.a.a.",
"K.C.n.6.Y x i X . 1 W ( ] ..o.+.@.@.@.@.#.#.#.$.%.%.%.%.%.%.%.%.%.%.%.%.$.$.#.$.%.%.&.&.*.*.&.+.' J &   + d v A F a.a.a.a.a.a.a.",
"K.C.n.6.Y x i X . 1 W ( ]  .o.+.+.@.@.@.#.#.$.%.%.%.%.%.%.%.%.%.%.%.%.%.%.$.$.%.%.&.&.*.*.*.&.+.' J &   + h v A F a.a.a.a.a.a.a.",
"K.C.n.6.{ x i X . 1 R ( ]  .X.O.+.+.@.#.#.#.$.%.%.%.%.%.%.%.%.%.%.%.%.%.%.%.%.%.&.&.*.*.*.*.&.+.' J &   + h v A F a.a.a.a.a.a.a.",
"K.C.n.6.{ x i X + 1 R ( ]  .X.O.+.+.@.#.#.$.%.%.%.%.%.%.%.%.%.%.%.%.%.%.%.%.%.%.&.&.*.*.*.*.&.+.' J &   + h v A F a.a.a.a.a.a.a.",
"K.C.n.6.{ x i X + 1 R ( ]  .X.O.+.+.@.#.#.$.%.%.%.%.%.%.%.%.%.%.%.%.%.%.%.%.%.%.&.*.*.*.*.*.&.+.' J &   + h v A F a.g.a.a.a.a.a.",
"K.C.n.6.{ x i X + 1 R ( ]  .X.O.+.+.@.#.#.$.%.%.%.%.%.%.%.%.%.%.%.%.%.%.%.%.%.%.&.*.*.*.*.*.&.+.' J &   + h v A F a.a.a.a.a.a.a.",
"K.C.n.6.{ x i X + 1 R ( ]  .X.O.+.+.@.#.#.$.%.%.%.%.%.%.%.%.%.%.%.%.%.%.%.%.%.%.&.*.*.*.*.*.&.+.' J &   + h v A F a.a.a.a.a.a.a.",
"K.C.n.6.{ x i X . 1 R ( ]  .X.O.+.+.@.#.#.#.$.%.%.%.%.%.%.%.%.%.%.%.%.%.%.%.%.%.&.*.*.*.*.*.&.+.' J &   + h v A F a.a.a.a.a.a.a.",
"K.C.n.6.Y x u X . 1 W ( ]  .o.+.@.@.@.@.#.#.$.$.%.%.%.%.%.%.%.%.%.%.%.%.%.%.%.&.&.*.*.*.=.=.&.+.' J &   + d v A F a.a.a.a.a.a.a.",
"K.C.n.6.Y x u X . 1 W ) ] ..O.+.@.@.+.@.@.#.#.$.$.%.%.%.%.%.%.%.%.%.%.%.%.%.&.&.&.*.*.*.*.=.*.+.' J &   + d v Z F a.a.a.a.a.a.a.",
"K.C.n.6.{ x i X + 1 R ( ] ..O.@.@.@.+.+.@.#.#.#.$.$.%.%.%.%.%.%.%.%.%.%.%.&.&.&.&.*.&.*.*.*.%.O._ J &   + k v A F a.a.a.a.a.a.a.",
"K.C.n.w.;.V a o @ 1 K / '  .o.+.@.+.+.+.+.@.#.#.$.$.%.%.%.%.%.%.%.%.%.%.%.&.&.*.*.*.&.&.&.%.#.X._ H * . $ k Z S Y a.a.a.a.a.a.a.",
"K.C.n.w.>.A g s % 6 4 W ( ] X.O.+.+.O.+.+.@.#.#.#.$.%.%.%.%.%.%.%.%.%.%.&.&.*.*.*.*.*.&.$.@.X.] ! 2 = @ % v S Y { a.a.a.a.a.a.a.",
"K.C.n.u.1.Y V x 8 9 1 P Q _  .X.o.O.O.O.+.@.@.#.#.$.%.%.%.%.%.%.%.%.%.%.&.&.*.*.*.*.*.%.@.X.] ( E 1 - % k N Y } >.a.a.a.a.a.a.a.",
"K.C.M.u.5.:.F Z z 9 9 1 I ` '  .X.o.o.O.+.+.@.#.#.$.%.%.%.%.%.%.%.%.%.%.&.&.*.*.*.*.&.#.o.] ( W L q 9 k m G } <.2.a.a.a.a.a.a.a.",
"K.C.M.p.6.1.} G N z 9 7 4 ~ ) ' [  .X.o.O.+.@.#.#.$.%.%.%.%.%.%.%.%.%.%.&.*.*.*.&.%.#.O.| _ Q P 3 w z v S } <.2.5.a.a.a.a.a.a.a.",
"K.C.M.g.u.6.<.} U N z 0 e I ~ / _ ]  .X.O.+.#.#.%.%.%.&.&.&.&.&.&.&.&.&.*.*.*.&.%.@.o. ._ Q P r q y N S { <.2.q.e.a.a.a.a.a.a.a.",
"K.C.M.j.g.r.q.2.} Y N n w e 4 I ^ _ ] ..o.+.#.%.&.&.&.&.&.*.*.&.&.&.&.*.*.*.*.&.@.X.[ _ Q P e w w N D } <.2.q.e.i.a.a.a.a.a.a.a.",
"K.C.M.j.j.g.i.q.1.} Y A n 0 7 3 P ^ _ [ X.+.#.%.&.&.*.*.*.*.*.*.*.*.*.*.*.*.*.$.o.[ ( Q P e 7 z N D } <.3.w.i.a.a.a.a.a.a.a.a.a.",
"K.C.M.j.j.g.g.i.q.<.:.Y N z 9 7 4 E ` ' | o.@.$.&.&.*.*.*.*.*.*.*.*.*.*.&.&.$.+. ._ Q P r w z v S { <.3.e.i.a.a.a.a.a.a.a.a.a.a.",
"K.C.M.j.j.g.g.g.i.q.<.} G N z 0 q 4 E ! '  .O.#.%.&.*.*.*.*.*.*.*.*.*.*.%.@.o. ._ ^ P r w b N S Y } 2.e.i.a.a.a.a.a.a.a.a.a.a.a.",
"K.C.M.j.j.g.g.g.g.i.q.2.} G N z 0 q 4 I ! ' ..O.#.%.*.*.=.*.*.*.=.-.*.&.@.X.[ _ ^ P r w b N D { } 2.q.i.a.a.a.a.a.a.a.a.a.a.a.a.",
"K.C.M.j.j.g.g.g.g.g.i.q.1.} Y N z 0 7 3 E ( [ X.+.#.%.&.*.*.&.&.*.*.&.#.o.[ ( Q P r 7 z N D } <.2.q.i.a.a.a.a.a.a.a.a.a.a.a.a.a.",
"K.C.M.j.j.g.g.g.g.g.g.i.q.<.:.U N z 9 7 L ~ _ [  .X.O.+.@.@.@.@.@.@.+.o.[ _ Q P 3 q z v S { <.3.e.i.a.a.a.a.a.a.a.a.a.a.a.a.a.a.",
"K.C.M.j.j.g.g.g.g.g.g.g.i.q.<.} G N z 0 e I ~ / _ ' ] ] [ ] ] ] [ [ ] ' ( W P r q w N S Y <.2.e.i.a.a.a.a.a.a.a.a.a.a.a.a.a.a.a.",
"K.C.M.j.j.g.g.g.g.g.g.g.g.i.q.1.} G N n y e 4 P K R W W Q Q Q Q Q Q W R J 4 q w y N D { <.2.q.i.a.a.a.a.a.a.a.a.a.a.a.a.a.a.a.a.",
"K.C.M.j.j.g.g.g.g.g.g.g.g.g.i.q.1.} U B M 0 7 , 1 < < < < < < < < < < < > 6 9 z N D } <.2.q.i.a.a.a.a.a.a.a.s.a.a.a.a.a.a.a.a.a.",
"K.C.M.j.j.g.g.g.g.g.g.g.g.g.g.i.q.<.} G B z 9 5 = = = * * * * * * * * = - 8 k v S { <.3.e.i.a.a.a.a.a.a.a.a.s.a.a.a.a.a.a.a.a.a.",
"K.C.M.j.j.g.g.g.b.b.g.g.g.g.g.a.i.q.<.} U N z 8 % # # @ @ @ @ @ @ @ @ # 8 k v S { } 2.e.i.a.a.a.a.a.a.a.g.g.g.a.a.a.a.a.a.a.a.a.",
"J.C.M.j.j.g.g.g.b.j.b.g.g.g.g.g.a.i.q.1.} U N c k h % % % % % % $ $ % k k m D { } 2.w.i.a.a.a.a.a.a.a.a.a.g.g.a.a.a.a.a.a.g.a.a.",
"J.C.M.j.j.g.g.g.j.j.j.g.g.g.g.g.g.a.i.q.1.} G A v c x x x x x x x h x c Z G } <.3.w.i.a.a.a.a.a.a.a.a.g.g.g.g.g.g.g.g.g.g.g.b.a.",
"J.x.n.b.s.b.b.n.n.j.j.j.j.b.b.b.b.n.g.i.q.<.} Y S Z Z Z C C C C C C Z A G } <.3.e.i.a.j.j.j.n.n.n.n.n.n.j.j.j.j.j.j.j.j.j.j.n.n.",
"H.x.b.b.s.b.n.M.V.V.c.j.j.b.b.b.b.n.n.b.t.3.<.,.} T { { { { { { { { { :.<.2.q.u.p.g.j.n.n.n.n.n.n.M.n.n.n.j.j.j.j.j.j.j.j.j.j.n.",
"L.G.F.D.B.B.B.C.F.v.v.v.v.C.N.N.C.v.v.x.x.z.k.y.0.0.9.9.7.7.8.8.8.8.8.9.0.d.l.x.x.C.F.F.F.F.F.F.F.F.S.S.S.S.S.S.S.S.S.S.S.v.v.v."
};
