/* XPM */
static char *result[] = {
/* columns rows colors chars-per-pixel */
"16 16 36 1 ",
"  c #191700",
". c #121309",
"X c #322D01",
"o c #3B3707",
"O c #34340F",
"+ c #242611",
"@ c #323518",
"# c #453F01",
"$ c #7A7F37",
"% c #A79804",
"& c #B7A602",
"* c #BEAC02",
"= c #83893E",
"- c #CEBA03",
"; c #CFBC03",
": c #D1BD03",
"> c #D4C003",
", c #E1CB03",
"< c #E2CD03",
"1 c #E6D003",
"2 c #E6D103",
"3 c #E8D203",
"4 c #E9D303",
"5 c #EBD403",
"6 c #ECD603",
"7 c #EDD703",
"8 c #EED803",
"9 c #F3DD03",
"0 c #F5DE03",
"q c #F6DF03",
"w c #878D40",
"e c #959C46",
"r c #99A048",
"t c #A3AB4D",
"y c #A7AF4F",
"u c #A7AF50",
/* pixels */
"uyyyyyyyyyyyyyyy",
"uyyyyy@...wyyyyy",
"uyyyy@%;;;owyyyy",
"uyyyy+&9q6X=yyyy",
"uyyy@%875>;owyyy",
"uyyy+&064:<X=yyy",
"uyyy+&064:<X=yyy",
"uyyy+&064:<X=yyy",
"uyyy+&064:<X=yyy",
"uyyy+&064:<X=yyy",
"uyyy+&064:<X=yyy",
"uyyyrO*>-,#$tyyy",
"uyyyy+&213X=yyyy",
"uyyyyrO   $tyyyy",
"uyyyyyreeetyyyyy",
"uyyyyyyyyyyyyyyy"
};
