/* XPM */
static char *result[] = {
/* columns rows colors chars-per-pixel */
"64 64 239 2 ",
"   c #1E1A07",
".  c #231C0B",
"X  c #261C08",
"o  c #291D13",
"O  c #2B2306",
"+  c #2C240C",
"@  c #28240A",
"#  c #322908",
"$  c #2B2112",
"%  c #3B3315",
"&  c #3C331A",
"*  c #3E3A1D",
"=  c #3B3814",
"-  c #332912",
";  c #433B18",
":  c #453D0E",
">  c #473C2A",
",  c #4B3E34",
"<  c #534B0D",
"1  c #4A451A",
"2  c #534B13",
"3  c #544B19",
"4  c #5C541C",
"5  c #585318",
"6  c #514A0D",
"7  c #635A1B",
"8  c #6B6518",
"9  c #716919",
"0  c #544C23",
"q  c #574D27",
"w  c #5B5324",
"e  c #5C542B",
"r  c #575424",
"t  c #544539",
"y  c #4D4823",
"u  c #635B26",
"i  c #645934",
"p  c #6B662B",
"a  c #726B2A",
"s  c #787527",
"d  c #6B6433",
"f  c #6D6A35",
"g  c #6C6739",
"h  c #716B33",
"j  c #746C3B",
"k  c #766A3A",
"l  c #797437",
"z  c #72664C",
"x  c #7C7347",
"c  c #736850",
"v  c #665641",
"b  c #857E18",
"n  c #857C26",
"m  c #847C38",
"M  c #867D46",
"N  c #807151",
"B  c #877666",
"V  c #8A841C",
"C  c #8A8519",
"Z  c #958D1D",
"A  c #AEA71E",
"S  c #8B8323",
"D  c #898428",
"F  c #938A2A",
"G  c #9A9325",
"H  c #8A8539",
"J  c #928938",
"K  c #99953B",
"L  c #A69D31",
"P  c #9EA93A",
"I  c #AAA427",
"U  c #BCB728",
"Y  c #A3AC3C",
"T  c #A5AC37",
"R  c #A5B23D",
"E  c #AAB23F",
"W  c #BCB536",
"Q  c #B3AA31",
"!  c #CCBD03",
"~  c #C6B604",
"^  c #C5BD18",
"/  c #C4BA2A",
"(  c #C2BA37",
")  c #CEC105",
"_  c #D3C403",
"`  c #D9C603",
"'  c #DCCB03",
"]  c #D1C50B",
"[  c #D5CA0C",
"{  c #DBCD0B",
"}  c #D6C905",
"|  c #DCD20C",
" . c #DFD90C",
".. c #CDC51C",
"X. c #D5CB14",
"o. c #D9CE12",
"O. c #D5CC1B",
"+. c #D4CA17",
"@. c #DCD314",
"#. c #DBD21C",
"$. c #DDD819",
"%. c #E3CD03",
"&. c #E5CC0A",
"*. c #E8CD09",
"=. c #E5D202",
"-. c #EBD303",
";. c #ECDB04",
":. c #ECD30C",
">. c #E3DB0C",
",. c #EBDC0A",
"<. c #E4D408",
"1. c #F2D606",
"2. c #ECCD13",
"3. c #EECC1A",
"4. c #F1CD1C",
"5. c #F0CE14",
"6. c #EED113",
"7. c #E3DC14",
"8. c #E3DC1C",
"9. c #E2D717",
"0. c #F2D316",
"q. c #F0CF0A",
"w. c #ECE20C",
"e. c #EBE109",
"r. c #F1E309",
"t. c #ECE313",
"y. c #EAE31B",
"u. c #E6E118",
"i. c #F2E715",
"p. c #CBC427",
"a. c #D3CC22",
"s. c #D6CC2A",
"d. c #DBD324",
"f. c #DCD52B",
"g. c #DBD726",
"h. c #CBC337",
"j. c #D3CC35",
"k. c #DCD433",
"l. c #DAD338",
"z. c #E3DC22",
"x. c #E4DA29",
"c. c #E3DA3A",
"v. c #E2D935",
"b. c #E6E127",
"n. c #E8E134",
"m. c #8A8547",
"M. c #948C47",
"N. c #9C9B43",
"B. c #94934D",
"V. c #9C9B4C",
"C. c #999447",
"Z. c #9B9753",
"A. c #918955",
"S. c #A29B4A",
"D. c #A49B57",
"F. c #9DA348",
"G. c #9EAA55",
"H. c #9DA453",
"J. c #A4AD43",
"K. c #A2A54C",
"L. c #A5AB4D",
"P. c #AAAD4D",
"I. c #A8A946",
"U. c #B3AC49",
"Y. c #A6B243",
"T. c #ABB344",
"R. c #ACB34B",
"E. c #ABB745",
"W. c #B2B44D",
"Q. c #B5B948",
"!. c #A4A553",
"~. c #A4AC54",
"^. c #ABAC54",
"/. c #ABA45A",
"(. c #A6AB5C",
"). c #ACAC5B",
"_. c #A8A557",
"`. c #B1AE54",
"'. c #B1AC5C",
"]. c #B1A658",
"[. c #A6B153",
"{. c #ABB254",
"}. c #ABB25B",
"|. c #AAB557",
" X c #B3B453",
".X c #B3B35C",
"XX c #B5BA59",
"oX c #988C69",
"OX c #9D9364",
"+X c #948768",
"@X c #AC9D79",
"#X c #A59B64",
"$X c #ACAD62",
"%X c #A9A762",
"&X c #B2AD63",
"*X c #B3AD6B",
"=X c #B5AA6A",
"-X c #ADB061",
";X c #B3B363",
":X c #B9B364",
">X c #BCBB65",
",X c #BAB46B",
"<X c #BCBC6C",
"1X c #B5B569",
"2X c #ADA378",
"3X c #B6AA79",
"4X c #BBB775",
"5X c #C3BA48",
"6X c #C5BB54",
"7X c #C2BB6C",
"8X c #C5BD76",
"9X c #BAC15D",
"0X c #BDC365",
"qX c #BDC275",
"wX c #BCC27A",
"eX c #D7CC46",
"rX c #DBD445",
"tX c #DCD355",
"yX c #CEC649",
"uX c #E4DA49",
"iX c #E3D858",
"pX c #C5C569",
"aX c #CAC475",
"sX c #C3C47B",
"dX c #CCCA7C",
"fX c #C8C677",
"gX c #CFD17B",
"hX c #E9E041",
"jX c #B6A784",
"kX c #B7A98B",
"lX c #B09F88",
"zX c #C7BA89",
"xX c #CABA99",
"cX c #CFBEA5",
"vX c #CAC784",
"bX c #D1CA88",
"nX c #CED186",
"mX c #D1C398",
"MX c #D9C8AD",
/* pixels */
"0X0X9X9X9X XQ.W.E.E.Y.T.T.T.T.I.F.P F.K.K.|.}.-X$X$X$X$X$X%X%X(.(.%X(.(.(.(.(.-X[.}.[.[.L.Y.Y J.R E.R 9X( E.E.E.E.R P R P P P J.",
"pX9XpX9X9XXXXXE.R.E.T.Y.T.T.T.J.J.F.F.F.~.(.}.-X}.$X$X$X$X$X(.$X(.(.G.-X(.(.-XG.[.}.[.~.L.J.J.J.Y.R R R E.E E.E.R R P R J.J.P J.",
"pX0X0X9X9XXX XW.R.T.T.Y.E.R.R.I.J.J.F.K.L.^.}.}.$X$X$X(.$X$X(.(.(.G.-XG.-XG.G.-X[.}.[.[.L.J.Y.J.E.R R E.E 9XE E.R R R R Y.Y.Y.Y.",
"pXpXpX0XXX XR.R.R.T.R.R.W.R.R.R.L.L.L.~.~.^.(.).(.-X-X-X$X$X$X$X2X-X-X-X|.-X-X|.}.^.|.{.[.Y.L.Y.R E.R R R R R Y R R R R [.Y.Y.[.",
"gXgXqX0X9XR.L.P.P.R.R.R.R.R. XR.^.^.[.^.~._.^.(.}.-X$X-X-X$X$X$X-X-X-X-X-X-X-X|.}.}.|.[.P.[.[.Y.R R R Y P Y P Y R Y.Y.[.Y.|.E.|.",
"gXgXfX0XXX[.P.L.P.R.W.W. X X XXX X}.{.^.^.~.~.(.G.(.$XG.(.(.(.G.(.-XG.G.G.(.-XG.^.(.^.^.{.{.R.L.E.E.Y.Y P P P P J.Y.[.Y.|.9X9X9X",
"gXgXqX0X;X|.~.L.P.{. X{.{. X|.XXXX.X.X.X)._.~.Z.Z.B.B.B.B.B.A.B.A.G.B.B.B.G.G.G.!.~.^.|.{.{.R.R.E.E.Y.F.P P K P F.Y.[.9X|.9X|.9X",
"gXpXgX0X;X}.^.~.^.^.^..X{.). X}..X.X.X;X;X}._.B.m.j g g d d g g g g g g g f f x V._..X.X{.^.^.{.|. X{.Y.F.P P F.[.[.|.|.|.|.|.[.",
"dXdXsX<X1X;X$X).).}.).'.^.^.).'.'.;X;X:X:X;X_.m.g y ; * & * > ; * * * * * y r f B.G.-X.X|.[.R.}.}.XXXX{.P.K.K.L.[.|.}.}.~.~.!.!.",
"vXsXsXsX4X*X$X%X&X'.&X).)./.^./././.'.&X&X'.Z.M e & . . . . . X   . . $ @ + = u l H.(.^.L.G.K.^.XX>X>XXX^.~.~.^.}.}.-X).~.H.H.F.",
"zXsXjXqX,X*X*X=X&X&X&X$X)./._.D.Z.Z.A.Z.D.Z.m.j q & + . @ + + + $ $ @ @ # # ; r l m.V.B.m.m.B.G.).;X>X;X.X(._.(.).;X}.(.H.H.V.H.",
"vXvXvX4X1X*X%X=X*X*X1X&X&X/.D.M.M k k g j z j i e 0 3 y 0 0 q w r y r r 0 3 4 u p h j h d p f l V.(..X.X.X).).).$X-X$X).(.H.H.H.",
"vXvXvX4X*X*X%X=X=X=X,X,X&X].D.M i q > ; ; > y w d m m H M.M.M.M.B.m.J J H H n h e 0 1 * = * 1 d H V.^. X).).).).).$X$X$X%X(.(.(.",
"bXbXvX4X*X%X%X%X=X3X8X=X&X/.M.h q - X X   o ; u l K U.5X6X6X6X6X9X9X9X9XQ.T.S.n 4 1 # @   @ = 5 f m.S._.].).'.$X$X$X$X-X$X$X$X$X",
"bXbXvX4X*X%X/.=X=X8X7X=XD.Z.M d 3 ; # X X O : 7 F U.yXtXiXiXiXiXiXiXtXtXtXyXU.K 9 6 # O @ # = 1 p l J C.!./.'.;X;X).-X$X$X-X-X-X",
"bXbXvX8X,X=X$X=X=X,X=XD.M k p u w 4 4 5 2 2 7 n L ( yXuXuXuXiXuXuXuXuXuXuXl.( I S 8 < < < 5 < 5 5 u h m Z.).:X:X;X).).).).).}.}.",
"vXdXaX8X,X:X&X,X7X=X].M m q 3 q n n n n L b I A U / j.k.k.k.v.c.c.c.c.v.l.k.p.U A Z C C V D n 9 5 2 3 f M.&X:X7X.X'.^.^.^.^.~.^.",
"dXfXaXaX7X,X:X:X7X].M N q - ; q n U.5XeXeX/ / / p.......O.a.s.d.d.d.d.d.d.a.a.....^ U U U U L s 5 : ; e M D.:X>X.X`.`.^.^.^.L.~.",
"fXaXaX8X7X,X:X].D.M N n q % : 9 L 6XeXuXc.v.4.4.O.X.X.] +.+.+.o.+.#.O.O.O.+.O.O.O.g.g.g.k.j.U G 8 1 ; w l Z./.).'.].^.^.P.P.L.P.",
"aXaXaXpX7X,X].D.N n N i q 4 a n L 4.4.uXn.x.x.3.X.] ] ] ] ] ] ] [ [ X.X.] [ X.o.$.$.b.b.b.g.p.I b 8 7 u g l M M.S.P.L.P.P.K.P.K.",
"aX8X8X8X7X:XD.M n t 3 w n n J Q / p.g.g.8.8.9.@.| } _ ) _ ` ! %.! { ! ] ) ) ] [ $.u.u.u.$.g.p.U I J n h u u e h H S.P.P._.I.P.K.",
"aX8X8X8X7X'.D.m q % - q m S.5X( p.p...X.&.<.| { ' ' } _ _ ! ! ! ! ! ! ! ! ! ) [  .7.7.8.$.O...p.( ( L m 0 ; & 0 l C.].`.P._.K._.",
"dX8X8X8X7X].C.k > o - 3 m 5XeXc.s.a.] [ } ' ' ' ' ' ` ` _ ! ! ! _ _ ` ! ! ) _ } | >.7. .o.X.O.d.k.j.Q.n 3 X X ; h C.`.`.`._.].^.",
"zXbX8X8X8X7XZ.k & X X 3 n ( uXc.x.O.X.[ } } ' ' ' ' ' ` ` ` ` ! ` ` ` ` } } ' } } { | { | { O.g.v.c.( S 2 X X ; h C.]..X.X&X$X$X",
"bXzXbX8X8X8XD.N - O O 2 F ( c.n.x.9.o.o.` _ _ ' ' =.%.' ! %.! ` ` %.%.%.=.%.%.' ` } } [ [ | @.z.b.l.U Z 6 @   * h C.'.:X:X*X*X*X",
"mXzXzXbX8X=XD.N : o # < n / 4.n.x.4.9.o.{ ] _ ` %.=.=.=.%.%.%.%.%.%.=.-.;.;.=.=._ _ ! ) [ | 9.8.b.g.p.C < @ @ 1 g C.'.:X,X,X3X4X",
"xXxXzXzX3X].M v 3 - : 9 G ^ f.x.z.9.9.&.' ` ` ` %.-.=.=.%.%.%.-.-.-.-.1.1.;.;.=.` ! ) ] [ | 7.8.b.g.^ G 8 6 = y p m.D.#X*X3XjX4X",
"xXxXzX3X#XM N n u 7 9 b A / d.9.9.9.o.{ { ' ' %.%.%.%.-.-.-.q.1.-.-.1.1.1.;.-.=.' _ _ }  .7.7.u.u.8...A C 8 5 7 u h l A.OX2X4XkX",
"mXxXjXB B n q 7 n n n / / 3.#.9.o.] { ` &.&.<.=.%.%.*.*.q.q.1.1.1.1.-.1.;.1.-.=.%.' ' ' >.w.w.u.u.8.g.^ I G D 9 r y r z A.2X2XjX",
"xXxXlXB v > : 7 n L / h./ 3.#.o.] ! ! { &.:.1.:.%.%.` *.q.1.1.1.1.1.-.-.1.-.;.=.=.=.;.;.w.t.t.u.u.$.$.a.a.U I s 5 % & t c oX2XjX",
"cXxXlXB t - - 2 n W 4.eXx.8.9.[ ! ! ! ! { :.,.:.*.` *.*.q.1.1.1.1.q.-.-.-.-.-.-.-.-.=.e.w.w.w.u.7.7.$.g.g.l.U V 6 @ o > c oX2XjX",
"cXxXlXB , o O 2 b / eX4.x.4.9.[ ! ~ ~ ! ' :.:.:.*.*.*.*.q.q.0.1.q.q.q.q.q.q.q.-.;.=.;.>.e.w.e.u. .7.$.u.b.k.W V 6 @ . > c oX2XjX",
"MXcXkXB t o O < n ( c.b.b.8.9.{ ~ ~ ~ ! ` :.>.:.6.*.2.2.5.5.5.2.q.q.5.5.5.0.0.1.:.-.=.-.=.,.>.e. . . .u.b.l.E.C 5 @ @ > c oXlXkX",
"MXMXkXB t o O 2 V W v.v.b.z.8.o.~ ~ ~ ! ` *.:.:.6.2.6.2.5.3.3.3.5.5.5.3.5.5.0.0.:.*.=.=.=. .=. . . .$.8.g.g.U C 6 @ @ , c oXjXkX",
"MXMXkXB t o o 2 n / v.c.b.y.9.o.! ~ ~ ! { &.:.6.0.6.3.4.3.4.3.3.3.3.3.4.0.4.0.0.:.=.-.=.=.<.>. . . .7.8.g.g.U C 6 # @ > c oXjXkX",
"MXcXlXB t o O 2 n ( c.n.n.z.9.{ ] ! ! ! ` &.:.6.6.3.3.3.3.3.3.3.3.3.3.3.4.0.0.1.:.:.:.;.=.e.e.>.u. .$.b.b.l.U C 6 @ @ > c oX2XkX",
"MXcXlXB , o o 3 F ( uXv.x.z.o.o.[ ! ` { ' &.:.6.6.6.3.3.3.3.3.3.4.4.4.4.4.2.2.6.:.:.=.,.y.i.i.i.u.u.$.b.b.g.U C y   . * c oX2XwX",
"cXcXlXB , o + : n ( l.v.x.#.@.o.o.` ` &.&.<.<.*.6.6.6.3.3.3.3.3.4.4.4.4.5.2.2.*.:.:.w.t.i.i.i.i.u.u.$.g.g.j.R C 6 @ $ , c OX2X2X",
"mXmX@XB i ; % 3 n Q ( h.p.O.O.2.| { &.{ ' <.&.&.9.2.2.2.3.3.3.4.4.4.4.2.2.&.&.&.:.,.,.i.i.i.i.b.u.$.g.g.j.U P b r = * y c OX(.wX",
"mXzX8XB x i q u a m G I / / ..O.o.{ | %.&.' ' &.&.&.&.&.*.2.6.2.0.4.2.2.&.&.&.%.:.;.w.i.i.i.i.y.u.g.a.U P G C s 5 r r g B.OX%X%X",
"bXaX8X3XB M m p u 7 n b G ^ / 3.@.&.{ ' ' ` ` ' %.&.&.%.*.:.:.:.6.q.:.*.&.%.%.<.=.,.;.e.t.t.7.8.g.g.p.A C 8 5 8 p s m m.H._.$X$X",
"bXaX8X8X6X].M m 3 : : 4 b Q / 3.#.@.o.{ { _ _ ` ` %.=.<.%.:.-.:.-.:.:.:.%.%.%.=.-.;.;.>.>. .$.$.g.a.U G 8 6 = 5 s B.F.L.~.^.`.).",
"aXdXaXaX7X].S.m > # # 2 n Q h.eXd.#.@.{ [ _ _ ` ' <.=.-.-.-.-.-.-.-.=.-.=.=.=.=.;.;.e.>. .| $.#.g.p.U C 5 @ @ 1 f F.E.|. X X^.^.",
"aXaXaXiX7X6XS.d ; X X 3 n W eX4.k.d.@.o.[ } } ' ' =.=.-.;.;.;.;.1.;.;.;.;.=.,.e.e.e.>.>. .o.X.g.l.l.E.D 6 @ @ 1 s F.9XE. XW.P.R.",
"aXaXaXpX6X6XM.k ; X X : m 5XiXuXc.s.#.O.[ [ }  .<.:.,.,.e.r.e.e.;.;.;.;.r.;.e.w.w.w.w.>.@.X...g.c.rX9XD r @   = p N.W.W.W.R.P.P.",
"gXpXpXpX7X6XC.p ; X o q m 6XtXiXuXv.f.O.o.[ }  .,.,.t.r.r.r.r.r.r.;.r.r.r.r.i.i.i.t.u.$.X.+.a.l.rXtX9XP r @ @ = a K T.Q.R.T.P.T.",
"pXpXpX6X6X`.S.k , : ; q M 5X6XeXeXl.f.d.#.O.9.<.>.,.w.e.r.r.r.e.r.r.e.r.i.i.i.i.y.u.8.$.O.a.p.j.h.9XJ.l r * = 1 l K I.R.R.T.T.I.",
"pXpXpX7X7X`.D.M.k e q t m M K U.5XeXuXv.x.x.$.9.7.7.,.e.e.r.e.e.e.e.r.e.r.i.t.t.u.b.8.x.g.k.h.W T K H f r y y f H F.P.R.R.I.P.Y.",
"7X7X>X>X>X>X'.D.Z.M k d i e d m U.6XuXuXc.v.x.3.9.9.>.>.e.e.e.e.e.e.e.e.>.u.7.$.8.g.g.f.c.rXh.T D p 4 r e f l H V.G.{.W.R.L.J.L.",
"XX>X>X>X7X<X<X,X=X%XA.x y ; ; u K 5XiXuXuXk.s.3.a.o.@.<. .>.e.>.e.e.u.u.7. .$.$.a.a.s.l.rXeX5XK p 1 = y p M B.G.~.[.{.{.P.L.L.L.",
"<X<X<X7X<X<X8X<X<X,XD.x q ; ; q m ].6X5X( ( / / ..O.@.@. .7.7.w. .u.u. .7.$.$.....U Q W Q.5XJ.H r = = y j B._.{.|.|.{.{.R.L.L.L.",
"sX<XpXqX<X<X<X<X8X,X$XA.k q ; q a m m J m n L A U a.g.$.8.8.7.u.u.7.u.u.b.b.g.U A C b S D H H h r y r p H V.^.{.{.^.{.^.[.[.[.{.",
"fXfXqXqXqX>X,X,X,X,X&XZ.M k i u w q 3 3 3 4 9 b I p.f.x.b.g.g.8.$.$.g.b.b.n.j.A s 5 6 6 1 5 r r u f l H B.H.~.~.~.L.[.[.|.|.}.|.",
"nXdXgXqX<X;X-X-X&X&X/._.D.M.m p 0 - - O O : : 9 G / j.k.f.g.a.#.a.a.g.g.v.v.h.P 8 6 O   @ @ = y f H B.F.F.F.!.!.F.G.G.[.^.}.}.}.",
"nXdXdXqX1X1X$X$X).$X).'.`.].B.l q ; + X X O : 7 S L W U U U U A U A A U ( ( E D 7 = @     @ = r l F.G.|.~.L.K.F.G.F.G.[.|.|.-X;X",
"nXnXvXwX<X-X$X(.).).'..X.X`.S.m.p q ; ; ; ; 3 7 a b S V S C C b b b C C Z F S s 7 1 1 = = * 0 p H Y.R.W.{.~.L.!.L.G.G.G.|.-X|.|.",
"nXnXgXqXqX-X-X-X^.).^. XXX X`.N.J l a a a h a u 4 3 < < < < < < 6 6 6 6 2 5 5 u p p a h p a s H P [.[.9X|.E.[.[.[.L.[.G.[.-X|.(.",
"nXnXnXwX<X-X}.[.^.^.{. X X X`.P.I.S.C.C.K C.m a 3 : # O # O : # @ @ @ @ @ # = 5 a H K N.K F.N.J.F.E.E.E.E.[.E.E.[.[.[.[.[.G.|.G.",
"nXsXvXwX<X1X}.|.{.P.P.R.W.W. XW.W.U.U.U.`.U.M.m q ; o o O - + + @ . . . . o & r m C.P.W.R.W.E.T.E.E.E.E.E.E.E.[.R.[.[.[.|.G.G.G.",
"sXnXwXqXqX1X;X}.R.P.I.T.U.Q.Q. X X X X X X`.S.M k t > > > , , , y > > > > y e g m._. X XXXQ.W.Q.E.E.E.Y.E.E.E.E.R.[.|.[.G.(.G.G.",
"wXsXwXwX<X<X;X}.W.I.I.I.T.T.Q.U.W.W. X XU.].D.D.N N N v z z z z z z z z z z x m.Z./.`. XQ.E.9XE R R R T R R R R |.|.|.G.|.G.G.G.",
"wXwXwXwXqX0X0X|.{.I.Y Y E I.E U.U.W.W.`.].].].D.#XOXOXoXoXoXoXoX+X+X+X+X+XoXOX#X/.).'. X XE R R R T T T R R R R |.|.|.|.G.G.G.G.",
"wXwXwXwXqXqX<XXXR.J.Y Y T E E T.P.W.`.P.].].].#X=X3X@X@X@X@X@X@X@X@X2X2X2X2X*X*X&X'.'.`.R.P.R R T P T T R P R E.E.9X|.|.G.G.G.G.",
"wXwXwXwXqXqX0X.XR.J.Y T T T E U.W.P.U.U.].].].=X3X3X3X8XjXjX@XjXjXjX3XjX4X3X3X*X*X.X).{.P.R.R R T T T P P P P E.[.|.9X|.G.G.G.G."
};
