/* XPM */
static char *result[] = {
/* columns rows colors chars-per-pixel */
"64 64 97 2 ",
"   c #070600",
".  c #0D0C01",
"X  c #120F00",
"o  c #151403",
"O  c #1C1A01",
"+  c #141509",
"@  c #17180B",
"#  c #19190B",
"$  c #201D01",
"%  c #1F200B",
"&  c #262303",
"*  c #282400",
"=  c #2C2903",
"-  c #23230D",
";  c #29290E",
":  c #3B3502",
">  c #242611",
",  c #2E2F12",
"<  c #2E3016",
"1  c #333310",
"2  c #33361A",
"3  c #35391D",
"4  c #393C1D",
"5  c #453E00",
"6  c #3E411F",
"7  c #474206",
"8  c #4D4500",
"9  c #504700",
"0  c #504800",
"q  c #675D01",
"w  c #685E01",
"e  c #756B04",
"r  c #7B6F00",
"t  c #7D7101",
"y  c #424521",
"u  c #474B22",
"i  c #4A4D23",
"p  c #4E5124",
"a  c #505324",
"s  c #525628",
"d  c #565A2A",
"f  c #595F2E",
"g  c #5C612D",
"h  c #60652F",
"j  c #636733",
"k  c #646933",
"l  c #6A6E34",
"z  c #6C7135",
"x  c #717637",
"c  c #747937",
"v  c #737738",
"b  c #757A39",
"n  c #797E3B",
"m  c #817400",
"M  c #867900",
"N  c #8C7E00",
"B  c #7D833C",
"V  c #8F8100",
"C  c #918301",
"Z  c #AE9D02",
"A  c #B09F02",
"S  c #B3A202",
"D  c #BCAA02",
"F  c #C0AE02",
"G  c #C5B202",
"H  c #CAB602",
"J  c #CCB903",
"K  c #D2BD03",
"L  c #D7C203",
"P  c #D9C403",
"I  c #DEC903",
"U  c #E4CE03",
"Y  c #E6D003",
"T  c #E9D303",
"R  c #F3DC03",
"E  c #F7E003",
"W  c #F8E103",
"Q  c #858C41",
"!  c #8F9545",
"~  c #909746",
"^  c #929947",
"/  c #959C48",
"(  c #989F4A",
")  c #9CA34C",
"_  c #A0A74E",
"`  c #A2AA4F",
"'  c #A7AF51",
"]  c #A9AD51",
"[  c #A7B051",
"{  c #ACB153",
"}  c #B3B35B",
"|  c #B6B661",
" . c #BEB96A",
".. c #C7BE75",
"X. c #CEC37F",
"o. c #D3C685",
"O. c #D5C788",
/* pixels */
"o.o.X.X.| } } { { { { { { { { { ] } _ _ ] ] [ ` ] [ ` ] [ [ [ [ [ [ [ [ [ [ [ [ [ ] [ [ [ ] [ [ ' ] { ` { ' ' ` { ' [ ' ' ' ' ' ",
"o.o.X...X.| } { } { { { { { ' { ] ] } _ ] ] [ ] [ [ ` [ [ [ [ [ [ [ [ [ [ [ [ [ [ [ [ ] ' [ ] [ [ ' [ [ [ [ ' { ' ' ' [ ' ' ' ' ",
"o.o.X...} } } } { { { { { ] ' ] ] ] ] ] ] ] ] ] [ [ ] [ [ [ [ [ [ [ [ { [ [ [ [ [ [ ` [ [ ` [ [ ' ' { ' { ` ` { ' ' ' ' ' ' ' ' ",
"o.X.X...X.} } { { { { { { { ] ] ] ] ] ] ] ] ` ] [ [ } [ { { [ { [ [ } [ { { { [ [ [ [ [ ' [ [ [ ' ' ' ' [ [ [ [ ' ' ' [ ' ' ' ' ",
"o.o.X...} } } { { { { ] ] { ] ] ] ] ] ] ] ] ] ] [ [ { [ [ } [ { [ [ { [ { { { [ { [ [ [ [ [ [ [ ' [ [ { ` [ ` [ ' ' ' ' ' ' ' ' ",
"o.o.X.X.X.} } } { { ] { { ] { ] ] ] ] ] ] ] ] ] ` ` ` ` ` ` _ _ [ ` [ ` [ ` ` [ ` [ [ [ [ [ [ [ [ ' ] [ [ [ { [ ' ' ' ' ' ' ' ' ",
"o.o.X...| } } { { } { { { ] ] { ] ] ] ] ] ] ` ( ^ ! Q Q Q Q Q Q Q Q Q Q Q Q ! ^ ) ` [ [ [ ` [ [ ' [ [ [ { [ { [ ' ' ' ' ' ' ' ' ",
"O.o.X.X...} } { { { { { { { ] ] ] ] ] ] [ ` ) ! n l f f f f f f f f f f g g l B ! ) [ { { [ [ [ [ ` [ [ ` [ ` [ ' ' ' ' ' ' ' ' ",
"X.X.X. . .| } { { } { { { { { ] ] ] ] ] ] ] ( B g u 2 2 2 3 3 3 6 6 2 < 2 4 u h B ) ' [ { [ [ [ ' ' ' ' [ ' ' ' [ ' ' ' ' ' ' ' ",
"X.X.X.X. .| } { { { { { { { ] ] ] ] ] } } ] ^ v p < % @ % - ; > % ; % % # % < p c / [ [ { [ [ [ ' ' ' { ' ' ' ' ' ' [ ' ' [ ' [ ",
"X.X.X.X. .| } } { { { { { ] { ] ] ] ] { { ] ! z y % + O = : 5 7 7 6 6 = O + % u z / [ { { [ [ [ ' { ' ' ' ' ' ' [ ' ' ' ' ' ' ' ",
"O.O.X.X. .| } { { { { { { { ] ] ] ] ] { { ] ! l 6 # o & 7 q e t t e w 6 * + # 6 l / [ { [ [ [ [ [ [ ' ' [ ' { ' ' ' [ ' ' ' ' ' ",
"O.O.X.X. .} } { { { { { ] { ] ] ] ] ] { { ] ~ k 4 # O : w C Z S S Z C w : O # 6 k ^ [ { { [ [ [ [ [ ' ' ' ' ' ' [ ' [ ' ' ' ' ' ",
"O.X.X.X...} } } { { { { { ] ] ] ] ] ] } { ] ~ k 3 # O 7 r A H L L H Z r 6 O # 3 k ^ [ { { [ [ [ [ [ ' [ ' [ [ ' ' ' ' ' ' ' ' ' ",
"X.X.X... .} } } { { { { { ] { ] { ] ] ] } ' ! j 3 @ O 8 M D I T T P D V 7 O # 3 k ! [ { { { [ [ ' ' ' ' ' ' ' ' ' ' ' ' ' ' ' ' ",
"X.X.X... .} } { } { { { ] ] ] { ] ] ] { ] ' ! j 2 @ O 8 N F U R R U D V 8 O # 2 k ^ ' [ { { [ [ [ ' [ ' ' [ ' ' [ ' ' ' ' ' ' ' ",
"O.X.X... .| } } { { { { ] { ] ] ] ] ] { } ] ! e 3 @ $ 8 N G T R R Y G V 8 % @ 2 k / { { { [ [ [ ' ' [ ' ' ' ' ' ' ' [ ' ' ' ' ' ",
"O.O.X.X. .| } { { { { { ] ] ] ] ] ] ] { { ] ! j 3 @ $ 9 C G T W E T H V 8 % @ 6 k / [ { { [ [ [ ' ' ' ' ' ' ' ' ' ' [ [ ' ' ' ' ",
"O.O.X.X. .| } { { { { ] { { ] ] ] ] ] { } ] ! j 3 @ $ 9 C H T W W T H V 8 % @ 2 k ~ [ { { [ [ [ ' ' ' ' ' ' ' ' ' ' { [ ' ' ' ' ",
"O.X.X.X. .} } { { { { { ] ] ] ] ] ] ] ] } ] ! j 3 @ $ 9 C H T R W T H V 8 % @ 2 k ~ [ { { [ [ [ ' ' ' ' ' ' ' ' ' ' [ [ ' ' ' ' ",
"X.X.X... .} } } { { { { ] ] ] ] ] ] ] ] ] ] ! h 3 @ $ 9 C H T W E T H V 8 % @ 6 k ~ [ [ { [ [ [ ' ' ' ' ' ' ' ' ' [ ' ' ' ' ' ' ",
"X.X.X... .} } { { { { { { ] ] ] ] ] ] } ] ] ! j 3 @ $ 8 C H T R E T H V 8 % # 2 k ~ [ [ { [ [ [ ' ' ' ' ' ' ' ' ' ' ' ' ' ' ' ' ",
"X.O.X... .} } { { { { ] ] ] ] ] ] ] ] ] ] ] ! j 3 @ $ 9 N H T W E T H V 8 % + 6 k ^ [ [ { [ [ [ ' ' ' ' { [ [ ' [ ' ' ' ' ' ' ' ",
"O.X.X... .} } { { { { ] ] ] ] ] ] ] ] ] ] ] ! j 3 @ $ 9 C H T W E T H V 7 % + 6 k / [ { { [ [ [ ' ' ' ' [ [ [ [ ' [ ' ' ' ' ' ' ",
"O.O.X.X. .| } { { { { { ] ] ] ] ] ] ] ] { ] ! j 2 @ $ 9 C H T W E T H V 8 % O 2 k ~ [ { { [ [ [ ' [ ' [ ' ' ' ' [ ' ' ' ' ' ' ' ",
"O.O.X.X. .} } { { { { { ] ] ] ] ] ] ] ] ] ] ! j 2 $ $ 9 N H T R E T H V 8 % @ 3 k ~ ` { [ [ [ [ ' ' ' ' ' ' [ ' ' [ ' ' ' ' ' ' ",
"X.X.X.X. .} } { { { { ] ] ] ] ] ] ] ] ] { ] ! j 3 @ $ 9 C H T R E T G V 8 O @ 3 k ~ [ { { [ [ [ ' ' ' ' [ ' ' [ ' ' [ ' ' ' ' ' ",
"X.X.X... .} } { { { { ] ] ] ] ] ] ] ] ] ] ] ! j 3 @ $ 9 N K T W E T H V 0 % # 3 l ^ [ { { [ { [ { [ ' [ ' ' ' ' [ ' ' ' ' ' ' ' ",
"O.O.X... .| } { { { { { F } ] ] ] ] ] ] } ] ! j 2 @ $ 5 N J T W E T H V 8 O # 3 k ~ [ { { ' ' [ ' ' ' ' [ ' ' ' [ [ [ [ ' ' ' F ",
"O.X.X.X. .| } { { { ] { ] } ] ] ] ] ] ] ] ] ! j 3 @ $ 9 N J T W E T H C 0 & @ 3 k ~ [ [ { { [ ' ' ' ' ' ' ' ' [ [ [ [ [ ' ' [ [ ",
"O.O.X.X. .} } { { { { { ] ] ] ] _ ] ] ] ] ] ! j 3 @ $ 9 C K T R E T H V 8 O # 3 k ~ [ { { [ [ ' [ ' ' ' ' ' ' [ [ [ [ [ [ [ [ [ ",
"O.O.X.X. .| } { { { { ] ] ] ] ] ] ] ] ] ] ] ! j 3 @ $ 9 N K Y R E T H C 8 & @ 3 k ^ [ { { [ ' [ ' [ ' ' [ ' ' ' ' ' [ [ [ [ [ [ ",
"O.O.o.....| } { { { { ] ] ] ] ] ] ] ] { { ` ! j 3 # $ 9 N G U R R Y G V 8 & @ 3 k ~ [ { { [ [ [ [ [ [ [ ' [ ' [ [ [ ' ' ' [ [ [ ",
"O.O.......} } { { { { { ] ] ] ] ] ] ] { { ] ! j 3 # $ 5 N F U R T I D M 8 $ @ 3 k ^ [ [ { [ [ [ [ [ [ [ ' [ [ ` [ [ [ ' [ ` [ [ ",
"O.O.....} } ] } { { { { ] ] ] ] ] ] ] ] { ] ! j 3 # $ 5 m D K Y Y L D M 8 O @ 3 k ^ { { { [ [ [ [ [ [ [ [ ' [ ' [ ' [ ' ' ' ] { ",
"O.o.......} } { { { ] { { ] ] ] ] ] ] { ] ] ! j 3 # $ 5 m A K I I L S t 5 O @ 3 k ^ [ { { [ [ [ [ [ [ [ ' [ ' ' ' ' ' ' ' ' { ` ",
"O.o.......] } { { { ] ] ] ] ] ] ] ] ] ] } ] ! j 3 @ O 5 m Z H I I J S t 5 O @ 3 k ~ [ { { [ [ [ [ [ ' [ ' ' ' [ ' ' ' ' ' ' ' ' ",
"O.o.o.....} ] } { { ] { { { ] ] ] _ ] ] ] ] ! j 3 @ O 5 m Z H K L J Z t 5 O # 3 k ~ [ [ { [ [ [ ' [ ' ' [ ' [ ' [ ' ' ' ' ' ' ' ",
"O.O.....| } } { { { { { ] { ] ] ] ] ] ] ] ] ! j 3 @ O 5 m Z J K L H Z t 7 O # 3 k ~ [ { { [ [ [ ' ' ' ' ' ' ' [ ' [ ' ' ' ' ' ' ",
"O.O.o.....} } } { { { F ] ] ] ] ] ] ] ] ] ] ! j 3 @ O 5 m A J P L J Z t 5 O # 3 l / [ { { [ [ [ ' [ ' [ ' [ [ ' [ ' ' ' ' ' ' ' ",
"O.o.o.....| ] } ] { { ] ] ] ] ] ] ] ] ] ] ] ! j 3 @ $ 5 m Z H P L H A r 5 O # 3 k ~ ' { { [ [ [ ' ' ' ' ' [ [ [ ' ' ' ' ' ' ' ' ",
"O.o.......] } ] { { { { ] ] ] ] ] ] ] ] } ] ! j 3 $ o 5 e Z H P L H A r 5 O # 3 k ^ [ { { [ [ [ [ ' [ ' ' ' ' [ ' [ ' [ ' ' ' ' ",
"O.o.......} } ] { { { ] ] { ] ] ] ] ] ] { _ ! j 3 + o 5 m Z G P P H A r 5 O # 3 k ^ [ { { [ [ [ ' ' [ ' ' ' [ [ [ [ ' ' ' ' ' ' ",
"O.o.o.....} } } { { { { ] ] ] ] ] ] ] ] { ] ! j 3 + $ 5 m Z H K P H A r 5 O # 3 k ^ [ { { [ [ [ ' ' ' ' ' [ [ { ' ' ' ' ' ' ' ' ",
"O.O.....} } } ] { { ] { ] ] ] ] ] ] ] { { _ ! j 3 # $ 5 m A J P P H A r 5 O @ 3 k ^ [ { { [ [ [ [ ' ' ' ' ' ' ' ' ' ' ' ' ' ' ' ",
"O.O.O.....] } } { { { ] ] ] ] ] ] ] ] { } ] ! j 4 + O 5 m A J P P H A r 5 O @ 3 k ^ [ { { [ [ [ ' ' ' ' ' ' ' ' ' ' ' ' ' ' ' ' ",
"O.O.......} ] ] { { { ] ] ] ] ] ] ] ] ] ] ] ! j 3 + o 5 e Z J K K H A r 5 O @ 3 k ^ [ { { [ [ [ ' ' ' ' { ' ' ' ' ' ' ' ' ' ' ' ",
"O.O..... .} } } { { { ] ] ] ] ] ] ] ] ] { ] ! j 3 + $ 5 m A K K P J A m 5 O @ 3 k ^ ' { { { [ [ ' ' ' ' ' ' ' ' ' ' ' ' ' ' ' ' ",
"O.O..... .} } } ] ] { { ] { ] ] ] ] ] ] ] ] ! j 3 # $ 5 m A K K I K S m 6 O @ 2 l ^ { { { [ ' ' ' ' ' ' ' ' ' ' ' ' ' ' [ ' [ ' ",
"O...O.....} ] ] { { ] ] ] ] ] ] ] ] ] ] ] ] ~ j 2 # $ 5 m A K U I K S t 7 % @ 2 k ^ [ { { [ ' ' ' ' ' ' [ ' ' ' ' ' ' ' ' ' ' ' ",
"O.O..... .} { ] { { { { ] ] ] ] ] ] ] ] ] ] ! j 3 @ O 5 m Z J K K G Z e 5 O + 6 k ~ [ { { [ ' ' ' ' ' ' ' ' [ [ ' [ ' [ [ ' ' [ ",
"O.O.O.....} } } { { { { { ] ] ] ] ] ] ] } ] ! h 3 + X : w N Z A A Z V q : o + 6 k ~ [ { { [ ' ' { ' ' ' [ [ [ { { ' ' ' ' ' ' ' ",
"O.O.O.....} } ] { { ] { ] ] ] ] ] ] ] ] { ] ! j 2 + . $ 5 w m m m r q 5 % . + 3 k ~ [ [ { { [ { [ [ ' ' ' ' ' ' ' ' ' ' ' ' ' ' ",
"O.O.......} } { { { { { { ] ] ] ] ] ] ] { ] ! j 3 +   . $ 5 5 9 8 5 5 * o   + 2 l ~ [ { { [ ' [ [ [ ' ' ' ' ' ' ' ' ' ' ' ' ' ' ",
"O.O..... .} } ] { { { ] ] ] ] ] ] ] ] ] { ] ! l 5 # +   $ $ = = = = $ O o . % 6 z ~ [ [ { [ [ [ [ ' ' ' ' ' ' ' ' [ ' ' ' ' ' ' ",
"O.X.O... .} ] } { { { ] ] ] ] ] ] ] ] ] ] ] / v s 3 > > > , 1 1 1 1 , ; % % 2 a B ) [ { [ ' { ` [ ' ' ' ' ' ' ' ' ' ' ' ' ' ' ' ",
"O.O.X.....} } } { { { ] { ] ] ] _ ] ] ] ] ] ( Q z s i u i p p s a a p i i i d z Q ) ` { { [ [ { ` [ [ [ [ ' [ ' ' ' ' [ ' ' [ ' ",
"O.O.X... .} ] ] { { { ] ] ] ] ] ] ] ] ] ] ] _ ! Q B x z x x b b c v c z z c n Q / _ ] [ [ [ ' [ [ [ [ [ ' ' ' ' ' [ ' ' ' ' ' ' ",
"O.X..... .} { } { { { { F ] ] ] ] ] ] ] ] ] _ ) / ~ ! ! ! ! ! ! ~ ! ! ! ! ^ ^ ( _ ` [ [ [ ] [ ' [ [ [ [ ' ' ' ' ' ' ' [ ' ' [ ' ",
"O.O.......} } ] { { ] ] } ] ] ] ] ` ] ] ] _ ` ` ) ) ) ) ) ) ) ) ) ) ) ) ) ) ) ) ` ' [ [ [ [ [ ] [ [ ' ' [ ' [ ' ' [ ' ' ' ' ' ' ",
"O.X.X... .} { } { { { ] ] ] ] ] ] ] ` ` ] ` ' ` [ ) ' ) ` ` ` ` ` ) ` ` ' ) ' ' [ [ ` [ [ ` ] [ ` [ [ [ ' ' ' ' [ [ [ [ ' ' ' ' ",
"O.O.X.....} } { { { { ] { ] ] ] ] ] ] ] ` [ ` ` ` ' ' ' ` ` ` ` ] ' ' ' ` ' ` ' ` ' [ [ [ [ [ [ [ [ [ ] ' [ [ ' [ [ [ [ ' ' ' ' ",
"O.O.X...| } } { { { { ] { ] ] ] ] ] ] ] [ ] ' ' ' ` ' ' ' ' ' ' ' ' ' ' ' ' ' ' ] [ [ [ [ [ [ ] [ ` [ [ ' ' ' ' [ [ [ [ [ { ' ' ",
"O.O.X.....} } { { { { { ] ] ] ] ] ` ] ] ] ` ` ' ' ' ' [ [ [ [ [ ' ' [ [ [ [ [ ' [ [ ] ] [ [ [ [ [ [ [ ] ' [ ' [ [ [ [ [ [ F ' ' "
};
