/* XPM */
static char *result[] = {
/* columns rows colors chars-per-pixel */
"16 19 37 1 ",
"  c #0C0D06",
". c #111000",
"X c #1E1B00",
"o c #16170A",
"O c #272405",
"+ c #2D2901",
"@ c #23230A",
"# c #20220F",
"$ c #BDAC03",
"% c #CBB803",
"& c #CDB903",
"* c #CDBA03",
"= c #CEBB03",
"- c #CFBB03",
"; c #D0BC03",
": c #D1BC03",
"> c #D6C203",
", c #D8C303",
"< c #DAC503",
"1 c #E5CF03",
"2 c #E5D003",
"3 c #E7D103",
"4 c #E9D303",
"5 c #EAD403",
"6 c #EBD503",
"7 c #ECD603",
"8 c #F3DC03",
"9 c #F5DE03",
"0 c #F6DF03",
"q c #F7E003",
"w c #898F40",
"e c #919845",
"r c #939A46",
"t c #9BA249",
"y c #9CA44A",
"u c #A5AD4E",
"i c #A7AF4F",
/* pixels */
"iiiiiiiiiiiiiiii",
"iiiiiiiiiiiiiiii",
"iiiiiiyooo#iiiii",
"iiiiiy@%%%$#iiii",
"iiiiy@=0008$#iii",
"iiiy@=966678$#ii",
"iiy@*5q4445q3$#i",
"iit.59644444:, i",
"iit.5q444443&, i",
"iit.5q444443&, i",
"iit.4794443;2, i",
"iiuw+5q4443&<Ori",
"iiiuw+4---;>Orii",
"iiiiuw+111>Oriii",
"iiiiiuwXXXOriiii",
"iiiiiiueeeriiiii",
"iiiiiiiiiiiiiiii",
"iiiiiiiiiiiiiiii",
"iiiiiiiiiiiiiiii"
};
