/* XPM */
static char *result[] = {
/* columns rows colors chars-per-pixel */
"64 64 149 2 ",
"   c #000001",
".  c #080904",
"X  c #060808",
"o  c #151405",
"O  c #191600",
"+  c #1D1B03",
"@  c #11130B",
"#  c #16190F",
"$  c #1B1C0B",
"%  c #201E04",
"&  c #1F210F",
"*  c #252407",
"=  c #2A2500",
"-  c #2F2B03",
";  c #23240D",
":  c #2D2C0C",
">  c #343006",
",  c #39360A",
"<  c #242614",
"1  c #252815",
"2  c #2B2D14",
"3  c #2A2E18",
"4  c #2F3113",
"5  c #2D3019",
"6  c #3E3F15",
"7  c #33361A",
"8  c #3B3F1F",
"9  c #463F01",
"0  c #3F4421",
"q  c #474103",
"w  c #494405",
"e  c #4E490A",
"r  c #5D5402",
"t  c #57510A",
"y  c #5D5609",
"u  c #5E590C",
"i  c #464513",
"p  c #4F4E14",
"a  c #47491D",
"s  c #4B4D1B",
"d  c #504F15",
"f  c #4F511E",
"g  c #565413",
"h  c #595512",
"j  c #5C5914",
"k  c #52531C",
"l  c #5B5B1D",
"z  c #635A03",
"x  c #635D0C",
"c  c #615E13",
"v  c #5F601F",
"b  c #6B6102",
"n  c #65610E",
"m  c #6A630C",
"M  c #6F680B",
"N  c #726703",
"B  c #766D07",
"V  c #7A6F03",
"C  c #736C0C",
"Z  c #786F08",
"A  c #7E7304",
"S  c #7C730A",
"D  c #656115",
"F  c #696513",
"G  c #6E6913",
"H  c #64631C",
"J  c #696619",
"K  c #69681B",
"L  c #706B11",
"P  c #434720",
"I  c #4A4E25",
"U  c #4E5224",
"Y  c #4D5128",
"T  c #515526",
"R  c #555824",
"E  c #5C5D21",
"W  c #51562A",
"Q  c #565C2B",
"!  c #595E2A",
"~  c #5D6125",
"^  c #5E632E",
"/  c #5F6530",
"(  c #646523",
")  c #676824",
"_  c #696A24",
"`  c #62662A",
"'  c #66692C",
"]  c #6B6E2A",
"[  c #6F722C",
"{  c #72752E",
"}  c #606630",
"|  c #656C32",
" . c #6A6F33",
".. c #6D7233",
"X. c #727733",
"o. c #757A34",
"O. c #797E35",
"+. c #757B39",
"@. c #797F3B",
"#. c #817605",
"$. c #867A04",
"%. c #887B01",
"&. c #857B09",
"*. c #8A7F08",
"=. c #7C8137",
"-. c #7B813C",
";. c #8E8104",
":. c #928503",
">. c #968803",
",. c #9B8D02",
"<. c #9E9004",
"1. c #A49401",
"2. c #A79803",
"3. c #AC9C01",
"4. c #B09F02",
"5. c #B6A402",
"6. c #B9A701",
"7. c #BDAB02",
"8. c #80863C",
"9. c #83893E",
"0. c #C0AE02",
"q. c #C6B302",
"w. c #C9B602",
"e. c #CEBA02",
"r. c #D3BE03",
"t. c #D6C103",
"y. c #DBC603",
"u. c #DEC903",
"i. c #E3CD03",
"p. c #E6D103",
"a. c #EAD403",
"s. c #EFD803",
"d. c #F3DC03",
"f. c #F7E003",
"g. c #F9E203",
"h. c #858C40",
"j. c #888F42",
"k. c #8C9343",
"l. c #909745",
"z. c #939A46",
"x. c #969E48",
"c. c #989F48",
"v. c #9CA34A",
"b. c #A0A74C",
"n. c #A7AF4F",
"m. c #A7B04F",
"M. c #A8B04F",
"N. c #A7AF50",
"B. c #AAB250",
/* pixels */
"N.N.N.N.N.N.N.N.N.N.N.N.N.N.N.N.N.N.N.N.N.N.N.N.N.N.N.N.N.N.N.N.N.N.N.N.N.N.N.N.N.N.N.N.N.N.N.N.N.N.N.N.N.N.N.N.N.N.N.N.N.N.N.N.",
"N.N.N.N.N.N.N.N.N.N.N.N.N.N.N.N.N.N.N.N.N.N.N.N.N.N.N.N.N.N.N.N.N.N.N.N.N.N.N.N.N.N.N.N.N.N.N.N.N.N.N.N.N.N.N.N.N.N.N.N.N.N.N.N.",
"N.N.N.N.N.N.N.N.N.N.N.N.N.N.N.N.N.N.N.N.N.N.N.N.N.N.N.N.B.B.B.B.N.N.N.B.N.N.N.N.N.N.N.N.N.N.N.N.N.N.N.N.N.N.N.N.N.N.N.N.N.N.N.N.",
"N.N.N.N.N.N.N.N.N.N.N.N.N.N.N.N.N.N.N.N.B.N.B.B.B.B.B.B.B.B.B.B.B.B.B.B.B.B.B.B.B.B.N.N.N.N.N.N.N.N.N.N.N.N.N.N.N.N.N.N.N.N.N.N.",
"n.n.M.n.n.n.N.n.n.n.n.n.M.n.M.n.m.n.n.N.m.B.B.B.B.B.B.B.B.B.B.B.B.B.B.B.B.B.B.B.B.N.N.B.N.N.N.N.N.M.n.n.M.n.M.n.n.n.n.n.n.n.n.n.",
"M.n.n.n.n.M.n.n.M.n.M.n.n.n.n.n.n.n.n.m.m.B.B.B.B.B.B.B.B.B.B.B.B.B.B.B.B.B.B.B.N.N.N.N.N.N.N.N.M.M.n.M.N.n.N.n.n.M.n.M.n.M.n.M.",
"n.m.n.n.N.M.n.M.n.n.N.M.M.n.N.M.N.N.m.N.N.b.b.b.b.v.v.v.n.v.v.v.N.b.v.v.v.v.N.b.b.N.N.N.N.N.N.N.M.M.n.n.n.n.n.n.N.M.N.n.n.n.N.n.",
"n.n.N.M.n.n.n.n.n.N.n.n.n.n.n.n.m.B.m.m.b.v.z.k.k.h.-.-.-.-.-.-.@.@.@.@.-.h.j.l.x.c.b.b.N.N.B.N.n.n.N.n.M.n.M.n.n.n.n.n.M.n.M.n.",
"n.M.n.M.n.N.n.n.M.n.n.n.n.N.n.M.B.B.B.m.v.k.8.+.| } Q W Y Y Y T Y Y Y Y W ^  .-.h.l.c.b.N.N.N.B.M.n.n.n.M.n.M.n.n.M.M.n.n.M.n.n.",
"n.n.n.n.n.n.M.n.n.n.M.n.M.n.n.M.M.B.B.m.z.9...^ Y 0 7 2 1 < < 1 1 1 < 1 5 8 Y } +.h.l.c.N.N.B.N.M.M.N.n.n.n.n.n.n.n.n.n.N.n.M.n.",
"n.N.n.N.M.n.M.n.M.n.N.n.n.n.n.M.M.M.n.v.9.O.` f 9 5 ; $ o o o o o @ @ o % 3 9 R | @.h.x.v.N.N.N.n.n.n.M.n.N.n.N.n.N.n.n.n.n.n.n.",
"n.M.n.M.n.n.n.n.n.n.M.n.M.n.n.n.b.b.z.k.9.{ ~ k i 7 > - = = % = = = = = : , P k / +.&.j.x.v.b.N.n.M.n.n.M.n.M.n.M.n.n.M.n.M.N.n.",
"n.n.n.n.n.n.n.N.n.N.n.n.B.N.n.b.v.k.h.-.X._ D c c y z r r r r z r r r r r r x h ~ ' { &.j.z.c.b.b.M.M.M.M.n.n.n.M.n.M.n.M.n.M.n.",
"n.M.n.M.M.n.M.n.M.n.n.M.B.B.n.v.k.-...' ( J G C Z $.%.:.,.,.,.>.>.,.,.,.>.$.V m c c ) [ @.h.k.c.b.M.N.N.n.N.n.M.n.n.n.n.n.n.n.N.",
"n.n.N.n.n.n.n.n.n.n.n.M.M.M.n.v.h.X.! R l c C &.>.2.7.w.r.e.r.e.r.r.r.e.0.4.:.N x c l ` | @.h.z.v.n.N.B.M.n.n.n.N.n.M.n.n.M.n.M.",
"n.M.n.n.M.N.n.M.n.m.n.B.B.B.n.v.9. .W s g x V *.1.6.w.i.i.a.i.i.i.p.p.p.y.0.,.#.z x g E | ..-.l.b.M.B.B.M.n.M.n.M.n.N.n.n.n.n.n.",
"M.n.M.n.n.n.n.n.n.M.n.B.B.B.M.v.9.| Y s d x Z ;.1.6.r.i.a.a.a.p.p.a.s.a.i.0.<.V z t g R ` ..-.l.b.N.B.B.M.M.n.M.n.n.M.n.n.n.n.n.",
"n.N.n.N.n.M.n.B.n.n.n.B.B.B.M.v.8.| Y a d u B ;.1.6.e.y.i.i.i.y.i.i.p.p.y.0.,.V z t g E | ..8.x.v.B.B.B.N.n.n.n.n.N.n.N.n.M.M.N.",
"n.n.n.n.n.n.n.n.n.m.m.m.B.B.m.v.h.| W s d D Z ;.1.5.q.r.y.y.t.r.r.y.i.y.r.7.,.V z t l E ` ..8.l.v.M.B.B.M.n.n.n.M.n.M.n.n.n.n.n.",
"M.n.M.n.M.n.n.n.n.m.m.m.B.n.v.l.-.' R k j M #.:.1.5.q.r.t.t.r.r.r.r.y.i.r.0.1.%.N x c c ' X.8.9.c.b.M.M.n.M.n.n.n.n.n.n.M.n.M.n.",
"n.n.n.n.n.n.M.n.m.M.m.b.v.v.9.8.X.] ~ H m S :.<.5.7.w.r.t.t.t.t.r.r.i.i.y.w.5.<.%.S L J ) _ X.8.k.x.v.b.N.N.M.M.n.n.n.N.n.n.M.n.",
"n.M.n.N.n.N.n.M.B.m.m.v.l.9.=.[ _ K F L S :.2.5.7.w.r.t.y.y.y.y.i.i.i.i.i.y.w.7.4.,.*.C D ( _ X.8.9.l.c.v.n.M.N.M.n.M.n.N.n.n.n.",
"M.n.n.m.n.n.n.B.B.B.v.v.9.+.^ ~ v F L &.:.2.5.q.e.r.t.y.u.u.u.i.p.p.a.a.a.i.i.y.w.5.,.S m c c ) { O.h.z.v.n.N.B.M.M.n.n.n.M.M.n.",
"n.N.n.n.n.n.n.B.B.M.m.z.-.| R f j m S ;.<.5.7.e.t.y.y.y.u.i.i.p.a.a.s.s.s.s.d.s.i.w.2.$.b u l l ' ..-.k.v.n.B.B.M.n.M.n.n.n.N.n.",
"n.n.n.M.n.M.n.B.B.B.n.l.-.^ U s g m A :.2.6.w.t.y.u.u.y.u.i.p.p.a.s.s.d.d.d.d.g.a.r.3.%.z z g l `  .@.k.c.n.B.B.M.n.n.M.n.n.M.n.",
"M.n.n.n.n.n.n.B.B.B.n.l.-.^ U a g m #.:.2.6.w.t.y.u.u.u.u.i.p.p.a.a.s.s.d.d.g.d.a.r.4.%.b y g l ^  .@.j.c.n.N.M.B.n.n.n.n.N.n.n.",
"M.n.N.n.n.M.n.B.B.M.b.z.-.^ f s g m A :.1.5.w.t.y.u.y.u.i.i.i.a.a.s.s.d.d.d.g.d.a.r.3.%.b y h l `  .-.k.v.n.B.B.M.n.n.M.n.M.M.n.",
"n.n.n.M.n.n.n.M.B.M.n.z.-.^ U s g M A :.1.5.w.e.y.y.y.u.u.i.i.p.a.s.s.s.d.d.g.d.p.r.3.%.b y y E `  .O.k.v.b.N.B.M.n.n.n.n.N.n.n.",
"n.n.N.n.m.n.n.B.B.B.b.z.-.` U f g m S :.2.6.q.t.y.y.y.u.u.i.i.a.a.a.s.s.d.d.d.d.a.w.3.%.z y h l ` ..O.k.v.n.N.B.M.n.n.n.n.n.n.M.",
"n.B.n.n.n.M.n.B.B.B.n.z.-./ U s g m A :.1.5.w.t.y.y.y.u.u.i.p.p.a.s.s.d.d.d.g.d.a.w.3.%.N y h E ` ..@.k.v.b.N.B.M.M.n.M.M.n.N.n.",
"n.n.n.M.n.n.n.B.B.B.m.z.-./ U f g m A :.1.5.w.e.y.y.y.u.u.i.i.a.a.s.s.d.d.d.d.d.a.r.3.%.z z h l ` ..@.k.c.n.B.B.M.n.n.n.n.n.n.n.",
"n.n.n.n.n.M.N.B.B.B.n.l.-./ U f g m A :.1.5.w.t.y.y.y.u.u.i.p.p.a.a.s.d.d.d.g.d.i.r.3.%.b y h l ' ..@.k.v.n.M.B.M.N.N.n.M.n.M.n.",
"n.n.n.n.n.m.M.M.B.B.m.l.=./ U s j m A :.1.5.q.t.y.u.y.u.u.u.i.a.a.s.s.s.d.d.d.d.a.e.3.%.z z h l `  .@.k.c.N.N.N.N.N.N.N.N.N.N.N.",
"M.n.M.n.M.m.M.M.B.B.v.l.-./ U f g m S :.1.5.q.e.y.y.y.u.i.i.i.a.a.a.s.d.d.d.d.d.p.e.3.%.z z h l `  .@.k.x.N.N.N.N.N.N.N.N.N.N.N.",
"n.n.n.M.n.n.m.M.B.B.v.v.-./ f f g m S :.1.5.q.t.y.y.y.u.u.i.i.a.a.a.s.s.d.d.d.d.a.e.3.%.z y h E ` ..@.k.v.N.B.N.N.N.N.N.N.N.N.N.",
"M.n.n.n.M.n.m.M.B.B.n.z.-./ T s g m S :.1.5.q.t.y.y.y.u.u.i.i.p.a.s.s.d.d.d.g.d.p.w.3.%.N x h l ` ..@.k.v.N.B.B.N.N.N.N.N.N.N.N.",
"n.M.n.n.m.m.m.M.B.B.m.v.-./ U s g m A :.1.5.q.t.y.y.y.u.u.i.p.a.a.a.s.s.d.d.d.d.p.r.3.%.z y h l ` ..&.l.v.N.B.B.M.N.M.n.N.N.N.N.",
"n.n.n.N.m.m.m.m.B.B.n.l.-./ U s g m A :.1.5.q.t.y.y.y.y.u.i.i.a.a.s.s.d.d.d.g.d.a.w.3.%.b z h l ` ..@.k.c.N.B.N.M.n.n.n.N.N.N.N.",
"n.M.n.M.m.m.m.B.B.m.v.v.-.^ U f g m A :.2.5.q.t.y.y.u.u.u.i.i.a.a.s.s.d.d.d.g.d.p.r.4.%.b x h l ` ..@.k.v.b.N.B.M.n.M.n.n.M.N.M.",
"n.n.n.n.m.m.m.m.B.m.n.l.-./ U f g M S :.<.5.q.t.y.u.y.y.u.i.i.p.a.a.s.d.d.d.d.d.p.r.3.%.z y h l ` ..@.k.v.N.N.N.M.M.n.n.N.n.M.M.",
"N.n.n.n.n.M.n.B.B.B.m.l.-./ U d g m S :.1.6.w.r.y.y.y.u.u.i.i.a.a.a.s.d.d.d.g.d.a.e.3.%.N y h l `  .@.k.c.n.B.M.M.n.n.n.M.n.M.n.",
"n.M.n.n.n.n.n.B.B.B.b.v.-./ U s g m A :.1.5.q.t.y.y.y.u.u.i.p.p.a.s.s.s.d.d.d.d.a.r.2.%.z y h l ` X.@.k.c.n.B.B.M.n.n.M.n.n.n.N.",
"n.n.n.n.n.n.n.B.B.B.b.z.-./ U s j m A :.1.5.w.e.y.y.y.y.u.i.i.a.a.a.s.d.d.d.g.d.p.r.3.%.N y h l `  .@.k.v.n.M.B.M.M.n.N.M.n.n.M.",
"n.M.n.B.n.n.n.B.B.M.m.z.-./ U f g m A :.1.5.w.t.y.y.u.u.u.i.p.p.a.s.s.s.d.d.d.d.p.e.3.%.z y h l ` X.@.j.c.n.B.N.M.n.n.n.n.n.n.n.",
"n.n.n.N.n.M.n.B.B.B.m.z.-./ U s g m A :.1.5.w.r.y.y.y.u.u.i.i.p.a.s.s.d.d.d.d.d.p.r.3.%.z z h l `  .@.k.v.n.M.B.M.M.n.M.N.M.n.n.",
"n.n.M.n.n.n.n.B.B.B.m.z.-.` U s g m #.:.1.5.w.r.y.y.y.u.u.i.p.a.a.a.s.s.d.d.g.d.p.e.3.%.z z h l `  .@.k.c.n.N.N.M.n.n.N.n.n.M.n.",
"M.n.M.n.n.n.n.B.B.B.b.z.-.^ U a g m A :.1.6.w.t.y.u.y.u.u.i.i.p.a.s.s.d.s.d.g.g.a.r.4.%.b y h l `  .@.k.c.n.B.N.M.n.n.n.n.n.n.n.",
"N.n.n.n.n.n.n.B.B.B.b.l.@.^ U s t m #.>.2.6.w.t.y.u.u.u.u.u.p.p.a.a.s.s.d.d.g.d.s.r.3.%.b y h l `  .@.j.c.n.B.N.M.n.n.M.n.M.n.N.",
"n.n.n.M.M.n.n.B.B.B.n.l.-./ U s g n S ;.<.6.w.t.y.y.y.y.u.i.i.p.a.s.s.d.d.d.d.d.p.r.4.$.z y h E `  .@.k.v.n.M.B.M.n.M.n.n.n.n.n.",
"M.n.n.n.n.n.n.B.B.B.n.z.8...! R j F S ;.,.4.7.w.t.y.y.y.i.p.p.a.a.s.s.s.s.s.s.a.y.0.<.&.z c c ( ] +.h.l.c.n.B.M.M.n.n.n.n.M.n.M.",
"M.n.n.N.n.N.n.B.B.B.b.v.k.=.[ ' K K L S ;.>.4.7.q.t.y.i.p.a.a.a.s.s.d.d.s.p.r.e.7.2.:.C G c ( ] X.8.h.z.b.n.N.N.M.n.n.n.n.n.n.n.",
"n.n.n.M.n.n.n.M.m.B.n.v.z.k.8.+.{ _ v F C ;.>.4.7.w.y.p.a.s.d.d.d.d.d.d.s.r.q.4.<.*.#.G J _  .@.h.l.x.v.b.n.B.M.n.M.n.M.M.n.M.N.",
"n.n.N.n.n.M.M.n.M.M.m.n.b.v.z.k.=.] ~ g v M ;.<.4.7.t.a.s.f.f.d.d.d.g.d.p.e.4.>.#.C F c }  .+.h.l.c.b.n.n.n.M.n.M.N.n.M.n.M.n.N.",
"n.M.n.n.n.n.n.n.n.n.m.M.M.M.n.z.-. .R f h n Z :.2.7.t.a.d.f.f.f.d.d.d.d.i.q.1.$.z x j ( | ..-.l.c.n.B.B.n.n.n.n.n.n.n.n.n.n.n.n.",
"N.M.n.M.n.n.N.n.m.n.M.B.B.B.m.v.-...U s d x B ;.2.7.u.a.f.g.g.g.g.g.g.d.p.w.<.V z t g E / ..h.l.b.N.B.B.M.M.n.M.n.n.n.n.n.n.M.n.",
"n.n.n.n.M.n.n.M.n.M.M.B.B.B.M.v.-.| U a p u Z ;.2.7.u.s.f.g.g.g.g.g.g.g.p.w.<.V z t k E / +.-.l.b.N.B.B.M.n.n.n.n.M.M.n.N.M.n.n.",
"n.M.n.M.m.n.n.M.n.n.n.B.B.B.B.v.-. .W a d x Z ;.1.7.t.a.d.d.d.d.d.d.d.d.i.w.<.#.z y g E ` ..&.x.b.M.B.B.M.n.n.M.n.n.N.n.M.n.M.n.",
"n.n.n.n.n.n.N.n.n.M.M.M.B.B.n.c.h. .Q f g D C ;.<.5.w.t.i.i.i.i.i.p.i.i.r.7.,.V z c j ~ | +.h.l.b.M.B.B.M.N.n.n.n.M.n.n.n.n.n.n.",
"n.N.N.n.M.n.n.n.n.n.n.M.B.B.n.v.k.+.' ~ v H C S ;.>.1.5.5.6.5.5.6.7.6.6.4.<.%.N x c H _ X.@.j.z.b.n.N.N.M.M.n.n.N.M.n.M.n.M.M.n.",
"n.M.n.M.n.n.n.n.n.M.n.M.B.B.n.v.z.h.-.{ [ K K M M B V A A A A A #.V #.V V B M c c K [ o.8.j.l.b.b.n.N.N.n.n.M.n.n.n.n.n.n.n.n.N.",
"n.n.n.n.n.n.B.n.n.n.M.n.M.M.n.b.b.v.k.9.O.[ ( l g e w q 9 9 9 9 9 9 9 9 w e d j ( ] O.8.l.x.v.b.n.n.M.M.n.n.M.n.n.N.M.n.M.n.N.M.",
"n.M.n.M.n.M.n.n.M.N.n.n.n.n.M.M.M.M.v.v.9...~ s 6 : * + O O O O O O o O % : 9 T ' X.8.l.c.b.M.M.n.n.M.n.n.M.n.N.M.n.n.n.n.n.n.n.",
"n.n.N.n.n.n.N.n.n.n.M.n.n.n.m.M.B.B.M.b.9.=.! P 4 & @ .                 X # 7 Y } +.j.z.b.M.B.B.n.n.n.n.n.n.n.n.n.n.M.n.n.M.n.M.",
"M.n.M.n.n.M.n.n.M.n.n.n.n.n.n.B.B.B.B.b.k.+.! 0 3 # X                   X @ 3 I } O.j.c.n.B.B.M.M.n.M.n.n.M.N.n.M.n.n.n.N.n.n.n."
};
