/* XPM */
static char *_952079fb22e4b26a4c8235342b727e0oq5ktQ2g2gKoXGxZ[] = {
/* columns rows colors chars-per-pixel */
"64 64 227 2 ",
"   c #10100E",
".  c #14130C",
"X  c #1C1C0D",
"o  c #291714",
"O  c #3B1518",
"+  c #1F200F",
"@  c #1E2518",
"#  c #23220F",
"$  c #242412",
"%  c #262A16",
"&  c #2B2C13",
"*  c #322B18",
"=  c #2F3117",
"-  c #323316",
";  c #333519",
":  c #3B361D",
">  c #363A1C",
",  c #3A3D1D",
"<  c #382D27",
"1  c #343925",
"2  c #49181C",
"3  c #51101D",
"4  c #442A1D",
"5  c #4B0E21",
"6  c #471321",
"7  c #4B1122",
"8  c #521123",
"9  c #5C1224",
"0  c #581925",
"q  c #670F25",
"w  c #770E26",
"e  c #641125",
"r  c #6C1126",
"t  c #681B28",
"y  c #721127",
"u  c #751428",
"i  c #7C1129",
"p  c #482725",
"a  c #473827",
"s  c #55322D",
"d  c #593D2A",
"f  c #752533",
"g  c #6C3131",
"h  c #783936",
"j  c #3E421E",
"k  c #3D4221",
"l  c #43441D",
"z  c #4A4A1F",
"x  c #414521",
"c  c #454923",
"v  c #4A4C22",
"b  c #494F2A",
"n  c #57462B",
"m  c #4E5125",
"M  c #4D542A",
"N  c #535525",
"B  c #575926",
"V  c #5A5B25",
"C  c #515529",
"Z  c #595529",
"A  c #545A2A",
"S  c #5A5D2A",
"D  c #574735",
"F  c #5A5B30",
"G  c #634528",
"H  c #66572E",
"J  c #654634",
"K  c #754A3C",
"L  c #665635",
"P  c #785633",
"I  c #5D612C",
"U  c #576131",
"Y  c #5C6432",
"T  c #5E6834",
"R  c #63652C",
"E  c #65682E",
"W  c #6B6B2D",
"Q  c #72722E",
"!  c #7D7D2B",
"~  c #686435",
"^  c #636B34",
"/  c #6A6D32",
"(  c #786C3A",
")  c #6C7235",
"_  c #727634",
"`  c #7E7234",
"'  c #757935",
"]  c #7B7C34",
"[  c #727538",
"{  c #7D723B",
"}  c #757B39",
"|  c #797E39",
" . c #6E4F43",
".. c #6E5345",
"X. c #6D5C40",
"o. c #7A6C45",
"O. c #840E29",
"+. c #84112A",
"@. c #88182D",
"#. c #9D1A29",
"$. c #891D31",
"%. c #922235",
"&. c #902A33",
"*. c #982C33",
"=. c #863937",
"-. c #A83B34",
";. c #8C5137",
":. c #B34935",
">. c #866939",
",. c #83723D",
"<. c #86793D",
"1. c #A43B49",
"2. c #8D534B",
"3. c #975D52",
"4. c #AD5050",
"5. c #B15659",
"6. c #8A7B41",
"7. c #967842",
"8. c #876254",
"9. c #9A6953",
"0. c #AA6642",
"q. c #A77844",
"w. c #B37646",
"e. c #A8655B",
"r. c #BA6956",
"t. c #A9785B",
"y. c #BD5F63",
"u. c #9A7062",
"i. c #B76C64",
"p. c #A6796C",
"a. c #B57769",
"s. c #B0796F",
"d. c #C46948",
"f. c #D1794D",
"g. c #C56869",
"h. c #C47265",
"j. c #CD7A72",
"k. c #7E8137",
"l. c #77803C",
"z. c #7D823A",
"x. c #828436",
"c. c #82863B",
"v. c #88853C",
"b. c #84893C",
"n. c #8B8D3C",
"m. c #938E3E",
"M. c #8D9137",
"N. c #8F903D",
"B. c #93943E",
"V. c #98943E",
"C. c #9A9B3B",
"Z. c #9EA037",
"A. c #A6A52D",
"S. c #A3A438",
"D. c #B7B736",
"F. c #8B8747",
"G. c #878D40",
"H. c #888F41",
"J. c #998548",
"K. c #8C9343",
"L. c #8E924D",
"P. c #949A45",
"I. c #979849",
"U. c #968A55",
"Y. c #A78845",
"T. c #B98649",
"R. c #A9984A",
"E. c #B38856",
"W. c #B89A56",
"Q. c #9CA44A",
"!. c #9AA653",
"~. c #A2A54D",
"^. c #A9A74F",
"/. c #A5AD4E",
"(. c #A7AF4F",
"). c #A7AD51",
"_. c #A7AF51",
"`. c #A9AD52",
"'. c #B0AD5F",
"]. c #ABB152",
"[. c #ACB252",
"{. c #B2B25A",
"}. c #B2B25B",
"|. c #BC8B72",
" X c #B0AD60",
".X c #B1B365",
"XX c #C8834E",
"oX c #D0874F",
"OX c #D68451",
"+X c #DB8652",
"@X c #DB8B57",
"#X c #C09C57",
"$X c #C39E59",
"%X c #DB915C",
"&X c #D39C5E",
"*X c #C68678",
"=X c #D68579",
"-X c #C99370",
";X c #D99E75",
":X c #E29D67",
">X c #DCA46E",
",X c #CBB56D",
"<X c #E4A46D",
"1X c #E6AC74",
"2X c #E7B27B",
"3X c #E9B57D",
"4X c #DA8F83",
"5X c #C69182",
"6X c #D79586",
"7X c #DA9C8E",
"8X c #E59789",
"9X c #E69B8C",
"0X c #E89F91",
"qX c #D9A588",
"wX c #ECBC84",
"eX c #E7A696",
"rX c #EDA494",
"tX c #F3AD9C",
"yX c #F5B19F",
"uX c #F8B4A2",
"iX c #FAB5A4",
"pX c #CEC785",
"aX c #D3C684",
"sX c #D6C98E",
"dX c #EDC087",
"fX c #EEC288",
"gX c #F0C389",
/* pixels */
"aX{.].`.`.).).).).).).).).).).).).)._.).).).).).).).).).).).).).).).).).).).).).).).).).).).).).).).).).).).).).).).).).).).).).",
"aX{.].`.`.).).)._.).).).).).).).).(.(.(.(.(.(.(.(.(.(.(.(.(.(.(.(.(.(.(.(.(.(.(.(.(.(.(.(.(.(.(.(.(.(.(.(.(.(.(.(.(.(.(.(.(.(.(.",
"aX{.].`.`.).).).).).).).).).).).).(.(.(.(.(.(.(.(.(.(.(.(.(.(.(.(.(.(.(.(.(.(.(.(.(.(.(.(.(.(.(.(.(.(.(.(.(.(.(.(.(.(.(.(.(.(.(.",
"aX{.[.`.`.).).).).).).).).).).).).(.(.(.(.(.(.(.(.(.(.(.(.(.(.(.(.(.(.(.(.(.(.(.(.(.(.(.(.(.(.(.(.(.(.(.(.(.(.(.(.(.(.(.(.(.(.(.",
"aX{.[.`.`.).).).).).).).).).).).).(.(.(.(.(.(.(.(.Q.Q.Q.~.(.(.(.(.(.(.(.(.(.(.(.(.(.(.(.(.(.(.(.(.(.(.(.(.(.(.(.(.(.(.(.(.(.(.(.",
"aX{.[.`.`.).).).).).).).).).).).).(.(.(.(.(.Q.} / v c v N _ c.(.(.(.(.(.(.(.(.(.(.(.(.(.(.(.(.(.(.(.(.(.(.(.(.(.(.(.(.(.(.(.(.(.",
"aX{.[.`.`.).).).).).).).).).).).).(.(.(.(.b.N I W B.B.B.x.R V I P.(.(.(.(.(.(.(.(.(.(.(.(.(.(.(.(.(.(.(.(.(.(.(.(.(.(.(.(.(.(.(.",
"aX{.[.`.`.).).).).).).).)._.).).).(.(.Q.R V x.V.B.z.z.z.c.C.D.] N } ~.(.(.(.(.(.(.(.(.(.(.(.(.(.(.(.(.(.(.(.(.(.(.(.(.(.(.(.(.(.",
"aX{.[.`.`.).).).).).).).).).).).).(.Q._ , N.B.x.A , , x R x.Z.B.n.R m (.(.(.(.(.(.(.(.(.(.(.(.(.(.(.(.(.(.(.(.(.(.(.(.(.(.(.(.(.",
"aX{.[.`.`.).).).).).).).).).).).).(.b.& n.B.b.M & Q.Q.z.& x.) , z l X A I / Q.(.(.(.(.(.(.(.(.(.(.(.(.(.(.(.(.(.(.(.(.(.(.(.(.(.",
"aX{.[.`.`.).).).).).).).).).).).).(.c.& N.V.b.A ; b.(.Q.| N V & - Q _ _ _ W z N b.(.(.(.(.(.(.(.(.(.(.(.(.(.(.(.(.(.(.(.(.(.(.(.",
"aX{.[.`.`.).).).).).).).).)._.).).(.P.I N B.c.T M = P.(.K.N R N.B.V.V.N.c.B.C.A.V E I.(.(.(.(.(.(.(.(.(.(.(.(.(.(.(.(.(.(.(.(.(.",
"aX{.[.`.`.).).).).).).).).).).).).(.(.P.l E } [ ) I N S - k.V.N.} b c c m | b.M.] N R ~.(.(.(.(.(.(.(.(.(.(.(.(.(.(.(.(.(.(.(.(.",
"aX{.[.`.`.).).).).).).).).).).).).(.~.b.N W B.V.V.S.n.I V n.B.] ; $ S R W n._ ; = / (.(.(.(.(.(.(.(.(.(.(.(.(.(.(.(.(.(.(.(.(.(.",
"aX{.[.`.`.).).).).).).).).).).).).(.b.- x.V.n.) V A.c.V.b.) B.B.c.| V.P.P.V.B._ l N R _ ~.(.(.(.(.(.(.(.(.(.(.(.(.(.(.(.(.(.(.(.",
"aX{.[.`.`.).).).).).).).).).).).).(.b.& n.n.S X - S l A I ) } n.B.c._ S S E n.N.B.c.W R A K.(.(.(.(.(.(.(.(.(.(.(.(.(.(.(.(.(.(.",
"aX{.[.`.`.).).).).).).).).).).).).(.c.$ n.N.) v l X l j # k.| ) z.B.x.l X v , c [ z.C.D.x.B E ~.(.(.(.(.(.(.(.(.(.(.(.(.(.(.(.(.",
"aX{.[.`.`.).).).).).).).).).).).).(.K., S b.V.B.] R - l - z Q | A ) b.n.E , b.) & / V ! k.I v ~.(.(.(.(.(.(.(.(.(.(.(.(.(.(.(.(.",
"aX{.[.`.`.).).).).).).).).).).(.G.N m l X x _ ) | z.N.n.n.x.E x.S c ^ N.b.B m N m v z.I c [ ~.(.(.(.(.(.(.(.(.(.(.(.(.(.(.(.(.(.",
"aX{.[.`.`.).).).).).).).).).Q.^ B ] ] _ x.x.] l k k c M ^ ^ ) c.c.} m I B.b.Y _ z & ; Q.Q.(.(.(.(.(.(.(.(.(.(.(.(.(.(.(.(.(.(.(.",
"aX{.[.`.`.).).).).).).).).).b.& n.n.) ^ C.D.V.n.N     @ 1 1 k A U } _ = ) | b.n.n.n.R S P.(.(.(.(.(.(.(.(.(.(.(.(.(.(.(.(.(.(.(.",
"aX{.].`.).).).).).).).).).).b.& n.N._ M c A z.c.x.m A ) _ ) ^ 1 % / z.M | b.[ ^ ) B.B.W > Q.(.(.(.(.(.(.(.(.(.(.(.(.(.(.(.(.(.(.",
"aX{.].`.`.).).).).).).).).).Q.| N Q ' x.) ] b.n.V.V.V.V.V.V.N.) D U.qX-X/ c , k S b.V.n.W v N z.b.K.(.(.(.(.(.(.(.(.(.(.(.(.(.(.",
"aX{.].`.`.).).).).).).).).).).K.N N S z.z.z.z.z.| | | | z.z.F.-XyXuXuX*X; Q.~.c.$ Y | c.V.C.A.V V N R ~.(.(.(.(.(.(.(.(.(.(.(.(.",
"aX{.].`.).).).).).).).).).Q.) N ] V.B.b.c.z.n.n.n.n.n.n.I.qX4XuXeX3.e.e.* ~.(.Q.z.c x C c.n.S.n.W S m ~.(.(.(.(.(.(.(.(.(.(.(.(.",
"aX{.].`.).).).).).).).).K.x C N.B.b.I , , j m ^ _ N.B.n.J.8XuXtXeXp.s.s.* ~.(.(.(.Q._ R j b k.] / / ~.(.(.(.(.(.(.(.(.(.(.(.(.(.",
"aX{.].`.).).).).).).).).c.X ) B.n.A + N A E z.b v x x Z h.=XtX8X8XrXuX5X; P./ / / / ) ^ A c # m S / (.(.(.(.(.(.(.(.(.(.(.(.(.(.",
"aX{.].`.).).).).).).).).H.= I n.B.x.W R W R v V b.z.R a e.j.8XyXuX0Xa.D N ; = R W E R W W Q R l ; K.(.(.(.(.(.(.(.(.(.(.(.(.(.(.",
"aX{.].`.).).).).).).).).).K.C b [ | | } C.D.n.] N / ~.c.p 4X6X .p.tX|.    @ ^ B.V.n._ V.S.D.V.x.W > ~.(.(.(.(.(.(.(.(.(.(.(.(.(.",
"aX{.].`.).).).).).).).).).).~.} j k c A k.x.A C b v Q.[ ..tX5X< . < < . % % ; _ B.' % C R n.W v B K.(.(.(.(.(.(.(.(.(.(.(.(.(.(.",
"aX{.].`.).).).).).).).).).).).).~.P.E S v v l , $ C n h 0XtXiXeX8.2   . : F S ^ | k.l + m v z A ~.(.(.(.(.(.(.(.(.(.(.(.(.(.(.(.",
"aX{.].`.).).).).).).).).).).).).).(.(.(.b.S L 8.6X7X7X8Xi.g.j.=Xg.@.w y r g H | } z.N._ N N v N ~.(.(.(.(.(.(.(.(.(.(.(.(.(.(.(.",
"aX{.].`.).).).).).).).).).).).).).(.(.~.z.D tXiXiXuXuX4X4.1.+.O.+.i q i +.y e : | B.V.B.W , ~.(.(.(.(.(.(.(.(.(.(.(.(.(.(.(.(.(.",
"aX{.].`.).).).).).I.{ { 6.).).).).).(.G.a eXiXyX8Xj.y.$.y O.+.+.i e 5 8 r r 3 . b n.x.V R Q.(.(.(.(.(.(.(.(.(.(.(.(.(.(.(.(.(.(.",
"aX{.].`.).).).).R.;.8 7 6 L ~.).).).~.[  .tX9Xi.e.4.u 9 u +.+.+.u g e.e.i.p.p I ) v N b.(.(.(.(.(.(.(.(.(.(.(.(.(.(.(.(.(.(.(.(.",
"aX{.].`.).).).).).Y.#.y p { ).).).P.L u.rX*XJ v o y 5 5 i u r f 2.=XtX8X9X*Xo J ~ Q.(.(.(.(.(.(.(.(.(.(.(.(.(.(.(.(.(.(.(.(.(.(.",
"aX{.].`.).).).).).R.-.t L ).).).Q.[ ..tX6X2.b Q._ O &.g f =.i.7XtXtXiXuXrX4Xu.p 2.H b.(.(.(.(.(.(.(.(.(.(.(.(.(.(.(.(.(.(.(.(.(.",
"aX{.].`.).).).).).).R.J.).).).~.z.d tXrX3.: Q.(.Q.~ K i.j.=XrXiXiXiXiXiXiXtX6X8.h r.K Z S ^ P.Q.Q.Q.(.(.(.(.(.(.(.(.(.(.(.(.(.(.",
"aX{.].`.).~.7.F.).).).).`.`.).G.a 7XrXe.: P.(.).(.(.c.H 3.8X0XrXuXiXiXiXiXiXiX7X .2.h.i.*Xa.J ....X.) z.(.(.).(.(.(.(.(.(.(.(.(.",
"aX{.].^.Y.=.0 J ~.).).).`.`.).H.a 7XuX4XK N (.(.(.(.(.Q.~ g =XrXuXiXiXiXiXiXiXuX5Xo d n d n K a.*XeXs.u.~ P.).).(.(.(.(.(.(.(.(.",
"aX{.].R.:.+.g I.).).).).).).).(.K.~ p.rX*XJ ) (.(.(.(.(.b.< eXiXiXiXiXiXiXiXiXtXs.* P.Q.Q.Q.K.Z H 3.9XtX|.X.[ ~.(.(.(.(.(.(.(.(.",
"aX{.[.`.^.J.7.=.h J I.).).).`.(.).Q.| o.*Xi.a G.(.(.~._ 4 7 5.uXuXtXuXiXiXiXuXrXh.2.v ~.(.(.(.(.Q./ d a.p L ..v ~.(.(.(.(.(.(.(.",
"aX{.[.`.`.).Y.#.r 6 p ,.).).`.).).(.(.P.~ 8.*XK ~ G.N a u y %.g.rX=XuXiXiXiXiXtX8X5.2 R ~.(.(.(.(.P.L J & K.E / ~.(.(.(.(.(.(.(.",
"aX{.[.`.`.`.^.Y.:.K J >.F.F.).).).(.(.(.K.n |.9Xe.n C F 9 +.u %.g.=XuXiXiXiXiXtXh.f 6 $ Q.(.(.(.(.(.~.K.P.).).).(.(.(.(.(.(.(.(.",
"aX{.[.`.`.).).).`.R.:.+.6 p { (.).(.(.(.(.G.a 7XtX4X9.Y d y 8 e @.4.=XrXrX4X5.4.+.9 O $ Q.(.(.(.(.(.(.(.(.(.(.(.(.(.(.(.(.(.(.(.",
"aX{.[.`.`.).).).).R.:.#.t P I.).).(.(.(.(.P.L u.uXtXa.^ F s 9 6 7 9 $.%.%.$.8 q t G m V ~.(.(.(.(.(.(.(.(.(.(.(.(.(.(.(.(.(.(.(.",
"aX{.[.`.`.`.).).).).~.J.Y.).).).).(.(.(.(.b.* *X=X9Xt.^ ,.w.0.;.7 e e q O.i g 0.0._ & ~.(.(.(.(.(.(.(.(.(.(.(.(.(.(.(.(.(.(.(.(.",
"aX{.[.`.`.).).).).).).).).).).).).(.(.(.(.z.$ ~ 6.J.( q.OX+X+Xd.e 8 e u y *.f.OXY.N R (.(.(.(.(.(.(.(.(.(.(.(.(.(.(.(.(.(.(.(.(.",
"aX{.[.`.`.).).).).).).).).).).).).(.(.(.K.; A } N.x.<.+X+X+X+Xd.@.r 7 e $.d.OXT.R v ~.(.(.(.(.(.(.(.(.(.(.(.(.(.(.(.(.(.(.(.(.(.",
"aX{.[.`.`.).).).).).).).).)._.).).(.(.~.z.$ ) n.b.,.OX+X+X+Xf.-.+.w 8 +.*.OXw.B ) ~.(.(.(.(.(.(.(.(.(.(.(.(.(.(.(.(.(.(.(.(.(.(.",
"aX{.[.`.`.).).).).)._.).).).).).).(.(.H.= / c.) { XXf.d.d.4.$.9 7 7 8 %.w.;.H P.(.(.(.(.(.(.(.(.(.(.(.(.(.(.(.(.(.(.(.(.(.(.(.(.",
"aX{.[.`.`.).).).).).).).).).).).).(.~.| - n.b.( w.d.*.u e +.O.+.r e 8 u d | (.(.(.(.(.(.(.(.(.(.(.(.(.(.(.(.(.(.(.(.(.(.(.(.(.(.",
"aX{.[.`.`.).).).).).).).).).).).).(.b.- c.B.b.{ d.$.e 7 7 r +.+.+.i 9 2 S (.(.(.(.(.(.(.(.(.(.(.(.(.(.(.(.(.(.(.(.(.(.(.(.(.(.(.",
"aX{.[.`.`.).).).).).).).).).).).).(.b.& n.B.v.6.%X-X-X|.t.g +.+.+.+.9 l (.(.~.K.G.| x j j j m b.H.H.P.(.(.(.(.(.(.(.(.(.(.(.(.(.",
"aX{.[.`.`.).).).).).).).).).).).`.(.b.& n.b.{ %XwXgXgXgXwX-X$.@.@.r * Q.K.S N > > k F U U U A , > > k A / Q.~.(.(.(.(.(.(.(.(.(.",
"aX{.[.`.`.).).).).).).).).).).).).(.b.& n.b.{ OX:X2XdXfXdXwX;X;X;Xt.$ ^ x M M T ^ ) ) ) ) T T ^ ) T Y M c , b b.(.(.(.(.(.(.(.(.",
"aX{.[.`.`.).).).).).).).`.).).).).(.b.& n.b.{ oX+X@X:X:X<X1XdXfX3XE.x x Y ) z.z.v.V.V.V.N.z.z.c.n.| T T T Y A x I Q.(.(.(.(.(.(.",
"aX{.[.`.`.).).).).).).).`.`.).).).(.b.& n.n.[ ,.OX+X@X:X3XwXdXwX2XT.^ ^ ) m.R.T.oXoXoXXXY.R.V.V.V.n.) T T T T Y M N | (.(.(.(.(.",
"aX{.[.`.`.).).).).).).).).`.).).).(.Q.E v B.n.{ XX+X%XwXdXdXdXdXwX>Xq.^ ^ <.XXw.G G G G P w.q.T.I.b.) T T T T ^ z.x.S N ~.(.(.(.",
"aX{.[.`.).).).).).`.).).).).).).).(.(.c.$ z.B.b.,.OX%XwXwXwXdXdXdX3XXX^ T ^ ^ / | l.l.l.) , n q.7.^ ^ } } _ ^ ^ ) B._ & Q.(.(.(.",
"aX{.].K.> N H.).`.`.`.).).).).).~.b.} v M ^ n.B.v.7.%X3XdXdXdXwX3XwX>Xq.^ T T ^ ) ) [ b.b.b.b.b.b.b.n.V.V.B.b.z.^ } ` & Q.).).(.",
"aX{.).z.# ] B S / ~.~.~.~.Q.K.A N v v { 7.7.) z.n.<.q.@X<XwX3X<X1XfXwX&X7.^ ^ z.B.B.V.V.V.V.V.V.V.V.V.V.V.B.n.| ( >.H / ).`.`.`.",
"pX'.).K.l Q n.] W v v l , , v >.( 7.XXXX+XOXw.{ ) ^ ^ ,.T.%X%X%X1X2XwXwX1XE.<.<.x.b.b.b.b.b.b.b.b.b.b.b.z.[ 7.w.P H L.`.].`.`.].",
"sX.X.X.X!.} ~.).^.~.R.I.L.L.L.'.$X$X$X$X$X$X$XW.L.L.L.L.I.#X$X$X$X$X,X,X,X,X$XW.L.L.L.L.L.L.L.L.L.L.L.L.L.I.W.E.o.'. X X X'.'.'."
};
