/* XPM */
static char *_a5453e42c9c42d5a4ff1d58bf989bb31aPJhxSIpWgYst9d[] = {
/* columns rows colors chars-per-pixel */
"54 90 89 1 ",
"  c None",
". c #0C0E2A",
"X c #0C0F2A",
"o c #1D192E",
"O c #151A36",
"+ c #281B2F",
"@ c #1C223E",
"# c #20252F",
"$ c #262A30",
"% c #312633",
"& c #352D31",
"* c #343037",
"= c #3D3333",
"- c #3E3D32",
"; c #463736",
": c #513936",
"> c #29432E",
", c #2F4D2F",
"< c #33532F",
"1 c #3D5933",
"2 c #3B602C",
"3 c #484336",
"4 c #406A2D",
"5 c #44702D",
"6 c #576C31",
"7 c #4E7631",
"8 c #374767",
"9 c #624240",
"0 c #6A4841",
"q c #734C44",
"w c #7E4E44",
"e c #755844",
"r c #405273",
"t c #475A7B",
"y c #994D40",
"u c #855A44",
"i c #A15342",
"p c #AA5745",
"a c #B55945",
"s c #BA5E47",
"d c #B25E48",
"f c #95774E",
"g c #AF654C",
"h c #BC6545",
"j c #B76C4E",
"k c #C07050",
"l c #CB7251",
"z c #C57F58",
"x c #D07753",
"c c #738843",
"v c #778E43",
"b c #819447",
"n c #8C9549",
"m c #879948",
"M c #949B4A",
"N c #A6B04F",
"B c #B5B656",
"V c #CE9D47",
"C c #DE9F47",
"Z c #E3A74F",
"A c #CE8A64",
"S c #D6926C",
"D c #DD9971",
"F c #EB9661",
"G c #D4B06C",
"H c #DDB66D",
"J c #EECB72",
"K c #FDD179",
"L c #4E6180",
"P c #5C6E8D",
"I c #64748E",
"U c #657999",
"Y c #787A91",
"T c #6C81A1",
"R c #7388A6",
"E c #798CA9",
"W c #7F8FA8",
"Q c #9B9CAC",
"! c #879AB4",
"~ c #8FA2BC",
"^ c #9EA5B4",
"/ c #A6ABB6",
"( c #AFAFB8",
") c #BAB1B9",
"_ c #96A9C1",
"` c #9CADC3",
"' c #AEB8C8",
"] c #B5BFCD",
"[ c #BBC3D0",
/* pixels */
"                                                      ",
"                                                      ",
"                           ...                        ",
"                       ....gg.                        ",
"                    ...GGGGxx.                        ",
"                  ..nnGKKKKss.                        ",
"                 .nnNNKKKKKaa.                        ",
"                .nNNNNKKKKKaa.                        ",
"                .NNNNNKBBBBaa.                        ",
"                .NNNJJBNNNNaa.                        ",
"                .NJJKKNNNNNaa.                        ",
"                .JKKKKNNNNNaa.                        ",
"                .KKKKKN$$$$aa.                        ",
"                .KKK**$   .aa.                        ",
"                .K**      .aa.                        ",
"                .*   .....>aa>.....                   ",
"                .....22222,aa,22222.....              ",
"           .....222>2555<<4664<<5552>222.....         ",
"      .....2>222555,55<<44v5vv44<<55,555222>2.....    ",
"      .22225,555555,<<445vb5bbv544<<,555555,52222.    ",
"      .55555,555555,4455vbb5bbbv5544,555555,55555.    ",
"      .55555,5555<<,555vbbb5bbbbv555,<<5555,55555.    ",
"      .555<<,55<<44,55vbbbb5bbbbbv55,44<<55,<<555.    ",
"      .<<<44,<<4455,5vbbbbb<bbbbbbv5,5544<<,44<<<.    ",
"      .44455,445555,5771771,17771775,555544,55444.    ",
"      .55555,555555cvvv4vvcccvvv4vvvc555555,55555.    ",
"      .55555,55555vbbbb5bbbbbbbb5bbbbv55555,55555.    ",
"      .55555,5555vbbbbb5bbbbbbbb5bbbbbv5555,55555.    ",
"      .555<<,555vbbbbb7vbbbbbbbbv7bbbbbv555,<<555.    ",
"      .<<<44,55vbbbbbb5bbbbbbbbbb5bbbbbbv55,44<<<.    ",
"      .44455,5vbbbbbbb5bbbbbbbbbb<bbbbbbbv5,55444.    ",
"      .55555,57711177757771111111,171117775,55555.    ",
"      .55555cvvvc,cvvvvvvvc,444ccccvc,cvvvvc55555.    ",
"      .5555vbbbbb4bbbbbbbbb,vvvbbbbbb4bbbbbbv5555.    ",
"      .555vbbbbbb5bbbbbbbbb4bbbbbbbbb5bbbbbbbv555.    ",
"      .55vbbbbbb7vbbbbbbbbb5bbbbbbbbbv7bbbbbbbv55.    ",
"      .5vbbbbbbb5bbbbbbbbbb5bbbbbbbbbb5bbbbbbbbv5.    ",
"      .vbbbbbbbb5bbbbbbbbbb5bbbbbbbbbb5bbbbbbbbbv.    ",
"      .##773eee3-3333333333-7777333333-33eee377##.    ",
"        .55=qqq=============----=========qqq=55.      ",
"        .55=ppp==========================ppp=55.      ",
"        .ff0aaa==000=0000==000=0000==000=aaa0ff.FFF   ",
"        .ddqaaa=0qqq=qqqq=0qqq=qqqq=0qqq=aaaqdd.FFFF  ",
"   FFF F.aaqaaa=qqq;=qqqq=qqqq=qqqq=qqq;=aaaqaa. FFF  ",
"  FFFF  .aaqaaa=;qq0=qqqq0qqq;=qqq;=;qq0=aaaqaa.FF    ",
"  FFF   .aaqaaa=0qqq=qqqq;qqq0=;qq0=0qqq=aaaqaa.FFF   ",
"    FFFF.aaqaaa=qqqq=;qq;=qqqq=0qqq=qqqq=aaaqaa.FFFF  ",
"    FFFF.llqaaa=qqqq=0qq0=qqqq=qqq;=qqqq=aaaqll.FFFF  ",
"   FFFFF.xxqwaw=;;;;=;;;;=;;;;=;;;==;;;;=wawqxx.FFFFF ",
"F FFFFFF.xxpklkjjjjjjHHMMMMMMMMMMHHjjjjjjklkpxx.FFFFFF",
"F  FFFF%.xxaxxxxxxxxxKKNNNNNNNNNNKKxxxxxxxxxaxx.%FFFFF",
"    FFF.PsswsssssssssZZmmmmmmmmmmZZssssssssswssP.FFFFF",
" F  FFF.TaaqaaaaaaaaaCCbbbbbbbbbbCCaaaaaaaaaqaaT.FFFFF",
"FFFFFFF.TaaqaaaaaaaaaCCbbbbbbbbbbCCaaaaaaaaaqaaT.FFFFF",
"FFFFFFF.Taa;aaaaaaaaaCCbbbbbbbbbbCCaaaaaaaaa;aat.FFFFF",
"FFFFFFF.Tw:=:wwwwwwwwCCbbbbbbbbbbCCwwwwwwww:=:w!.FFFFF",
"FFFFFFF.TpiiippppppppCCbbbbbbbbbbCCppppppppiiip_.FFFFF",
"  FFFFF.TaaaaaaaaaaaaCCbbbbbbbbbbCCaaaaaaaaaaaa_.FFFFF",
"  FFFFF.taaaaaaaaaaaaCCbbbbbbbbbbCCaaaaaaaaaaaa_.FFFFF",
"  FFFFF.!aaaaaaaaaaaaCCbbbbbbbbbbCCaaaaaaaaaaaa_.FFFFF",
" FFFFFF._QQ++::::++++CCbbbbbbbbbbCC++++::::++QQ_.FFFFF",
"FFFFFFF.___8.0000.88.CCbbbbbbbbbbCC.88.0000.8RRR.FFFFF",
"FFFFFFF.___r.qqqq.rr.CCbbbbbbbbbbCC.rr.qqqq.r'''.FFFFF",
"FFFFFFF.___r.pppp.OO.CCbbbbbbbbbbCC.OO.pppp.r[[[.FFFFF",
"FFFFFFF.___r.aaaa&99.CCbbbbbbbbbbCC.99&aaaa.r[[[.FFFFF",
"FFFFFFF.RRRr.aaaa=qq9CCbbbbbbbbbbCC9qq=aaaa.r[[[.FFFFF",
"FFFFFFF.'''r.aaaa0ppqCCVbbbbbbbbVCCqpp0aaaa.r[[[.FFFFF",
"FFFFFF%8[[[r.aaaaqaapuCCVVbbbbVVCCupaaqaaaa.r[[[.FFFFF",
"FFFFFF.r[[[Oyaaaao+aaquCCCVbbVCCCuqaa+oaaaayO``E.FFFFF",
"FFFFFF.r[[[.aaaaa.8++oquuCCVVCCuuqo++8.aaaaa.]]'.FFFFF",
"FFFFF%8r[[[.aaaa+8r888ooohCCCChooo888r8+aaaa.[[[.FFFFF",
"F%%FF.rr[[[.aaaa.rrrrr...ahCCha...rrrrr.aaaa.[[[.FFFFF",
"%WW%%.rrE``.aaaa.rrOOO999aahhaa999OOOrr.aaaa.[[[.FFF  ",
" R_WP.UU']].aaaa.OO999qqqaaaaaaqqq999OO.aaaa.[[[.FFF  ",
"  DDS.TT[[[.aaaa&99qqqpppaaaaaapppqqq99&aaaa.[[[.  F  ",
" FFFF.TT[[[.aaaa=qqpppaaaa++++aaaapppqq=aaaa.``E.  FF ",
" FFFF.TT[[[P))))/(()Y)))))^^^^Y))))))((I))))^]]'.FFFFF",
"  FFF.TT[[[~[[[[[[[[~[[[[[[[[[~[[[[[[[[~[[[[[[[[P%  FF",
"  FFF.@@[[[_[[[[[[[[_[[[[[[[[[_[[[[[[[[_[[[[[[[[T.   F",
"   FFzz.```R````````R`````````R````````R````````T.    ",
"    FFF.___T________T_________T________T________T.    ",
"    FFF.___T________T_________T________T________T.  FF",
"     FF.___T________T_________T________t________T.F FF",
"      F.RRRTRRRLLLRRtRRRRRRRRRTRRRRRRRLrLRRRRRRRT.    ",
"    FF .~~~~~~~!r!~~!~~~~T'''''~~~~T~~!!!~~~T~~~~.    ",
"    FFF.________U________T`````____T________T____.    ",
"     FF.________T________t_________T________T____.    ",
"       .________T________r_________T________T____.    ",
"            DDDDS   DDDDDr_____DDD   DD   DD          ",
"              FFF    FFFFADDD  F      FFFF            "
};
