/* XPM */
static char *_7cc45c576c64e0d8def10325e559d81lmewk8qsLUX7ptZw[] = {
/* columns rows colors chars-per-pixel */
"54 90 167 2 ",
"   c #A9AC52",
".  c #A7AD51",
"X  c #A6AE50",
"o  c #A6AF51",
"O  c #A7AF51",
"+  c #A7AF50",
"@  c #A7AF4F",
"#  c #262930",
"$  c #AF654C",
"%  c #0C0F2A",
"&  c #D4B06C",
"*  c #D07753",
"=  c #8C9549",
"-  c #FDD179",
";  c #BA5E47",
":  c #A6B04F",
">  c #B55945",
",  c #B5B656",
"<  c #EECB72",
"1  c #262A30",
"2  c #343037",
"3  c #8D9449",
"4  c #29432E",
"5  c #3B602C",
"6  c #2F4D2F",
"7  c #262931",
"8  c #44702D",
"9  c #33532F",
"0  c #406A2D",
"q  c #576C31",
"w  c #778E43",
"e  c #A7AC51",
"r  c #819447",
"t  c #A8AB51",
"y  c #A6AC50",
"u  c #4E7631",
"i  c #3D5933",
"p  c #738843",
"a  c #B0B05A",
"s  c #AAB052",
"d  c #A9AE51",
"f  c #A9AC51",
"g  c #B1B15A",
"h  c #ABB152",
"j  c #AAAE52",
"k  c #B1B15B",
"l  c #ABB153",
"z  c #ACB254",
"x  c #B2B25C",
"c  c #ACB253",
"v  c #B2B25B",
"b  c #B2B35B",
"n  c #ACB252",
"m  c #20252F",
"M  c #484336",
"N  c #755844",
"B  c #3E3D32",
"V  c #8C944A",
"C  c #3D3333",
"Z  c #734C44",
"A  c #AA5745",
"S  c #95774E",
"D  c #6A4841",
"F  c #DF9A5E",
"G  c #B25E48",
"H  c #EB9661",
"J  c #E09A5E",
"K  c #463736",
"L  c #B2AA52",
"P  c #E09B5E",
"I  c #B1AA53",
"U  c #B2A953",
"Y  c #B6AD54",
"T  c #B4AA54",
"R  c #CB7251",
"E  c #B2B25A",
"W  c #7E4E44",
"Q  c #B1B159",
"!  c #C07050",
"~  c #B76C4E",
"^  c #DDB66D",
"/  c #949B4A",
"(  c #B5AC53",
")  c #312633",
"_  c #ABB151",
"`  c #B3A953",
"'  c #5C6E8D",
"]  c #E3A74F",
"[  c #879948",
"{  c #E19B60",
"}  c #A9AD51",
"|  c #6C81A1",
" . c #DE9F47",
".. c #475A7B",
"X. c #513936",
"o. c #879AB4",
"O. c #A15342",
"+. c #96A9C1",
"@. c #BAAC5A",
"#. c #9B9CAC",
"$. c #281B2F",
"%. c #374767",
"&. c #7388A6",
"*. c #405273",
"=. c #AEB8C8",
"-. c #151A36",
";. c #BBC3D0",
":. c #352D31",
">. c #624240",
",. c #CE9D47",
"<. c #855A44",
"1. c #994D40",
"2. c #1D192E",
"3. c #9CADC3",
"4. c #798CA9",
"5. c #B5BFCD",
"6. c #BC6545",
"7. c #7F8FA8",
"8. c #657999",
"9. c #A6AB67",
"0. c #DD9971",
"q. c #D6926C",
"w. c #BAB1B9",
"e. c #A6ABB6",
"r. c #AFAFB8",
"t. c #787A91",
"y. c #9EA5B4",
"u. c #64748E",
"i. c #BBAE5C",
"p. c #8FA2BC",
"a. c #1C223E",
"s. c #C57F58",
"d. c #B3A854",
"f. c #4E6180",
"g. c #B1AA52",
"h. c #B2B35A",
"j. c #A9AF52",
"k. c #A8AD52",
"l. c #8D944A",
"z. c #A5AD63",
"x. c #A4AD63",
"c. c #A4AD62",
"v. c #9DA75D",
"b. c #AEAF5B",
"n. c #A8B053",
"m. c #A5B051",
"M. c #A4B14F",
"N. c #A5B050",
"B. c #A7B051",
"V. c #A9B052",
"C. c #ABB052",
"Z. c #ADAE52",
"A. c #ABAE51",
"S. c #AAAE51",
"D. c #B3AA52",
"F. c #B1AB52",
"G. c #A8B050",
"H. c #B2AB52",
"J. c #CE8A64",
"K. c #A5AE62",
"L. c #B3AB52",
"P. c #A8AF51",
"I. c #A8B051",
"U. c #A8B052",
"Y. c #A9B053",
"T. c #A8AF53",
"R. c #A8AF52",
/* pixels */
"  . X o O O O O O O O + + @ @ @ @ @ @ @ @ @ @ @ @ @ @ @ @ @ @ @ @ @ @ @ @ @ @ @ @ @ @ @ @ @ @ @ @ @ @ @ @ @ ",
"  . X o O O O O O O O + + @ @ @ @ @ @ @ @ @ @ @ @ @ @ @ @ @ @ @ @ @ @ @ @ @ @ @ @ @ @ @ @ @ @ @ @ @ @ @ @ @ ",
"  . X o O O O O O O O + + @ @ @ @ @ @ @ @ @ @ @ @ @ # # # @ @ @ @ @ @ @ @ @ @ @ @ @ @ @ @ @ @ @ @ @ @ @ @ @ ",
"  . X o O O O O O O O + + @ @ @ @ @ @ @ @ @ # # # # $ $ % @ @ @ @ @ @ @ @ @ @ @ @ @ @ @ @ @ @ @ @ @ @ @ @ @ ",
"  . X o O O O O O O O + + @ @ @ @ @ @ # # # & & & & * * % @ @ @ @ @ @ @ @ @ @ @ @ @ @ @ @ @ @ @ @ @ @ @ @ @ ",
"  . X o O O O O O O O + + @ @ @ @ # # = = & - - - - ; ; % @ @ @ @ @ @ @ @ @ @ @ @ @ @ @ @ @ @ @ @ @ @ @ @ @ ",
"  . X o O O O O O O O + + @ @ @ # = = : : - - - - - > > % @ @ @ @ @ @ @ @ @ @ @ @ @ @ @ @ @ @ @ @ @ @ @ @ @ ",
"  . X o O O O O O O O + + @ @ # = : : : : - - - - - > > % @ @ @ @ @ @ @ @ @ @ @ @ @ @ @ @ @ @ @ @ @ @ @ @ @ ",
"  . X o O O O O O O O + + @ @ % : : : : : - , , , , > > % @ @ @ @ @ @ @ @ @ @ @ @ @ @ @ @ @ @ @ @ @ @ @ @ @ ",
"  . X o O O O O O O O + + @ @ % : : : < < , : : : : > > % @ @ @ @ @ @ @ @ @ @ @ @ @ @ @ @ @ @ @ @ @ @ @ @ @ ",
"  . X o O O O O O O O + + @ @ % : < < - - : : : : : > > % @ @ @ @ @ @ @ @ @ @ @ @ @ @ @ @ @ @ @ @ @ @ @ @ @ ",
"  . X o O O O O O O O + + @ @ % < - - - - : : : : : > > % @ @ @ @ @ @ @ @ @ @ @ @ @ @ @ @ @ @ @ @ @ @ @ @ @ ",
"  . X o O O O O O O O + + @ @ % - - - - - : 1 1 1 1 > > % @ @ @ @ @ @ @ @ @ @ @ @ @ @ @ @ @ @ @ @ @ @ @ @ @ ",
"  . X o O O O O O O O + + @ @ % - - - 2 2 1 3 3 3 % > > % @ @ @ @ @ @ @ @ @ @ @ @ @ @ @ @ @ @ @ @ @ @ @ @ @ ",
"  . X o O O O O O O O + + @ @ % - 2 2 3 3 3 @ @ @ % > > % @ @ @ @ @ @ @ @ @ @ @ @ @ @ @ @ @ @ @ @ @ @ @ @ @ ",
"  . X o O O O O O O O + + @ @ % 2 3 3 @ # # # # # 4 > > 4 # # # # # @ @ @ @ @ @ @ @ @ @ @ @ @ @ @ @ @ @ @ @ ",
"  . X o O O O O O O O + + @ @ % % # # # 5 5 5 5 5 6 > > 6 5 5 5 5 5 # # # # # @ @ @ @ @ @ @ @ @ @ @ @ @ @ @ ",
"  . X o O O O O O O 7 # # # # 5 5 5 4 5 8 8 8 9 9 0 q q 0 9 9 8 8 8 5 4 5 5 5 # # # # # @ @ @ @ @ @ @ @ @ @ ",
"  . X o O 7 7 7 7 7 5 4 5 5 5 8 8 8 6 8 8 9 9 0 0 w 8 w w 0 0 9 9 8 8 6 8 8 8 5 5 5 4 5 # # # # # @ @ @ @ @ ",
"  e X o O % 5 5 5 5 8 6 8 8 8 8 8 8 6 9 9 0 0 8 w r 8 r r w 8 0 0 9 9 6 8 8 8 8 8 8 6 8 5 5 5 5 % @ @ @ @ @ ",
"t y X o O % 8 8 8 8 8 6 8 8 8 8 8 8 6 0 0 8 8 w r r 8 r r r w 8 8 0 0 6 8 8 8 8 8 8 6 8 8 8 8 8 % @ @ @ @ @ ",
"t y X o O % 8 8 8 8 8 6 8 8 8 8 9 9 6 8 8 8 w r r r 8 r r r r w 8 8 8 6 9 9 8 8 8 8 6 8 8 8 8 8 % @ @ @ @ @ ",
"t y X o O % 8 8 8 9 9 6 8 8 9 9 0 0 6 8 8 w r r r r 8 r r r r r w 8 8 6 0 0 9 9 8 8 6 9 9 8 8 8 % @ @ @ @ @ ",
"t y X o O % 9 9 9 0 0 6 9 9 0 0 8 8 6 8 w r r r r r 9 r r r r r r w 8 6 8 8 0 0 9 9 6 0 0 9 9 9 % @ @ @ @ @ ",
"t y X o O % 0 0 0 8 8 6 0 0 8 8 8 8 6 8 u u i u u i 6 i u u u i u u 8 6 8 8 8 8 0 0 6 8 8 0 0 0 % @ @ @ @ @ ",
"t y X o O % 8 8 8 8 8 6 8 8 8 8 8 8 p w w w 0 w w p p p w w w 0 w w w p 8 8 8 8 8 8 6 8 8 8 8 8 % @ @ @ @ @ ",
"t y X o O % 8 8 8 8 8 6 8 8 8 8 8 w r r r r 8 r r r r r r r r 8 r r r r w 8 8 8 8 8 6 8 8 8 8 8 % @ @ @ @ @ ",
"t y X o O % 8 8 8 8 8 6 8 8 8 8 w r r r r r 8 r r r r r r r r 8 r r r r r w 8 8 8 8 6 8 8 8 8 8 % @ @ @ @ @ ",
"a s d f . % 8 8 8 9 9 6 8 8 8 w r r r r r u w r r r r r r r r w u r r r r r w 8 8 8 6 9 9 8 8 8 % + + + + + ",
"g h j   . % 9 9 9 0 0 6 8 8 w r r r r r r 8 r r r r r r r r r r 8 r r r r r r w 8 8 6 0 0 9 9 9 % @ @ @ @ @ ",
"k l j   . % 0 0 0 8 8 6 8 w r r r r r r r 8 r r r r r r r r r r 9 r r r r r r r w 8 6 8 8 0 0 0 % @ @ @ @ @ ",
"k z j   . % 8 8 8 8 8 6 8 u u i i i u u u 8 u u u i i i i i i i 6 i u i i i u u u 8 6 8 8 8 8 8 % @ @ @ @ @ ",
"x c j   . % 8 8 8 8 8 p w w w p 6 p w w w w w w w p 6 0 0 0 p p p p w p 6 p w w w w p 8 8 8 8 8 % @ @ @ @ @ ",
"v c j   . % 8 8 8 8 w r r r r r 0 r r r r r r r r r 6 w w w r r r r r r 0 r r r r r r w 8 8 8 8 % @ @ @ @ @ ",
"b n j   . % 8 8 8 w r r r r r r 8 r r r r r r r r r 0 r r r r r r r r r 8 r r r r r r r w 8 8 8 % @ @ @ @ @ ",
"b n j   . % 8 8 w r r r r r r u w r r r r r r r r r 8 r r r r r r r r r w u r r r r r r r w 8 8 % @ @ @ @ @ ",
"b n j   . % 8 w r r r r r r r 8 r r r r r r r r r r 8 r r r r r r r r r r 8 r r r r r r r r w 8 % @ @ @ @ @ ",
"b n j   . % w r r r r r r r r 8 r r r r r r r r r r 8 r r r r r r r r r r 8 r r r r r r r r r w % @ @ @ @ @ ",
"b n j   . % m m u u M N N N M B M M M M M M M M M M B u u u u M M M M M M B M M N N N M u u m m % @ @ @ @ @ ",
"b n j   . V V % 8 8 C Z Z Z C C C C C C C C C C C C C B B B B C C C C C C C C C Z Z Z C 8 8 % 3 3 @ @ @ @ @ ",
"b n j   . X o % 8 8 C A A A C C C C C C C C C C C C C C C C C C C C C C C C C C A A A C 8 8 % @ @ @ @ @ @ @ ",
"b n j   . X o % S S D > > > C C D D D C D D D D C C D D D C D D D D C C D D D C > > > D S S % F F F @ @ @ @ ",
"b n j   . X o % G G Z > > > C D Z Z Z C Z Z Z Z C D Z Z Z C Z Z Z Z C D Z Z Z C > > > Z G G % H H H F @ @ @ ",
"b n J J F X F % > > Z > > > C Z Z Z K C Z Z Z Z C Z Z Z Z C Z Z Z Z C Z Z Z K C > > > Z > > % L H H H @ @ @ ",
"b P H H H X I % > > Z > > > C K Z Z D C Z Z Z Z D Z Z Z K C Z Z Z K C K Z Z D C > > > Z > > % F H L L @ @ @ ",
"b H H H U X o % > > Z > > > C D Z Z Z C Z Z Z Z K Z Z Z D C K Z Z D C D Z Z Z C > > > Z > > % H H F @ @ @ @ ",
"b Y T H F F F % > > Z > > > C Z Z Z Z C K Z Z K C Z Z Z Z C D Z Z Z C Z Z Z Z C > > > Z > > % H H H F @ @ @ ",
"b n j H H H H % R R Z > > > C Z Z Z Z C D Z Z D C Z Z Z Z C Z Z Z K C Z Z Z Z C > > > Z R R % H H H H @ @ @ ",
"E n J H H H H % * * Z W > W C K K K K C K K K K C K K K K C K K K C C K K K K C W > W Z * * % H H H H F @ @ ",
"Q P H H H H H % * * A ! R ! ~ ~ ~ ~ ~ ~ ^ ^ / / / / / / / / / / ^ ^ ~ ~ ~ ~ ~ ~ ! R ! A * * % H H H H H F @ ",
"Q ( H H H H ) % * * > * * * * * * * * * - - : : : : : : : : : : - - * * * * * * * * * > * * % ) H H H H H @ ",
"Q _ ` H H H % ' ; ; W ; ; ; ; ; ; ; ; ; ] ] [ [ [ [ [ [ [ [ [ [ ] ] ; ; ; ; ; ; ; ; ; W ; ; ' % H H H H H @ ",
"{ _ } H H H % | > > Z > > > > > > > > >  . .r r r r r r r r r r  . .> > > > > > > > > Z > > | % H H H H H @ ",
"H P J H H H % | > > Z > > > > > > > > >  . .r r r r r r r r r r  . .> > > > > > > > > Z > > | % H H H H H @ ",
"H H H H H H % | > > K > > > > > > > > >  . .r r r r r r r r r r  . .> > > > > > > > > K > > ..% H H H H H @ ",
"H H H H H H % | W X.C X.W W W W W W W W  . .r r r r r r r r r r  . .W W W W W W W W X.C X.W o.% H H H H H @ ",
"H H H H H H % | A O.O.O.A A A A A A A A  . .r r r r r r r r r r  . .A A A A A A A A O.O.O.A +.% H H H H H @ ",
"@.H H H H H % | > > > > > > > > > > > >  . .r r r r r r r r r r  . .> > > > > > > > > > > > +.% H H H H H @ ",
"Q H H H H H % ..> > > > > > > > > > > >  . .r r r r r r r r r r  . .> > > > > > > > > > > > +.% H H H H H @ ",
"Q H H H H H % o.> > > > > > > > > > > >  . .r r r r r r r r r r  . .> > > > > > > > > > > > +.% H H H H H @ ",
"{ H H H H H % +.#.#.$.$.X.X.X.X.$.$.$.$. . .r r r r r r r r r r  . .$.$.$.$.X.X.X.X.$.$.#.#.+.% H H H H H @ ",
"H H H H H H % +.+.+.%.% D D D D % %.%.%  . .r r r r r r r r r r  . .% %.%.% D D D D % %.&.&.&.% H H H H H @ ",
"H H H H H H % +.+.+.*.% Z Z Z Z % *.*.%  . .r r r r r r r r r r  . .% *.*.% Z Z Z Z % *.=.=.=.% H H H H H @ ",
"H H H H H H % +.+.+.*.% A A A A % -.-.%  . .r r r r r r r r r r  . .% -.-.% A A A A % *.;.;.;.% H H H H H @ ",
"H H H H H H % +.+.+.*.% > > > > :.>.>.%  . .r r r r r r r r r r  . .% >.>.:.> > > > % *.;.;.;.% H H H H H @ ",
"H H H H H H % &.&.&.*.% > > > > C Z Z >. . .r r r r r r r r r r  . .>.Z Z C > > > > % *.;.;.;.% H H H H H @ ",
"H H H H H H % =.=.=.*.% > > > > D A A Z  . .,.r r r r r r r r ,. . .Z A A D > > > > % *.;.;.;.% H H H H H @ ",
"H H H H H ) %.;.;.;.*.% > > > > Z > > A <. . .,.,.r r r r ,.,. . .<.A > > Z > > > > % *.;.;.;.% H H H H H @ ",
"H H H H H % *.;.;.;.-.1.> > > > 2.$.> > Z <. . . .,.r r ,. . . .<.Z > > $.2.> > > > 1.-.3.3.4.% H H H H H @ ",
"H H H H H % *.;.;.;.% > > > > > % %.$.$.2.Z <.<. . .,.,. . .<.<.Z 2.$.$.%.% > > > > > % 5.5.=.% H H H H H @ ",
"H H H H ) %.*.;.;.;.% > > > > $.%.*.%.%.%.2.2.2.6. . . . .6.2.2.2.%.%.%.*.%.$.> > > > % ;.;.;.% H H H H H @ ",
") ) H H % *.*.;.;.;.% > > > > % *.*.*.*.*.% % % > 6. . .6.> % % % *.*.*.*.*.% > > > > % ;.;.;.% H H H H H @ ",
"7.7.) ) % *.*.4.3.3.% > > > > % *.*.-.-.-.>.>.>.> > 6.6.> > >.>.>.-.-.-.*.*.% > > > > % ;.;.;.% H H H L L @ ",
"&.+.7.' % 8.8.=.5.5.% > > > > % -.-.>.>.>.Z Z Z > > > > > > Z Z Z >.>.>.-.-.% > > > > % ;.;.;.% H H H @ @ @ ",
"9.0.0.q.% | | ;.;.;.% > > > > :.>.>.Z Z Z A A A > > > > > > A A A Z Z Z >.>.:.> > > > % ;.;.;.% L L H @ @ @ ",
"{ H H H % | | ;.;.;.% > > > > C Z Z A A A > > > > $.$.$.$.> > > > A A A Z Z C > > > > % 3.3.4.% @ @ H F @ @ ",
"H H H H % | | ;.;.;.' w.w.w.w.e.r.r.w.t.w.w.w.w.w.y.y.y.y.t.w.w.w.w.w.w.r.r.u.w.w.w.w.y.5.5.=.% F F H H F @ ",
"i.H H H % | | ;.;.;.p.;.;.;.;.;.;.;.;.p.;.;.;.;.;.;.;.;.;.p.;.;.;.;.;.;.;.;.p.;.;.;.;.;.;.;.;.' ) L L H H @ ",
"b H H H % a.a.;.;.;.+.;.;.;.;.;.;.;.;.+.;.;.;.;.;.;.;.;.;.+.;.;.;.;.;.;.;.;.+.;.;.;.;.;.;.;.;.| % @ @ L H @ ",
"b Y H H s.s.% 3.3.3.&.3.3.3.3.3.3.3.3.&.3.3.3.3.3.3.3.3.3.&.3.3.3.3.3.3.3.3.&.3.3.3.3.3.3.3.3.| % @ @ @ L @ ",
"b n T H H H % +.+.+.| +.+.+.+.+.+.+.+.| +.+.+.+.+.+.+.+.+.| +.+.+.+.+.+.+.+.| +.+.+.+.+.+.+.+.| % @ @ @ @ @ ",
"b n j H H H % +.+.+.| +.+.+.+.+.+.+.+.| +.+.+.+.+.+.+.+.+.| +.+.+.+.+.+.+.+.| +.+.+.+.+.+.+.+.| % @ @ F F @ ",
"b n j d.H H % +.+.+.| +.+.+.+.+.+.+.+.| +.+.+.+.+.+.+.+.+.| +.+.+.+.+.+.+.+...+.+.+.+.+.+.+.+.| % F @ H H @ ",
"b n j   U H % &.&.&.| &.&.&.f.f.f.&.&...&.&.&.&.&.&.&.&.&.| &.&.&.&.&.&.&.f.*.f.&.&.&.&.&.&.&.| % L @ L L @ ",
"b n j J F g.% p.p.p.p.p.p.p.o.*.o.p.p.o.p.p.p.p.| =.=.=.=.=.p.p.p.p.| p.p.o.o.o.p.p.p.| p.p.p.p.% @ @ @ @ @ ",
"b n j H H F % +.+.+.+.+.+.+.+.8.+.+.+.+.+.+.+.+.| 3.3.3.3.3.+.+.+.+.| +.+.+.+.+.+.+.+.| +.+.+.+.% @ @ @ @ @ ",
"h.n j d.H H % +.+.+.+.+.+.+.+.| +.+.+.+.+.+.+.+...+.+.+.+.+.+.+.+.+.| +.+.+.+.+.+.+.+.| +.+.+.+.% @ @ @ @ @ ",
"h.n j   U g.% +.+.+.+.+.+.+.+.| +.+.+.+.+.+.+.+.*.+.+.+.+.+.+.+.+.+.| +.+.+.+.+.+.+.+.| +.+.+.+.% @ @ @ @ @ ",
"b c j.k.. X l.z.z.z.x.0.0.0.0.q.c.c.c.0.0.0.0.0.*.+.+.+.+.+.0.0.0.c.v.c.0.0.c.c.c.0.0.v.c.c.c.c.3 @ + + + + ",
"b.n.m.M.N.B.V.C.Z.A.S.D.F.H H H G.G.G.H.H H H H J.0.0.0.K.K.H L.L.G.G.G.L.H J J J D.L P.P.I.U.U.Y.V.n.T.R.R."
};
