/* XPM */
static char *ad48a963b60941a2c024fc8eb198d5a6tYiA72OhvK64x8en[] = {
/* columns rows colors chars-per-pixel */
"64 64 228 2 ",
"   c #14141C",
".  c #1F1722",
"X  c #191D2D",
"o  c #16172B",
"O  c #181A33",
"+  c #241A23",
"@  c #2B1D2A",
"#  c #221C32",
"$  c #351F2D",
"%  c #1C203B",
"&  c #2E2128",
"*  c #282427",
"=  c #36202D",
"-  c #37252A",
";  c #2C3629",
":  c #313427",
">  c #272534",
",  c #312532",
"<  c #382B3A",
"1  c #3D3333",
"2  c #3A3937",
"3  c #2F3433",
"4  c #2E1818",
"5  c #4A2A32",
"6  c #472734",
"7  c #542E38",
"8  c #4B3A35",
"9  c #483838",
"0  c #5B3239",
"q  c #543D3B",
"w  c #593838",
"e  c #473429",
"r  c #63363C",
"t  c #64393C",
"y  c #2D492D",
"u  c #324B2D",
"i  c #32462F",
"p  c #33532E",
"a  c #36592D",
"s  c #395E2D",
"d  c #3F522D",
"f  c #3C4834",
"g  c #3A5131",
"h  c #3D642E",
"j  c #3F682D",
"k  c #3F6230",
"l  c #4B4637",
"z  c #474835",
"x  c #5C413C",
"c  c #485B36",
"v  c #575D3C",
"b  c #62443E",
"n  c #6C423C",
"m  c #74513E",
"M  c #426D2D",
"N  c #43642F",
"B  c #44712D",
"V  c #49732F",
"C  c #4A6734",
"Z  c #56673A",
"A  c #4C7431",
"S  c #537A33",
"D  c #5A7B37",
"F  c #62673C",
"G  c #66743B",
"H  c #77773C",
"J  c #373846",
"K  c #2C3958",
"L  c #363853",
"P  c #2C2F47",
"I  c #192547",
"U  c #533945",
"Y  c #683A41",
"T  c #713D45",
"R  c #7E3F45",
"E  c #3A4C6C",
"W  c #354565",
"Q  c #3E5070",
"!  c #5D5A41",
"~  c #694743",
"^  c #744146",
"/  c #724C44",
"(  c #7B4D44",
")  c #7C464A",
"_  c #774B4A",
"`  c #735745",
"'  c #697140",
"]  c #767C44",
"[  c #716946",
"{  c #435677",
"}  c #454F6C",
"|  c #645B65",
" . c #716463",
".. c #833A3C",
"X. c #86463D",
"o. c #904C3F",
"O. c #AA7C3C",
"+. c #B7553E",
"@. c #824A4D",
"#. c #884E43",
"$. c #954D41",
"%. c #875347",
"&. c #925245",
"*. c #9B5647",
"=. c #A14E42",
"-. c #A65544",
";. c #AB5644",
":. c #AE5845",
">. c #A55847",
",. c #B25644",
"<. c #B45945",
"1. c #B95A45",
"2. c #B45D4A",
"3. c #906A47",
"4. c #A66745",
"5. c #BB614B",
"6. c #B8684A",
"7. c #A66D50",
"8. c #BF6F50",
"9. c #B0734D",
"0. c #875F60",
"q. c #8D6B72",
"w. c #A96C64",
"e. c #C1654A",
"r. c #C46D4A",
"t. c #C9774B",
"y. c #C77451",
"u. c #D17753",
"i. c #5F8038",
"p. c #62823A",
"a. c #6B873E",
"s. c #738C42",
"d. c #7B8E45",
"f. c #798344",
"g. c #7D9145",
"h. c #6D8440",
"j. c #7E8979",
"k. c #868E48",
"l. c #819447",
"z. c #8D9449",
"x. c #839548",
"c. c #90964B",
"v. c #959A4B",
"b. c #AF9355",
"n. c #9BA34D",
"m. c #A7AF4F",
"M. c #A9AE4F",
"N. c #A8B14F",
"B. c #A5B04F",
"V. c #A7AE51",
"C. c #AAAD52",
"Z. c #A9A750",
"A. c #B3AB54",
"S. c #BBA856",
"D. c #ABB251",
"F. c #A8B053",
"G. c #B2B25B",
"H. c #B4B556",
"J. c #B4856F",
"K. c #DB9E47",
"L. c #D59C46",
"P. c #D49E5B",
"I. c #DB9C5D",
"U. c #D6935C",
"Y. c #CB9156",
"T. c #E0905E",
"R. c #E29A5F",
"E. c #E28F5F",
"W. c #DFA047",
"Q. c #CBA25B",
"!. c #C3A558",
"~. c #D3A15E",
"^. c #E2A44B",
"/. c #DD9B61",
"(. c #EB9661",
"). c #E49961",
"_. c #E99861",
"`. c #F19962",
"'. c #D1A869",
"]. c #E5BC70",
"[. c #D4C266",
"{. c #ECC872",
"}. c #FFD27A",
"|. c #F9D077",
" X c #EAC970",
".X c #4A5F80",
"XX c #576A88",
"oX c #546989",
"OX c #65748D",
"+X c #667895",
"@X c #70788D",
"#X c #7A8699",
"$X c #6D819E",
"%X c #768AA7",
"&X c #7E92AE",
"*X c #7490A8",
"=X c #7F94B0",
"-X c #6D85A3",
";X c #8F918E",
":X c #A98F91",
">X c #9DAB99",
",X c #99A796",
"<X c #9CAD83",
"1X c #A7A69B",
"2X c #B5A29E",
"3X c #A8A984",
"4X c #969CAB",
"5X c #879AB5",
"6X c #8C97AA",
"7X c #8EA2BB",
"8X c #93A5BE",
"9X c #97A7BA",
"0X c #A7ABB7",
"qX c #B9ACB2",
"wX c #ABA5AA",
"eX c #A49EA9",
"rX c #C59F8C",
"tX c #96AAC2",
"yX c #9BACC3",
"uX c #95A9C3",
"iX c #A2AEC1",
"pX c #A2B1C5",
"aX c #ABB7C9",
"sX c #B3BECD",
"dX c #BCC4D1",
"fX c #BBC5D2",
"gX c #B8C1CF",
"hX c #C1C9D5",
/* pixels */
"C.V.V.V.V.V.V.V.V.V.V.V.V.V.V.m.m.m.m.m.m.m.m.m.m.m.m.m.m.m.N.F.F.F.N.m.m.m.m.m.m.m.m.m.m.m.m.m.m.m.m.m.m.m.m.m.m.m.m.m.m.m.m.m.",
"C.V.V.V.V.V.V.V.V.V.V.V.V.V.V.m.m.m.m.m.m.m.N.N.N.N.m.m.m.m.v.F F Z z.F.m.m.m.m.m.m.m.m.m.m.m.m.m.m.m.m.m.m.m.m.m.m.m.m.m.m.m.m.",
"C.V.V.V.V.V.V.V.V.V.V.V.V.V.V.m.m.m.m.m.F.D.n.z.z.k.! ! ! ! ` *.*.@ ' D.m.m.m.m.m.m.m.m.m.m.m.m.m.m.m.m.m.m.m.m.m.m.m.m.m.m.m.m.",
"C.V.V.V.V.V.V.V.V.V.V.V.V.V.V.m.m.m.N.m.] ' F v v [ '.].].].'.r.r., ' D.V.m.m.m.m.m.m.m.m.m.m.m.m.m.m.m.m.m.m.m.m.m.m.m.m.m.m.m.",
"C.V.V.V.V.V.V.V.V.V.V.V.V.V.V.m.m.m.v.Z ' ' k.m.D.{.}.}.}.}.].1.,.$ ' D.m.m.m.m.m.m.m.m.m.m.m.m.m.m.m.m.m.m.m.m.m.m.m.m.m.m.m.m.",
"C.V.V.V.V.V.V.V.V.V.V.V.V.V.V.m.F.k.2 k.m.N.N.m.H.|. X X X X'.<.,.$ ' D.m.m.m.m.m.m.m.m.m.m.m.m.m.m.m.m.m.m.m.m.m.m.m.m.m.m.m.m.",
"C.V.V.V.V.V.V.V.V.V.V.V.V.V.V.m.D.f.> n.F.V.H.[.[.[.H.D.D.D.Z.<.,.$ ' D.m.m.m.m.m.m.m.m.m.m.m.m.m.m.m.m.m.m.m.m.m.m.m.m.m.m.m.m.",
"C.V.V.V.V.V.V.V.V.V.V.V.V.V.V.m.D.f.> C.[. X{.}.{.F.N.F.F.D.Z.<.,.$ ' D.m.m.m.m.m.m.m.m.m.m.m.m.m.m.m.m.m.m.m.m.m.m.m.m.m.m.m.m.",
"C.V.V.V.V.V.V.V.V.V.V.V.V.V.V.m.D.f.> ].}.}.}.}.{.V.] ' ' ' [ <.,.$ ' D.m.m.m.m.m.m.m.m.m.m.m.m.m.m.m.m.m.m.m.m.m.m.m.m.m.m.m.m.",
"C.V.V.V.V.V.V.V.V.V.V.V.V.V.V.m.D.f.> {.{.].b.[ [ v ] ] ] z , ,.,.@ ' H.F.F.F.F.N.m.m.m.m.m.m.m.m.m.m.m.m.m.m.m.m.m.m.m.m.m.m.m.",
"C.V.V.V.V.V.V.V.V.V.V.V.V.V.V.m.D.f.> b.[ ! ] k.Z F ] f.f.c < ,.,.1 c f.f.] f.] n.F.N.N.N.N.N.m.m.m.m.m.m.m.m.m.m.m.m.m.m.m.m.m.",
"C.V.V.V.V.V.F.F.F.F.F.V.V.m.m.m.m.f.o X z v v c u u u u u y z :.:.z y u u u u u c v v v v Z z.m.m.m.m.m.m.F.F.F.F.N.m.m.m.m.m.m.",
"C.V.V.V.V.V.z.k.k.k.z.f.z f f f f f a a a y y h M j j h a h A F G A h a s j j M h y y a a a f f f f f f f.z.k.k.k.z.m.N.N.N.m.m.",
"C.V.V.V.F.c.> ; i i i u h y s h h M B B B a a h h s s j A a.a.V s.g.a.A j s s h h a a B B B M h h s y h u i i i ; > v.F.N.N.m.m.",
"C.V.V.V.F.c.X s M M M M M p h B B B B M M a a h h M V p.d.x.s.A g.l.l.d.p.V M h h a a M M B B B B h p M M M M M s X c.F.m.m.m.m.",
"C.V.V.V.F.c.X s B B M h h p h B M h h s s p s B B D s.g.l.x.s.A g.l.l.l.g.s.D B B s p s s h h M B h u h h M B B s X c.F.m.m.m.m.",
"C.V.V.V.F.c.X p h s h h h p a s h h h M M a a A p.d.g.g.g.g.h.N s.g.g.g.g.g.d.p.A a a M M h h h s a p h h h s h p X c.F.m.m.m.m.",
"C.V.V.V.F.c.X a M j M B M p h j M B B B B N C S i.D C D p.D C c Z D i.i.D C D i.S C N B B B B M j s p M B M j M a X c.F.m.m.m.m.",
"C.V.V.V.F.c.X s B B B B M p h B B B B B D s.g.g.g.d.A a.g.;         G g.a.A d.g.g.g.s.D B B B B B h p M B B B B s X c.F.m.m.m.m.",
"C.V.V.V.F.c.X s B B M M M p h B M B A a.g.l.l.l.l.s.S s.: $ 7 0 0 6 + G s.S s.l.l.l.l.g.a.A B B B h p M M M B B s X c.F.m.m.m.m.",
"G.D.C.C.C.c.X a h h h s s u h B A p.g.l.l.l.l.x.d.S s.: 5 0 0 0 0 0 6 + G s.S d.x.l.l.l.l.d.p.A M h u s s h h h a X c.F.V.V.V.V.",
"G.D.C.C.C.c.X p h h h M M p h S a.g.d.g.d.g.g.g.s.V s.: 5 ^ @.^ 0 0 0 + G s.k s.g.g.g.g.d.g.g.a.S h p M M h h h p X c.F.m.m.m.m.",
"G.D.C.C.C.c.X s B B B B M c A D p.D Z c C D i.i.D S D * Y @.@.@.^ 0 0 + c Z c Z D D C c Z D i.i.D A c M B B B B s X c.F.m.m.m.m.",
"G.D.C.C.C.c.X s B B B V p.d.g.g.g.g.s.k h.g.g.g.g.g.g.:     0 @   5 6 . G d.d.d.g.g.G N d.g.g.g.g.g.d.p.V B B B s X c.F.m.m.m.m.",
"G.D.F.C.C.c.X s B B D s.l.l.l.l.l.l.s.A s.x.l.l.l.l.l.: 4 5 Y 4 5 0 Y @ G l.l.l.l.x.a.S d.l.l.l.l.l.l.l.s.D B B s X c.F.N.N.m.m.",
"G.D.F.C.C.c.X s S a.g.l.l.l.l.l.x.s.S s.l.l.l.l.l.l.l.: ..R T $.=.t Y @ G l.l.l.l.l.l.s.S g.l.l.l.l.l.l.l.g.a.S s X c.F.N.N.m.m.",
"G.D.F.C.C.c.X C s.g.g.g.d.l.l.l.l.a.A d.d.d.d.d.d.d.d.: 5 6 Y T T r + G g.d.d.d.d.d.d.s.A s.d.d.g.g.l.d.g.g.d.s.C X z.F.m.m.m.m.",
"G.D.F.C.C.v.2 z 3 g S A l ` ` ` b z z l l l l l l l l l * 0 T T r + d C c l l l l l l l z l l b ` ` ` l A S g 3 z 2 v.F.m.m.m.m.",
"G.D.F.C.C.V.n.n.2 ; V N 9 #.&.&.n 1 1 1 1 1 1 1 1 1 1 1 1 . = 6 +   : 1 1 1 1 1 1 1 1 1 1 1 1 n &.&.#.9 N V ; 2 n.n.m.m.m.m.m.m.",
"G.D.F.C.V.V.V.V.2 8 3.3.~ ;.<.1.X.1 9 b b b q 9 b b b @   5 6 6 7 6 +   q b b b 9 1 q b b b 9 X.1.<.;.~ 3.3.9 9 I.P.P.S.C.m.m.m.",
"G.D.S.!.!.S.C.S.9 0 5.>.( :.<.1.X.9 ~ / / ~ 8 8 / / & $ Y r 0 Y T T ) ) & w / / 8 q / / / b 9 X.1.<.:.( >.5.0 9 I._.(._.!.N.m.m.",
"G.Q.R._._.I.C.S.9 0 1.-.( :.<.1.X.9 x / / ~ 8 8 / & $ ^ @.^ T ) @.@.^ ) T @ w x 9 9 b / / b 9 X.1.<.:.( -.1.0 9 P._.Q.!.A.m.m.m.",
"G.~.I.R.R.!.S.S.2 0 1.-.( :.<.1.X.9 ~ / / / q 9 ~ & 0 ) @.t ) @.@.@.t ) @.& w ~ 9 q ~ / / / 9 X.1.<.:.( -.1.0 8 (._.R.!.C.m.m.m.",
"G.H.C.Q._._._._.9 r r.6.( ;.<.1.m 9 / / / / q 9 + #X9X0.t ) 6X9X9X0.t ) @.& w w 9 q / / / / 9 m 1.<.;.( 6.r.r 9 (.(.(._.!.N.m.m.",
"G.A.Q.R.(._.(.`.9 n u.8.%.&.2.>.( q b b b b x x * XX7X9X .6X9XtX*XE < 7 ) 7 + l x x b b b b q ( >.2.&.%.8.u.n 9 `._._.(.R.Q.C.m.",
"G.!.R.(._._._.7., n u.y.,.r.y.y.y.8.8.8.8.8.8.Y.8 E +XoX.X.X+X-XE K X = ^ t + b.Y.8.8.8.8.8.8.y.y.y.r.,.y.u.n , 7._.(.(.(._.P.m.",
"G.D.A.P.(.(.T.< K 0.e.5.&.5.e.e.e.e.e.e.e.e.5.u.^.e P K U Y L K K X   = Y ) & b.u.5.e.e.e.e.e.e.e.e.5.&.5.e.0.K < T.(._._.(.I.m.",
").!.S.P.(.(.T., { q.1.-.( :.<.<.<.<.<.<.<.<.,.r.W.L.: 0 ) ^ ) ) 7 . G : 0 ) & O.r.,.<.<.<.<.<.<.<.<.:.( -.1.q.{ , T.(._._.(.I.m.",
"_._._._._.(.T., { q.<.*.b -.,.,.,.,.,.,.,.,.,.6.W.K.: = ^ ^ ) ^ 5 . G : 5 ) & O.r.,.,.,.,.,.,.,.,.<.-.b *.<.q.E , T.(._._.(.I.m.",
"(.(._._._.(.T., { q.X.n q n #.&.&.&.&.&.&.&.#.4.W.K.:   0 T T T 5 . G :   0 @ O.4.#.&.&.&.&.&.&.&.#.n q n X.q.XX, T.(._._.(.I.m.",
"~._.(._._.(.T., { q.:.;.;.;.:.:.:.:.:.:.:.:.:.6.W.e     Y t ) ^ r 6 +     5 + O.6.:.:.:.:.:.:.:.:.;.-.-.-.;.:X+X, T.(._.(.(.I.m.",
"G.I.(._._.(.T., E 0.1.1.1.1.<.1.1.1.1.1.1.1.<.r.W.e   = ^ 7 ^ t 0 } .X> 5 ^ & O.r.<.1.1.1.1.<.<.<.<.1.1.<.+.:X+X, T.(.(.(.(.I.m.",
"!.).(._._.(.T., XX:Xw.w.X.X.o.$.$.$.o.X.X.X.X.4.e 0 @ E U 0 0 0 L ~ t + 0 ) & O.4.X.X.X.X.o.$.$.$.o.X.X.w.w.:XOX, T.(.(.(.(.I.m.",
"_._._._._.(.T., OXyX9X6XL O 9 b x b q X P L % q e 5 + 0 L { .XW ~ @.@.& 0 ) & O.q % L P X q b x b 9 O L #X6X5XXX, T.(.(.(.(.I.m.",
"(._._._._.(.T., OXyXyX5XE O t %.( #./ O K W I 8 K.e   Y ^ L K U ) @.@.r +   O.K.8 I W K O / #.( %.t O Q 7XaXaX@X, T.(._.(.(.I.m.",
"(._._._._.(.T., OXyXtX5XQ O X.<.:.,.*., < < O 8 W.L.: Y @.^ @ 0 ) @.@.t + H K.W.8 O < < , *.,.:.<.X.O { 0XdXhX#X, T.(._._.(.I.m.",
"_._._._._.(.T., XX5X5X%XE O X.1.<.1.-.8 n ( w m W.K.: Y @.^ @ 5 ) @.@.t + H K.W.m w ( ~ 8 -.<.<.1.X.O { 0XdXhX#X, T.(._._.(.I.m.",
"_._._._.(.T.7.P #XsXsX9XQ O X.1.<.<.:./ *.:.*.3.Y.K.e Y @.^ @ 5 Y ) @.7 + O.K.Y.*.*.:.*./ :.<.<.1.X.O { 0XdXhX#X, T.(._._.(.I.m.",
"(.(._._.`.Y.> W 4XhXdX9XL 0 -.<.<.1.-.6 7 $.,.&.( 9.e Y ^ T @ = 7 ) t 6 . O.9.( &.:.$.7 6 -.1.<.<.=.0 P 6XaXpXOX, T.(._._.(.I.m.",
"`.`.(.(.T.7.> E 9XdXdX4X# *.1.<.<.:.X.> K J < < < x & 5 Y r +   0 T r + x m x < < < J K > X.:.<.<.<.*.O 4XgXsX@X, T.(._._.(.I.m.",
"%.%.y.`.9.> E Q 4XdXdX4X# =.1.<.1.o.# E { E E E W O o = Y 7 .   0 T 7 . o O O W E E E { E # o.1.<.1.=.# 9XhXhX#X, U.(._._.(.I.m.",
"OX+X| ~ U O { { %XyXaX6XO =.1.<.1.X.O W E K P P P 9 9 6 7 6 .   = 7 6 . 1 9 9 P P P K E W O X.1.<.1.=.# 4XhXhX#X, E.(.(.P.S.S.m.",
";X1X:X;X| O +X+X9XsXdX4XO =.1.<.1.o.# < < q ~ ~ ~ #.#.& 5 0 + X.- 5 0 + n #.#.~ ~ ~ q < < # o.1.<.1.=.O 4XhXhX#X, Y.P._.!.N.m.m.",
"~.)._.`.7.O +X-XiXdXhX9X> >.5.2.5.*.9 / _ %.&.&.*.2.2.- 5 0 + 7 + 5 0 + o.2.2.*.*.*.%._ / 9 *.5.2.5.>.> 6XaXpXOX> Z.A.I.I.S.C.m.",
"/._.(.`.7.O +X-XiXdXdXpX+XwXqXqXqXqXeX0X0XqX4X;XqXqXqXJ 5 0 + @XJ 5 0 + ;XqXqXqXqXqXqX0XwX@XeXqXqXqXqX4XaXsXsX#XJ 9.Q.I._._.Q.m.",
"G./.(.`.7.O } } 4XdXdXsXtXsXdXdXdXdXdXdXdXdXpXyXdXdXdXJ 5 6 . 6XJ = 7 + 6XdXdXdXdXdXdXdXdXtXsXdXdXdXdXdXdXdXdXiXXX> v.D.S.I.I.m.",
"G.S.P._.U.7.7.# @XaXpXtX&XyXpXpXpXpXpXpXpXpX5X5XpXpXpXJ = 6 . #XyXJ 5 + #XpXpXpXpXpXpXpXyX&X8XpXpXpXpXpXpXpXpX8XXXO z.F.m.C.A.m.",
"G.D.C.Q.(.(.T., OXyXtX7X-X8XtXtXtXtXtXtXtXtX5X%XtXtXtXJ = . #XtXtXJ = . #XtXtXtXtXtXtXtX8X-X5XtXtXtXtXtXtXtXtX5XXXO z.F.A.S.S.m.",
"G.D.F.A.Q._.E., OXtX8X5X-X7XuX8X8X7X8X8X8XuX&X%X8X8XJ = 6 . #X8X8XJ = 6 + #X8X8X8X8X8X8X5XXX&X8X8X8X8X8XuX8XuX5XXXO b.A.!._.P.m.",
"G.D.F.A.S.Q.Y., XX5X&X&X%X&X=X=X%XOXoX+X%X5X$X+X&XP 0 ) ^ @ @X5X5XJ 5 ^ @.= OX&X%X%X=X%X+XXXOX%X=X&X&X%X&X&X&X=X+X% v.D.C.A.A.m.",
"G.D.F.!._.).Y., OXtXuXuXuXuX8X8X8X&XXX5X8X8X8X8X8X8X8X8X%X&XpXpXpXiXiX9X8X8X8X8X%X&XtX8X7X7X7X8X8X8X7X-X5X8XuXtX%X% z.N.m.m.m.m.",
"G.D.F.A.Q.R.U., OXyXtXtXtXtXtXtXtX5X-XuXtXtXtXtXtXtXtXtX+X+XtXtXtXtXtXtXtXtXtXtX%X5XtXtXtXtXtXtXtXtX8X-X7XtXtXyX&XO c.N.m.m.m.m.",
"G.D.F.C.C.C.Z.v j.>X>X>X>X2X2X2X2X2X;X,X>X>X1X2X2X2X2X2X@XOXtXtXtXtXtX0X2X2X2X1X;X;X1X2X2X>X>X>X1X2X2X;X,X>X>X>X;Xc v.N.m.m.N.m.",
"G.D.V.V.V.V.V.V.C.C.C.C.C.S.!./._._./.C.C.C.A.Q._._._._.J.J.rXrXrX3X<X'./.!.!.C.V.V.A.Q.).~.Q.Q.Q.!.S.C.C.C.C.C.V.V.C.F.C.C.C.C."
};
