/* XPM */
static char *_e64ba7f3ba64af1d7ac593b86e86a02eSy4GlJkkAZbpKB4[] = {
/* columns rows colors chars-per-pixel */
"64 64 153 2 ",
"   c None",
".  c #12121C",
"X  c #13131C",
"o  c #14131C",
"O  c #14141C",
"+  c #14141D",
"@  c #15141D",
"#  c #16141D",
"$  c #14151E",
"%  c #221312",
"&  c #391D1D",
"*  c #1E1722",
"=  c #1F1722",
"-  c #191C2B",
";  c #191C2C",
":  c #201822",
">  c #251A23",
",  c #251B23",
"<  c #261B23",
"1  c #261B24",
"2  c #2A1D26",
"3  c #2A1E26",
"4  c #2A1E27",
"5  c #2C1E27",
"6  c #351F2D",
"7  c #2E2028",
"8  c #2E2128",
"9  c #36202D",
"0  c #37202D",
"q  c #37202E",
"w  c #38202E",
"e  c #202534",
"r  c #3D293C",
"t  c #4D292D",
"y  c #422333",
"u  c #412433",
"i  c #422433",
"p  c #432533",
"a  c #472734",
"s  c #482734",
"d  c #492734",
"f  c #482930",
"g  c #482931",
"h  c #492931",
"j  c #492A31",
"k  c #4A2A31",
"l  c #4B2A31",
"z  c #492835",
"x  c #4E2A37",
"c  c #4E2A38",
"v  c #532D36",
"b  c #542D36",
"n  c #552E37",
"m  c #562E37",
"M  c #512D39",
"N  c #522E39",
"B  c #512E3A",
"V  c #593037",
"C  c #5A3138",
"Z  c #5B3138",
"A  c #58323A",
"S  c #59323B",
"D  c #5A333B",
"F  c #5B333B",
"G  c #5C3138",
"H  c #59333C",
"J  c #60343B",
"K  c #61343B",
"L  c #63373D",
"P  c #64373D",
"I  c #65373D",
"U  c #6E373C",
"Y  c #65383E",
"T  c #64383F",
"R  c #25304A",
"E  c #36354F",
"W  c #293757",
"Q  c #2A3858",
"!  c #2A3959",
"~  c #3B3952",
"^  c #3B3953",
"/  c #3C3A54",
"(  c #4F3441",
")  c #573D4A",
"_  c #5E3C4A",
"`  c #633640",
"'  c #663741",
"]  c #663C41",
"[  c #673C41",
"{  c #6B3A41",
"}  c #6B3A42",
"|  c #6B3B43",
" . c #6C3A42",
".. c #703C45",
"X. c #703D45",
"o. c #713D45",
"O. c #723D45",
"+. c #733F46",
"@. c #7E3F45",
"#. c #324161",
"$. c #3C4C67",
"%. c #3B4B69",
"&. c #3A4C6A",
"*. c #3D4E69",
"=. c #6B454F",
"-. c #714046",
";. c #724046",
":. c #724147",
">. c #744046",
",. c #744047",
"<. c #754047",
"1. c #774347",
"2. c #784347",
"3. c #784448",
"4. c #794448",
"5. c #7C464A",
"6. c #7C464B",
"7. c #7D464B",
"8. c #7D474B",
"9. c #7E474B",
"0. c #7F494C",
"q. c #6B4650",
"w. c #4E536E",
"e. c #425576",
"r. c #716463",
"t. c #833A3C",
"y. c #80494C",
"u. c #81494C",
"i. c #804A4D",
"p. c #814A4D",
"a. c #824A4D",
"s. c #9A4446",
"d. c #A94747",
"f. c #866269",
"g. c #495E80",
"h. c #4A5F80",
"j. c #4B6081",
"k. c #4B6183",
"l. c #556A80",
"z. c #536B8B",
"x. c #627D99",
"c. c #637D9A",
"v. c #728796",
"b. c #6A86A1",
"n. c #7490A8",
"m. c #8895A0",
"M. c #8F94A1",
"N. c #8AA5B8",
"B. c #93ACBD",
"V. c #94ADBD",
"C. c #94ADBE",
"Z. c #94AEBF",
"A. c #94AFC0",
/* pixels */
"                                                                                                                                ",
"                                                                                                                                ",
"                                                                                                                                ",
"                                                                                                                                ",
"                                                                                                                                ",
"                                                                                                                                ",
"                                                                                                                                ",
"                                                                                                                                ",
"                                                                                                                                ",
"                                                                                                                                ",
"                                                                                                                                ",
"                                                            X X X X X                                                           ",
"                                                          X 6 v V V a =                                                         ",
"                                                        X f Z Z Z Z Z a =                                                       ",
"                                                        X f 2.u.<.J Z Z >                                                       ",
"                                                        X ] u.u.u.<.J Z >                                                       ",
"                                                        X @ @ Z 5 @ f s =                                                       ",
"                                                        X % t } & t Z } 2                                                       ",
"                                                        X t.@.o.s.d.U  .2                                                       ",
"                                                        X f z ' o.o.J 1                                                         ",
"                                                          @ Z o.o.J >                                                           ",
"                                                            @ w i : X                                                           ",
"                                                        X X f s i n a = X                                                       ",
"                                                      X 6 ` J Z } o.o.9.0.7                                                     ",
"                                                    X 6 -.u.<.o.9.u.u.<.9.o.2                                                   ",
"                                                    X Z 9.u.I 3.u.u.u.I 3.u.7                                                   ",
"                                                  X v.B.f.Y 3.M.Z.Z.f.I 3.u.7                                                   ",
"                                                  X l.N.Z.r.m.Z.A.n.%.r n 3.N =                                                 ",
"                                                  X *.c.z.j.j.c.b.&.W - q -.I >                                                 ",
"                                                    @ R Q ( } / Q W ; X q ' 9.7                                                 ",
"                                                      @ H 9.<.9.u.N =   @ Z 9.7                                                 ",
"                                                      X q -.<.9.<.x =   X f 3.7                                                 ",
"                                                      X o Z o.o.o.x =   X @ Z 2                                                 ",
"                                                    X X X ] I 3.<.J a = X X f >                                                 ",
"                                                    X X q -.N -.I Z w.h.e f <.7                                                 ",
"                                                  X Z 2 $.) Z G Z E q.Y > Z 9.7                                                 ",
"                                                  X f > H ~ e.h.#.=.u.u.7 Z 9.7                                                 ",
"                                                    @ X ] <.~ Q _ 9.u.u.L > @                                                   ",
"                                                      X ] u.<.2 Z 9.u.u.I >                                                     ",
"                                                      X ] u.<.2 f 3.u.u.I >                                                     ",
"                                                      X ] u.<.2 f  .9.u.N =                                                     ",
"                                                      X ] <.o.2 q n 3.Y s =                                                     ",
"                                                      X f  .J > o Z o.J >                                                       ",
"                                                      X q ' c = X Z o.c =                                                       ",
"                                                        y n s = X q n s =                                                       ",
"                                                        @ f Z >   @ f Z >                                                       ",
"                                                        X f Z >   X f Z >                                                       ",
"                                                        X f Z >   X f Z >                                                       ",
"                                                        X f s =   X q n >                                                       ",
"                                                        X q i =     @ f >                                                       ",
"                                                        X q =       X q =                                                       ",
"                                                      X 6 i =       X q i =                                                     ",
"                                                    X Z 9.<.2       X f <.u.7                                                   ",
"                                                                                                                                ",
"                                                                                                                                ",
"                                                                                                                                ",
"                                                                                                                                ",
"                                                                                                                                ",
"                                                                                                                                ",
"                                                                                                                                ",
"                                                                                                                                ",
"                                                                                                                                ",
"                                                                                                                                ",
"                                                                                                                                "
};
